<?xml version="1.0" encoding="UTF-8"?>
<!DOCTYPE svg PUBLIC "-//W3C//DTD SVG 1.1//EN" "http://www.w3.org/Graphics/SVG/1.1/DTD/svg11.dtd">
<!-- Creator: CorelDRAW -->
<svg xmlns="http://www.w3.org/2000/svg" xml:space="preserve" width="66.269mm" height="18.264mm" style="shape-rendering:geometricPrecision; text-rendering:geometricPrecision; image-rendering:optimizeQuality; fill-rule:evenodd; clip-rule:evenodd"
viewBox="0 0 66.269 18.264"
 xmlns:xlink="http://www.w3.org/1999/xlink">
 <defs>
  <style type="text/css">
   <![CDATA[
    .fil0 {fill:#3B8702}
   ]]>
  </style>
 </defs>
 <g id="Layer_x0020_1">
  <metadata id="CorelCorpID_0Corel-Layer"/>
  <g id="_183258016">
   <path id="_183257968" class="fil0" d="M26.848 14.343l0 -7.4302 1.3841 0.0001 0 7.4302 -1.3841 -0.0001 0 0zm-6.1918 -3.5694c1.3841,0.7284 2.4768,1.9668 2.841,3.5694l-1.4569 0c-0.3643,-1.0927 -1.1656,-1.9668 -2.1854,-2.4039l-0.2185 0.3643 0 2.0397 -1.3841 -0.0001 0 -7.4302 1.384 0.0001 0 2.9137 1.7483 -2.5496 0 0c0.0729,-0.1456 0.2186,-0.2185 0.3643,-0.2913 0.1456,-0.0729 0.2914,-0.0729 0.437,-0.0729l0 0 1.2384 0.0001 -2.7681 3.8607 0 0zm38.8264 -2.7681c0.6556,-0.6556 1.6026,-1.0926 2.6224,-1.0926 1.0198,0 1.9668,0.437 2.6224,1.0926 0.6556,0.6557 1.0926,1.6026 1.0926,2.6224 0,1.0198 -0.437,1.9669 -1.0926,2.6224 -0.6557,0.6557 -1.6026,1.0927 -2.6224,1.0927 -1.0198,0 -1.9669,-0.437 -2.6224,-1.0927 -0.6557,-0.6556 -1.0927,-1.6026 -1.0927,-2.6224 0.0729,-1.0198 0.4371,-1.8939 1.0927,-2.6224l0 0zm2.6224 0.3642c-0.6556,0 -1.2383,0.2914 -1.6025,0.6557 -0.4371,0.437 -0.6557,1.0198 -0.6557,1.6025 0,0.6557 0.2914,1.2384 0.6557,1.6026 0.3642,0.3643 1.0198,0.6557 1.6025,0.6557 0.6557,0 1.2384,-0.2914 1.6026,-0.6557 0.4371,-0.437 0.6557,-1.0198 0.6557,-1.6026 0,-0.6556 -0.2914,-1.2383 -0.6557,-1.6025 -0.3642,-0.4372 -0.947,-0.6557 -1.6026,-0.6557l0 0zm-11.1453 1.5298l0 4.3707 0 0.0729 -0.0728 -0.0001 -1.1655 0 -0.0729 0 0 -0.0729 0 -7.2117 0 -0.0728 0.0729 0.0001 0.437 0 0 0c0.1457,0 0.2914,0.0728 0.437,0.0728 0.1457,0.0729 0.2186,0.1457 0.3643,0.2914l0 0 2.841 4.0793 0 -4.3707 0 -0.0728 0.0728 0 1.1656 0 0.0728 0 0 0.0728 0 7.2117 0 0.0729 -0.0728 -0.0001 -0.4371 0 0 0c-0.1457,0 -0.2914,-0.0729 -0.4371,-0.0729 -0.1456,-0.0728 -0.2185,-0.1456 -0.3642,-0.2913l0 0 -2.841 -4.0793 0 0zm-5.7547 -1.4569l0.7284 4.225c0.0729,0.0728 0.2185,0.2185 0.2914,0.2913 0.0729,0.1457 0.0729,0.2914 0.0729,0.4371 0,0.2914 -0.0729,0.5099 -0.2914,0.6556l0 0 0 0c-0.1457,0.1457 -0.4371,0.2914 -0.6556,0.2914 -0.2186,0 -0.51,-0.0729 -0.6557,-0.2914l0 0c-0.1456,-0.1456 -0.2914,-0.437 -0.2914,-0.6556 0,-0.0729 0,-0.2185 0.0729,-0.2914 0,-0.0729 0.0729,-0.1457 0.0729,-0.2185l-0.1457 -0.8742 -2.1853 0.0001 -0.1457 0.8742c0.0729,0.0728 0.0729,0.1456 0.0729,0.2185 0,0.0728 0.0728,0.2185 0.0728,0.2914 0,0.2913 -0.0728,0.5099 -0.2914,0.6556l0 0 0 0c-0.1456,0.1457 -0.437,0.2914 -0.6556,0.2914 -0.2914,0 -0.5099,-0.0729 -0.6556,-0.2914l0 0c-0.1457,-0.1457 -0.2914,-0.437 -0.2914,-0.6556 0,-0.1457 0.0729,-0.2914 0.0729,-0.4371 0.0728,-0.1456 0.1456,-0.2185 0.2913,-0.2914l0.7285 -4.2249 0 -0.0729 0 0c0.1456,-0.3643 0.3642,-0.7284 0.6556,-1.0198 0.2914,-0.2914 0.7284,-0.4371 1.1655,-0.4371 0.4371,0 0.8742,0.1457 1.1656,0.4371 0.2914,0.2185 0.5828,0.5828 0.6556,1.0198l0 0 0.1456 0.0728 0 0zm-1.0199 2.2582l-0.3642 -1.9668c0,-0.1457 -0.0729,-0.2186 -0.2186,-0.2914 -0.0728,-0.0729 -0.2185,-0.0729 -0.2913,-0.0729 -0.1457,0 -0.2186,0.0729 -0.2914,0.0729 -0.0729,0.0728 -0.1457,0.1456 -0.2185,0.2914l-0.3643 1.9668 1.7483 0 0 0zm-7.066 -2.0397l-0.7284 4.225 0 0.0728 0 0c-0.1456,0.3643 -0.3642,0.7285 -0.6556,1.0199 -0.2914,0.2913 -0.7284,0.437 -1.1656,0.437 -0.437,0 -0.8741,-0.1457 -1.1655,-0.437 -0.2914,-0.2186 -0.5828,-0.5828 -0.6556,-1.0199l0 0 0 -0.0728 -0.7285 -4.225c-0.0728,-0.0729 -0.2185,-0.2185 -0.2913,-0.2914 -0.0729,-0.1456 -0.0729,-0.2914 -0.0729,-0.437 0,-0.2914 0.0729,-0.5099 0.2914,-0.6557l0 0c0.1456,-0.1456 0.437,-0.2913 0.6556,-0.2913 0.2914,0 0.5099,0.0728 0.6556,0.2913 0.1457,0.2186 0.2914,0.4371 0.2914,0.6557 0,0.0728 0,0.2185 -0.0728,0.2914 0,0.0728 -0.0729,0.1456 -0.0729,0.2185l0.7284 4.225c0,0.1456 0.0729,0.2185 0.2186,0.2913 0.0728,0.0729 0.2185,0.0729 0.2913,0.0729 0.1457,0 0.2186,-0.0729 0.2914,-0.0729 0.0729,-0.0728 0.1457,-0.1456 0.2185,-0.2913l0.7285 -4.1522c-0.0729,-0.0729 -0.0729,-0.1457 -0.0729,-0.2185 0,-0.0729 -0.0729,-0.2186 -0.0729,-0.2914 0,-0.2914 0.0729,-0.5099 0.2914,-0.6557 0.1457,-0.1456 0.4371,-0.2914 0.6557,-0.2914 0.2913,0 0.5099,0.0729 0.6556,0.2914l0 0c0.1457,0.1457 0.2914,0.4371 0.2914,0.6557 0,0.1456 -0.0729,0.2914 -0.0729,0.437 -0.2912,0.0001 -0.3641,0.1457 -0.437,0.2186z"/>
   <path id="_183258400" class="fil0" d="M0.551 17.6939l12.6021 0 0 -9.3242 0 -4.6621 -3.7879 0 -0.2185 -1.384c-0.2185,-1.0927 -1.0927,-1.894 -2.2582,-1.894 -1.1656,0 -2.0397,0.8013 -2.2583,1.894l-0.2185 1.384 -3.7879 0 0 4.6621 -0.0728 9.3242 0 0zm8.0858 -14.0591l-3.6423 0 0.2185 -1.3112c0.1457,-0.7284 0.8013,-1.3112 1.6026,-1.3112 0.8013,0 1.4569,0.5828 1.6026,1.3112l0.2186 1.3112 0 0zm1.0198 2.0397l-0.2185 -1.3112 2.9866 0 0 4.0064 -11.2181 0 0 -4.0064 2.9866 0 -0.2185 1.3112c-0.2914,0.0728 -0.4371,0.3642 -0.4371,0.6556 0,0.3642 0.2914,0.6556 0.6557,0.6556 0.3642,0 0.6556,-0.2914 0.6556,-0.6556 0,-0.2185 -0.0729,-0.3643 -0.2185,-0.5099l0.2914 -1.4569 3.8606 0 0.2914 1.4569c-0.1456,0.1456 -0.2185,0.2914 -0.2185,0.5099 0,0.3642 0.2914,0.6556 0.6556,0.6556 0.3643,0 0.6557,-0.2914 0.6557,-0.6556 -0.0729,-0.3643 -0.2186,-0.5828 -0.51,-0.6556l0 0zm-5.8276 5.9732l0 0 0 -0.7284c-0.2185,-0.1456 -0.3642,-0.3642 -0.3642,-0.5827 0,-0.3643 0.2914,-0.6557 0.6556,-0.6557 0.3643,0 0.6556,0.2914 0.6556,0.6557 0,0.2185 -0.1456,0.437 -0.3642,0.5827l0 0.7284 0 0c0,1.2384 1.0198,2.3311 2.331,2.3311 1.3112,0 2.331,-1.0199 2.331,-2.3311l0 0 0 -0.7284c-0.2185,-0.1456 -0.3642,-0.3642 -0.3642,-0.5827 0,-0.3643 0.2914,-0.6557 0.6556,-0.6557 0.3642,0 0.6556,0.2914 0.6556,0.6557 0,0.2185 -0.1456,0.437 -0.3642,0.5827l0 0.7284 0 0c0,1.6755 -1.3112,2.9867 -2.9867,2.9867 -1.5297,0 -2.8409,-1.3112 -2.8409,-2.9867z"/>
  </g>
 </g>
</svg>
