<svg width="212" height="33" viewBox="0 0 212 33" fill="none" xmlns="http://www.w3.org/2000/svg">
<g clip-path="url(#clip0_256_3001)">
<path d="M143.588 0C142.532 0 142.038 0.450157 142.038 1.41478C142.038 2.38435 142.532 2.83451 143.588 2.83451C144.111 2.83451 144.504 2.71084 144.756 2.4635C145.012 2.21616 145.138 1.86494 145.138 1.41478C145.143 0.450157 144.644 0 143.588 0Z" fill="#695B55"/>
<path d="M68.417 15.8792C69.2649 15.8792 70.1079 15.8198 70.9219 15.6962C71.7165 15.5774 72.5741 15.3647 73.4752 15.0679V7.56364H67.918V9.98262H70.6603V13.2425L70.4374 13.2871C69.8172 13.4008 69.2068 13.4602 68.6157 13.4602C67.3608 13.4602 66.3966 13.0199 65.7329 12.1543C65.0788 11.2935 64.7445 10.037 64.7445 8.41449C64.7445 6.8612 65.1563 5.60966 65.9703 4.68461C66.7794 3.75461 67.8792 3.28467 69.2261 3.28467C70.3453 3.28467 71.4355 3.54685 72.4772 4.05637L73.4268 1.73138C72.0896 1.15755 70.6845 0.865692 69.2504 0.865692C66.915 0.865692 65.0691 1.52856 63.7561 2.83946C62.4431 4.15036 61.7793 6.0054 61.7793 8.35512C61.7793 10.7741 62.351 12.6539 63.4848 13.94C64.6088 15.2262 66.2707 15.8792 68.417 15.8792Z" fill="#695B55"/>
<path d="M80.4615 15.8792C82.1234 15.8792 83.4364 15.3647 84.3666 14.3506C85.2969 13.3365 85.7668 11.9069 85.7668 10.0964C85.7668 8.93388 85.5488 7.9 85.1225 7.03431C84.6961 6.16863 84.0759 5.50081 83.2862 5.04076C82.4916 4.58071 81.5565 4.34326 80.5197 4.34326C78.8433 4.34326 77.5254 4.85278 76.6049 5.85203C75.6794 6.85128 75.2095 8.2809 75.2095 10.0964C75.2095 11.2638 75.4275 12.2977 75.8539 13.1683C76.2802 14.039 76.9004 14.7167 77.6901 15.1767C78.4847 15.6417 79.4198 15.8792 80.4615 15.8792ZM78.6592 7.52404C79.0419 6.93538 79.633 6.64846 80.4809 6.64846C81.3385 6.64846 81.9392 6.93538 82.3172 7.53394C82.6805 8.10776 82.8647 8.96851 82.8647 10.1013C82.8647 11.2391 82.6805 12.1147 82.322 12.6934C81.9441 13.3019 81.353 13.5937 80.5051 13.5937C79.6524 13.5937 79.0468 13.3019 78.664 12.6885C78.2958 12.0998 78.1117 11.2292 78.1117 10.0964C78.1068 8.95861 78.2909 8.09292 78.6592 7.52404Z" fill="#695B55"/>
<path d="M97.0171 7.03431C96.5907 6.17357 95.9754 5.50576 95.1808 5.04076C94.3862 4.58071 93.4559 4.34326 92.4191 4.34326C90.7427 4.34326 89.4249 4.85278 88.5043 5.85203C87.5789 6.85128 87.1138 8.2809 87.1138 10.0964C87.1138 11.2638 87.3318 12.2977 87.7582 13.1683C88.1845 14.039 88.7998 14.7117 89.5944 15.1767C90.389 15.6417 91.3193 15.8792 92.361 15.8792C94.0277 15.8792 95.3407 15.3647 96.2661 14.3506C97.1963 13.3365 97.6663 11.9069 97.6663 10.0964C97.6615 8.93388 97.4434 7.90495 97.0171 7.03431ZM94.2166 12.6885C93.8387 13.2969 93.2428 13.5888 92.3949 13.5888C91.5421 13.5888 90.9414 13.2969 90.5586 12.6885C90.1952 12.1048 90.0063 11.2341 90.0063 10.0964C90.0063 8.95366 90.1904 8.08798 90.5538 7.5191C90.9317 6.93043 91.5276 6.64352 92.3755 6.64352C93.2331 6.64352 93.829 6.93043 94.2069 7.52899C94.5752 8.10282 94.7544 8.96851 94.7544 10.0964C94.7544 11.2341 94.5752 12.1048 94.2166 12.6885Z" fill="#695B55"/>
<path d="M109.169 15.6764V0.128632H106.325V3.65074C106.325 4.16026 106.373 4.72914 106.46 5.33759L106.601 6.28243L105.981 5.5602C105.293 4.75387 104.343 4.34329 103.171 4.34329C101.882 4.34329 100.855 4.85281 100.118 5.85701C99.377 6.8711 99.0039 8.31061 99.0039 10.136C99.0039 11.9366 99.3721 13.3563 100.099 14.3655C100.821 15.3647 101.824 15.8742 103.088 15.8742C104.382 15.8742 105.38 15.3796 106.044 14.41L106.334 13.9895L107.003 15.6714H109.169V15.6764ZM106.533 10.4872C106.499 11.6101 106.291 12.4115 105.923 12.8864C105.545 13.3662 104.949 13.6086 104.145 13.6086C103.408 13.6086 102.856 13.3217 102.454 12.733C102.066 12.1642 101.872 11.3084 101.872 10.1755C101.872 9.05263 102.066 8.17705 102.449 7.58344C102.841 6.96509 103.384 6.66333 104.096 6.66333C104.963 6.66333 105.574 6.93541 105.961 7.49439C106.334 8.03359 106.528 8.92896 106.528 10.1558V10.4872H106.533Z" fill="#695B55"/>
<path d="M125.569 12.5896L119.033 1.0784H115.307V15.6813H117.865V8.81517C117.865 8.0781 117.812 6.86119 117.715 5.19907L117.638 4.0069L124.212 15.6863H127.972V1.0784H125.395V7.98411C125.395 8.70139 125.433 9.86389 125.511 11.4271L125.569 12.5896Z" fill="#695B55"/>
<path d="M135.206 4.34824C133.602 4.34824 132.328 4.8627 131.422 5.87185C130.516 6.88594 130.056 8.34524 130.056 10.2052C130.056 12.0108 130.555 13.4256 131.533 14.41C132.512 15.3895 133.898 15.8891 135.652 15.8891C136.509 15.8891 137.241 15.8248 137.832 15.6962C138.409 15.5675 138.956 15.3796 139.45 15.1273V12.9457C138.859 13.2228 138.273 13.4305 137.701 13.569C137.105 13.7076 136.461 13.7818 135.783 13.7818C134.901 13.7818 134.208 13.5245 133.714 13.015C133.263 12.5451 133.001 11.902 132.934 11.1006L132.909 10.7988H140.07V9.3989C140.07 7.82583 139.639 6.57924 138.786 5.68881C137.948 4.79839 136.742 4.34824 135.206 4.34824ZM132.982 8.93391L133.021 8.62226C133.094 7.94455 133.307 7.4004 133.651 7.00961C134.038 6.56934 134.552 6.35168 135.23 6.35168C135.904 6.35168 136.427 6.5644 136.824 7.00961C137.183 7.4004 137.386 7.9495 137.43 8.6371L137.444 8.93391H132.982Z" fill="#695B55"/>
<path d="M144.954 4.56094H142.12V15.6813H144.954V4.56094Z" fill="#695B55"/>
<path d="M151.035 4.34824C149.741 4.34824 148.719 4.85776 147.982 5.86195C147.241 6.87604 146.863 8.31556 146.863 10.1409C146.863 11.9119 147.227 13.3316 147.944 14.3605C148.651 15.3697 149.664 15.8841 150.953 15.8841C152.144 15.8841 153.089 15.4587 153.758 14.6178L154.3 13.9351L154.189 15.7159V15.9188C154.189 17.6897 153.375 18.5851 151.766 18.5851C150.269 18.5851 148.845 18.3081 147.537 17.7639V20.0246C148.656 20.4451 150.017 20.6627 151.587 20.6627C153.39 20.6627 154.766 20.2472 155.672 19.426C156.573 18.6098 157.033 17.388 157.033 15.8V4.56095H154.644L154.363 6.19833L153.981 5.72839C153.254 4.81323 152.256 4.34824 151.035 4.34824ZM154.402 10.1607V10.5367C154.402 11.62 154.218 12.4164 153.86 12.9062C153.491 13.4058 152.881 13.6581 152.038 13.6581C151.253 13.6581 150.686 13.3712 150.308 12.7776C149.945 12.1988 149.761 11.3281 149.761 10.1805C149.761 7.81099 150.487 6.66333 151.985 6.66333C152.842 6.66333 153.443 6.9354 153.835 7.49934C154.213 8.04843 154.402 8.93885 154.402 10.1607Z" fill="#695B55"/>
<path d="M165.599 4.34824C164.305 4.34824 163.317 4.79345 162.663 5.67892L162.096 6.43578L162.207 4.99132C162.256 4.01186 162.275 3.47266 162.275 3.24511V0.128632H159.441V15.6813H162.275V10.4575C162.275 9.12683 162.469 8.15232 162.852 7.54881C163.249 6.92551 163.874 6.62376 164.766 6.62376C166.011 6.62376 166.646 7.47955 166.646 9.17136V15.6813H169.48V8.39966C169.48 7.09865 169.146 6.08456 168.491 5.39201C167.842 4.69946 166.868 4.34824 165.599 4.34824Z" fill="#695B55"/>
<path d="M177.751 4.34824C176.549 4.34824 175.594 4.7885 174.921 5.65419L174.364 6.36158L174.432 5.45632C174.49 4.64505 174.514 4.07122 174.514 3.69526V0.128632H171.68V15.6813H173.831L174.335 14.4397H174.645L174.727 14.5386C175.444 15.434 176.433 15.8891 177.668 15.8891C178.947 15.8891 179.97 15.3845 180.711 14.3902C181.457 13.386 181.84 11.9465 181.84 10.1063C181.84 8.32051 181.472 6.89583 180.745 5.8768C180.033 4.85776 179.02 4.34824 177.751 4.34824ZM178.38 12.6588C177.993 13.2772 177.479 13.5789 176.815 13.5789C176.006 13.5789 175.435 13.3069 175.057 12.7479C174.693 12.2087 174.514 11.3133 174.514 10.0816V9.75013C174.529 8.647 174.713 7.84562 175.066 7.36578C175.43 6.86615 175.992 6.62376 176.777 6.62376C177.46 6.62376 177.978 6.91067 178.371 7.50429C178.749 8.07317 178.942 8.93886 178.942 10.0618C178.947 11.1847 178.758 12.0603 178.38 12.6588Z" fill="#695B55"/>
<path d="M191.355 5.04573C190.56 4.58073 189.63 4.34824 188.589 4.34824C186.912 4.34824 185.594 4.85776 184.674 5.85701C183.748 6.85626 183.283 8.28588 183.283 10.1013C183.283 11.2638 183.501 12.2977 183.928 13.1733C184.349 14.0439 184.969 14.7167 185.764 15.1817C186.558 15.6467 187.489 15.8841 188.53 15.8841C190.192 15.8841 191.51 15.3697 192.436 14.3556C193.366 13.3365 193.841 11.9069 193.841 10.1013C193.841 8.93391 193.623 7.90497 193.196 7.03929C192.765 6.1736 192.145 5.50084 191.355 5.04573ZM190.386 12.6984C190.013 13.3069 189.417 13.5987 188.569 13.5987C187.712 13.5987 187.111 13.3019 186.728 12.6984C186.36 12.1147 186.176 11.2391 186.176 10.1063C186.176 8.96359 186.36 8.0979 186.723 7.52902C187.101 6.94035 187.702 6.65344 188.55 6.65344C189.403 6.65344 190.003 6.94035 190.386 7.53397C190.749 8.10779 190.938 8.97843 190.938 10.1063C190.934 11.2441 190.749 12.1147 190.386 12.6984Z" fill="#695B55"/>
<path d="M199.917 4.91217C199.408 5.2535 198.991 5.68882 198.671 6.21317L198.328 6.78205L197.804 4.56589H195.682V15.6813H198.516V10.0222C198.516 9.08726 198.797 8.35019 199.355 7.82583C199.907 7.30641 200.692 7.04423 201.675 7.04423C201.981 7.04423 202.252 7.06897 202.485 7.11844L202.698 4.42244C202.441 4.37297 202.136 4.34824 201.777 4.34824C201.109 4.34824 200.484 4.53621 199.917 4.91217Z" fill="#695B55"/>
<path d="M211.724 11.0115C211.545 10.6306 211.254 10.2794 210.857 9.9727C210.459 9.666 209.825 9.33457 208.977 8.98829C207.983 8.57771 207.358 8.2809 207.068 8.07314C206.762 7.86043 206.598 7.58835 206.598 7.27671C206.598 6.4407 207.678 6.4407 208.032 6.4407C208.541 6.4407 209.049 6.51985 209.539 6.67814C209.994 6.82655 210.493 7.01453 211.016 7.24208L211.855 5.18916C210.634 4.63018 209.364 4.34326 208.08 4.34326C206.709 4.34326 205.634 4.61534 204.892 5.15453C204.156 5.68384 203.788 6.4407 203.788 7.40532C203.788 7.97915 203.875 8.46393 204.054 8.84978C204.229 9.24058 204.514 9.58685 204.897 9.88366C205.285 10.1854 205.895 10.5119 206.753 10.8829C207.329 11.1303 207.814 11.3578 208.187 11.5606C208.545 11.7535 208.807 11.9316 208.962 12.0949C209.127 12.268 209.209 12.4857 209.209 12.7528C209.209 13.4602 208.623 13.8213 207.47 13.8213C206.927 13.8213 206.292 13.7273 205.59 13.5443C204.946 13.381 204.345 13.1733 203.807 12.9259V15.2608C204.277 15.4636 204.791 15.617 205.328 15.7209C205.886 15.8297 206.574 15.8891 207.373 15.8891C208.919 15.8891 210.091 15.5873 210.861 14.9986C211.622 14.41 212.01 13.5443 212.01 12.4214C212 11.8822 211.908 11.4073 211.724 11.0115Z" fill="#695B55"/>
<path d="M26.2651 22.4089C25.2816 20.2521 26.0229 17.9667 27.7283 15.9039C28.8281 19.6288 31.0956 22.7057 34.5502 25.1593C30.5336 26.1388 27.4715 25.0406 26.2651 22.4089ZM29.3127 10.1112C29.4192 5.50576 31.7836 2.55748 33.741 2.48328C35.4174 2.42392 35.5821 4.28391 34.7246 6.52975C33.804 8.94873 31.7206 10.69 29.4968 12.5351C29.3514 11.7288 29.2981 10.9175 29.3127 10.1112ZM54.5069 13.6927C58.945 5.0655 52.2588 -0.826121 45.8682 0.257225C41.9195 0.925041 40.2479 3.33413 39.3128 6.46544C39.9572 5.92129 40.5193 5.63933 41.3865 5.33757C41.7499 3.30939 43.2083 1.5236 45.3013 1.48897C49.0369 1.42467 52.598 8.36501 46.3139 16.735C44.1482 19.6189 41.5997 21.6669 39.4727 22.958C33.993 20.7221 30.9309 17.6007 29.8117 13.8708C30.6111 13.2228 31.4929 12.6143 32.428 12.0701C37.0114 9.38899 38.3535 7.60815 38.5037 5.07045C38.6345 2.96806 36.8661 1.39004 34.836 1.39004C30.5239 1.39004 27.2487 5.64922 27.1033 11.1649C27.0742 12.268 27.1663 13.3464 27.3601 14.3852C19.1574 22.0775 22.4327 28.5083 30.5433 28.3748C32.6654 28.3451 35.1025 27.9048 37.6074 27.0193C40.8729 28.726 44.0368 29.7104 48.2035 30.1061C49.1338 27.8949 51.2414 26.0597 52.535 24.9862C49.095 25.0406 46.0959 24.7735 43.5038 24.2491C47.6124 21.8994 52.2879 17.9964 54.5069 13.6927Z" fill="#89A130"/>
<path d="M20.0924 28.4044H0V30.1061H20.0924V28.4044Z" fill="#89A130"/>
<path d="M68.916 29.9083H67.5837L64.3908 25.5254L63.475 26.3466V29.9083H62.3413V20.7271H63.475V25.2534L64.2503 24.3827L67.4528 20.7271H68.7755L65.2144 24.729L68.916 29.9083Z" fill="#695B55"/>
<path d="M68.8047 23.0125H69.9917L71.4501 26.9353C71.7553 27.791 71.9443 28.4143 72.017 28.815H72.0654C72.1042 28.6617 72.1865 28.3698 72.3174 27.9444C72.4482 27.519 72.5596 27.1776 72.6517 26.9254L74.0228 23.0125H75.2147L72.3077 30.863C72.0267 31.6248 71.6875 32.169 71.2999 32.5004C70.9123 32.8318 70.4278 32.9951 69.8561 32.9951C69.5508 32.9951 69.2407 32.9604 68.9403 32.8862V31.9859C69.1438 32.0354 69.3909 32.0601 69.6768 32.0601C70.0305 32.0601 70.3309 31.9612 70.5731 31.7633C70.8202 31.5654 71.0189 31.2587 71.1739 30.8432L71.5228 29.9281L68.8047 23.0125Z" fill="#695B55"/>
<path d="M79.3085 22.8888C79.6089 22.8888 79.8705 22.9135 80.1031 22.963L79.9674 24.0068C79.7155 23.9474 79.4732 23.9177 79.2358 23.9177C78.8773 23.9177 78.5478 24.0167 78.2426 24.2195C77.9373 24.4223 77.6999 24.6993 77.5255 25.0505C77.3511 25.4067 77.2687 25.7975 77.2687 26.2279V29.9083H76.1592V23.0125H77.0701L77.1912 24.2739H77.2396C77.4964 23.8188 77.8017 23.4725 78.1553 23.24C78.509 23.0026 78.8918 22.8888 79.3085 22.8888Z" fill="#695B55"/>
<path d="M85.6846 29.844L85.7233 28.9981H85.6749C85.2195 29.6906 84.5218 30.0319 83.5818 30.0319C82.7097 30.0319 82.0266 29.7203 81.5372 29.102C81.0479 28.4787 80.8008 27.6031 80.8008 26.4752C80.8008 25.3671 81.0479 24.4916 81.5421 23.8485C82.0363 23.2103 82.7097 22.8888 83.5673 22.8888C84.483 22.8888 85.1855 23.2351 85.6846 23.9326H85.7524L85.8978 23.0174H86.7796V30.027C86.7796 31.0164 86.5325 31.7584 86.0431 32.258C85.5538 32.7576 84.7931 33.005 83.7563 33.005C82.7727 33.005 81.9636 32.8566 81.3289 32.5647V31.5209C81.983 31.882 82.8163 32.0601 83.8192 32.0601C84.391 32.0601 84.8464 31.887 85.1807 31.5457C85.515 31.2043 85.6846 30.7294 85.6846 30.121V29.844ZM83.7466 29.1118C84.4297 29.1118 84.9239 28.9239 85.234 28.5479C85.5441 28.172 85.6991 27.5734 85.6991 26.7423V26.4703C85.6991 25.5502 85.5441 24.8774 85.234 24.4619C84.9239 24.0414 84.42 23.8336 83.7272 23.8336C83.1603 23.8336 82.7243 24.0612 82.4142 24.5212C82.1041 24.9813 81.9491 25.6343 81.9491 26.4851C81.9491 27.3409 82.0993 27.9889 82.3996 28.4391C82.6952 28.8892 83.1458 29.1118 83.7466 29.1118Z" fill="#695B55"/>
<path d="M87.7393 23.0125H88.9263L90.3847 26.9353C90.6899 27.791 90.8789 28.4143 90.9515 28.815H91C91.0387 28.6617 91.1211 28.3698 91.2519 27.9444C91.3827 27.519 91.4942 27.1776 91.5862 26.9254L92.9574 23.0125H94.1493L91.2422 30.863C90.9612 31.6248 90.6221 32.169 90.2345 32.5004C89.8469 32.8318 89.3623 32.9951 88.7906 32.9951C88.4854 32.9951 88.1753 32.9604 87.8749 32.8862V31.9859C88.0784 32.0354 88.3255 32.0601 88.6114 32.0601C88.9651 32.0601 89.2655 31.9612 89.5077 31.7633C89.7548 31.5654 89.9534 31.2587 90.1085 30.8432L90.4573 29.9281L87.7393 23.0125Z" fill="#695B55"/>
<path d="M99.4542 29.9083H94.5171V29.1613L98.146 23.893H94.7303V23.0125H99.3622V23.8584L95.7865 29.0376H99.4542V29.9083Z" fill="#695B55"/>
<path d="M105.322 26.1141V29.9083H104.188V20.7271H106.669C107.783 20.7271 108.607 20.9447 109.144 21.3751C109.677 21.8104 109.949 22.4584 109.949 23.3291C109.949 24.546 109.348 25.3671 108.146 25.7926L110.613 29.9083H109.29L107.114 26.1141H105.322ZM105.322 25.1346H106.669C107.4 25.1346 107.933 24.9862 108.268 24.6944C108.602 24.4025 108.771 23.9672 108.771 23.3884C108.771 22.8096 108.602 22.3892 108.263 22.122C107.924 21.8549 107.371 21.7214 106.606 21.7214H105.322V25.1346Z" fill="#695B55"/>
<path d="M114.619 30.032C113.607 30.032 112.812 29.7203 112.235 29.0921C111.659 28.4688 111.373 27.6031 111.373 26.5098C111.373 25.4067 111.64 24.5262 112.177 23.8683C112.715 23.2153 113.442 22.8839 114.353 22.8839C115.201 22.8839 115.879 23.1609 116.383 23.7248C116.887 24.2838 117.139 25.0406 117.139 25.9954V26.678H112.512C112.531 27.4596 112.725 28.0532 113.098 28.4638C113.471 28.8744 113.989 29.0723 114.668 29.0723C115.031 29.0723 115.37 29.0377 115.695 28.9733C116.019 28.909 116.397 28.7804 116.833 28.5924V29.5867C116.46 29.75 116.112 29.8638 115.782 29.933C115.453 30.0023 115.065 30.032 114.619 30.032ZM114.343 23.8089C113.815 23.8089 113.393 23.982 113.088 24.3283C112.783 24.6746 112.599 25.1594 112.541 25.7777H115.981C115.971 25.1346 115.826 24.6449 115.545 24.3085C115.259 23.9771 114.861 23.8089 114.343 23.8089Z" fill="#695B55"/>
<path d="M121.926 30.032C121.02 30.032 120.322 29.7005 119.833 29.0327H119.76L119.784 29.2899C119.818 29.6164 119.833 29.9083 119.833 30.1606V32.9951H118.723V23.0125H119.634L119.779 23.9524H119.828C120.089 23.5764 120.395 23.3043 120.739 23.1361C121.083 22.9679 121.48 22.8839 121.931 22.8839C122.808 22.8839 123.491 23.1955 123.975 23.8138C124.46 24.4371 124.702 25.3127 124.702 26.4406C124.702 27.5685 124.46 28.444 123.97 29.0772C123.491 29.7203 122.808 30.032 121.926 30.032ZM121.742 23.8336C121.073 23.8336 120.588 24.0266 120.293 24.4124C119.997 24.7983 119.842 25.4018 119.833 26.2279V26.4455C119.833 27.3805 119.983 28.0532 120.288 28.4688C120.593 28.8843 121.083 29.0921 121.766 29.0921C122.333 29.0921 122.774 28.8596 123.093 28.3896C123.413 27.9197 123.568 27.2667 123.568 26.4307C123.568 25.5897 123.408 24.9467 123.093 24.5014C122.774 24.0562 122.323 23.8336 121.742 23.8336Z" fill="#695B55"/>
<path d="M127.396 23.0125V27.4547C127.396 28.0136 127.517 28.4242 127.764 28.6963C128.006 28.9684 128.384 29.1019 128.898 29.1019C129.59 29.1019 130.094 28.9041 130.409 28.5133C130.724 28.1175 130.884 27.4843 130.884 26.6088V23.0174H131.998V29.9132H131.088L130.928 29.003H130.874C130.671 29.3344 130.39 29.5867 130.022 29.7698C129.653 29.9478 129.222 30.0418 128.738 30.0418C127.924 30.0418 127.313 29.844 126.901 29.4433C126.49 29.0475 126.281 28.4094 126.281 27.5338V23.0174H127.396V23.0125Z" fill="#695B55"/>
<path d="M137.212 22.8987C138.103 22.8987 138.787 23.2103 139.271 23.8386C139.756 24.4619 139.998 25.3374 139.998 26.4604C139.998 27.5981 139.751 28.4786 139.261 29.1019C138.767 29.7252 138.089 30.0319 137.212 30.0319C136.756 30.0319 136.349 29.9478 135.996 29.7797C135.637 29.6115 135.347 29.3641 135.124 29.0327H135.036C134.91 29.5373 134.833 29.8242 134.809 29.9033H134.014V20.1384H135.124V22.5128C135.124 22.9877 135.104 23.4577 135.061 23.9326H135.124C135.574 23.2449 136.272 22.8987 137.212 22.8987ZM137.028 23.8336C136.345 23.8336 135.86 24.0315 135.565 24.4223C135.269 24.818 135.124 25.4809 135.124 26.4208V26.4703C135.124 27.4101 135.274 28.0829 135.574 28.4885C135.875 28.8942 136.369 29.097 137.052 29.097C137.658 29.097 138.113 28.8694 138.409 28.4143C138.704 27.9592 138.854 27.3063 138.854 26.4455C138.854 25.5749 138.704 24.9219 138.404 24.4866C138.103 24.0513 137.643 23.8336 137.028 23.8336Z" fill="#695B55"/>
<path d="M142.745 29.9083H141.635V20.1384H142.745V29.9083Z" fill="#695B55"/>
<path d="M144.673 21.1475C144.673 20.8952 144.736 20.7122 144.862 20.6034C144.988 20.4896 145.143 20.4352 145.327 20.4352C145.502 20.4352 145.652 20.4896 145.778 20.6034C145.909 20.7171 145.972 20.9002 145.972 21.1475C145.972 21.3949 145.909 21.5779 145.778 21.6917C145.647 21.8104 145.497 21.8697 145.327 21.8697C145.143 21.8697 144.988 21.8104 144.862 21.6917C144.736 21.5779 144.673 21.3949 144.673 21.1475ZM145.865 29.9083H144.756V23.0125H145.865V29.9083Z" fill="#695B55"/>
<path d="M150.584 30.032C149.611 30.032 148.855 29.7253 148.317 29.1168C147.774 28.5083 147.503 27.6328 147.503 26.495C147.503 25.3375 147.774 24.447 148.327 23.8237C148.874 23.1955 149.654 22.8839 150.667 22.8839C150.996 22.8839 151.321 22.9185 151.641 22.9877C151.965 23.057 152.227 23.146 152.435 23.2549L152.096 24.1947C151.524 23.9771 151.04 23.8683 150.638 23.8683C149.955 23.8683 149.455 24.0859 149.131 24.5262C148.806 24.9615 148.646 25.6145 148.646 26.4802C148.646 27.3112 148.806 27.9494 149.131 28.3946C149.455 28.8348 149.935 29.0574 150.57 29.0574C151.166 29.0574 151.747 28.9239 152.324 28.6567V29.6609C151.859 29.9083 151.277 30.032 150.584 30.032Z" fill="#695B55"/>
</g>
<defs>
<clipPath id="clip0_256_3001">
<rect width="212" height="33" fill="white"/>
</clipPath>
</defs>
</svg>
