<svg width="1129" height="377" viewBox="0 0 1129 377" fill="none" xmlns="http://www.w3.org/2000/svg">
<path d="M312.644 336.307C306.664 336.307 300.684 336.307 294.704 336.307C294.304 336.277 293.904 336.247 293.504 336.217C292.654 336.147 291.824 335.917 291.734 334.927C291.624 333.727 292.594 333.537 293.494 333.367C293.884 333.287 294.294 333.257 294.684 333.207C304.294 333.437 310.714 328.687 312.514 319.927C312.984 317.647 313.124 315.317 313.114 312.977C313.094 230.947 313.104 148.927 313.104 66.8966C313.104 65.7266 313.154 64.5566 313.084 63.3966C312.864 59.9866 312.514 56.5766 310.844 53.5066C307.354 47.0966 301.514 45.1766 294.704 45.1466C294.394 45.0566 294.084 44.8966 293.774 44.8866C292.804 44.8466 291.824 44.7066 291.824 43.5166C291.814 42.3166 292.804 42.1766 293.764 42.1466C294.094 42.1366 294.414 42.0566 294.734 42.0166C300.694 42.2266 306.654 42.2366 312.614 42.0166C314.814 42.2566 317.024 42.2366 319.224 42.0266C325.024 42.2166 330.814 42.2366 336.614 42.0166C338.984 42.2566 341.354 42.2266 343.714 42.0466C349.344 42.0366 354.974 42.0366 360.604 42.0266C362.974 42.2366 365.354 42.2866 367.724 41.9966C373.354 42.2666 378.974 42.2166 384.604 42.0266C387.144 42.2566 389.674 42.2566 392.214 42.0266C397.674 42.2366 403.134 42.2266 408.604 42.0266C411.304 42.2566 414.004 42.2366 416.714 42.0366C422.014 42.0366 427.314 42.0366 432.604 42.0266C435.314 42.2066 438.024 42.3166 440.724 41.9666C446.014 42.2966 451.304 42.1766 456.604 42.0266C459.474 42.2266 462.344 42.2566 465.214 42.0066C470.344 42.2366 475.474 42.1966 480.604 42.0266C483.634 42.2266 486.674 42.2366 489.704 42.0166C492.944 42.0566 496.184 42.1366 499.424 42.1266C500.974 42.1166 501.674 42.6766 501.674 44.3166C501.644 59.4566 501.654 74.5966 501.654 89.7466C501.654 90.6866 501.704 91.7166 500.474 91.8766C499.134 92.0466 498.884 91.0366 498.654 89.9966C497.094 82.8666 494.524 76.1666 490.134 70.2566C487.504 66.4166 484.424 63.0066 480.654 60.2466C476.024 56.3166 470.854 53.3066 465.144 51.2366C462.454 49.8266 459.674 48.6966 456.634 48.3066C455.804 47.9666 455.014 47.5166 454.154 47.3166C449.694 46.2466 445.174 46.8966 440.674 46.8666C437.994 46.8566 435.314 46.8566 432.624 46.8466C427.304 46.8466 421.984 46.8466 416.654 46.8466C413.974 46.8466 411.294 46.8466 408.624 46.8566C403.134 46.8566 397.654 46.8566 392.164 46.8566C389.654 46.8566 387.134 46.8566 384.624 46.8566C378.974 46.8566 373.324 46.8666 367.674 46.8666C365.324 46.8666 362.974 46.8566 360.624 46.8566C358.444 46.2766 358.434 47.5866 358.434 49.1866C358.474 67.3466 358.454 85.5066 358.454 103.657C358.454 130.557 358.464 157.467 358.434 184.367C358.434 185.977 358.444 187.287 360.634 186.697C362.974 186.697 365.324 186.687 367.664 186.687C373.324 186.687 378.974 186.697 384.634 186.697C387.144 186.697 389.654 186.697 392.154 186.697C397.644 186.697 403.134 186.697 408.634 186.697C411.374 186.987 414.044 186.697 416.634 185.747C422.274 184.767 427.634 182.997 432.734 180.397C435.744 179.207 438.604 177.757 441.174 175.767C446.104 172.477 450.354 168.477 453.804 163.657C454.544 162.627 455.244 161.837 456.624 162.307C457.144 163.117 457.114 164.027 457.114 164.947C457.104 181.077 457.104 197.207 457.104 213.337C457.104 214.247 457.184 215.177 456.604 215.967C455.014 216.677 454.404 215.467 453.674 214.477C450.204 209.817 446.234 205.697 441.234 202.637C438.584 200.627 435.724 198.997 432.634 197.777C427.534 195.347 422.254 193.487 416.664 192.567C414.064 191.697 411.414 191.327 408.674 191.657C403.164 191.437 397.644 191.427 392.134 191.657C389.644 191.657 387.164 191.657 384.674 191.657C378.994 191.437 373.324 191.407 367.644 191.667C365.324 191.667 363.004 191.657 360.674 191.657C358.464 190.997 358.444 192.347 358.444 193.947C358.474 215.517 358.464 237.087 358.464 258.657C358.464 282.147 358.474 305.627 358.454 329.117C358.454 330.637 358.334 332.117 360.614 331.477C362.974 331.667 365.344 331.687 367.704 331.467C373.334 331.467 378.974 331.477 384.604 331.477C387.134 331.477 389.664 331.477 392.194 331.477C397.664 331.477 403.134 331.477 408.604 331.477C411.304 331.477 413.994 331.487 416.694 331.487C421.994 331.487 427.304 331.487 432.604 331.477C435.284 331.627 437.964 331.717 440.644 331.427C446.014 331.397 451.464 332.417 456.644 330.157C459.844 329.447 462.864 328.237 465.824 326.867C471.214 324.717 476.174 321.837 480.624 318.107C484.264 315.247 487.484 311.997 490.054 308.137C494.234 302.137 497.244 295.627 498.644 288.427C498.844 287.397 499.064 286.287 500.324 286.337C501.644 286.397 501.654 287.537 501.654 288.587C501.644 303.637 501.624 318.697 501.674 333.747C501.684 335.627 500.904 336.237 499.134 336.207C495.974 336.157 492.814 336.247 489.654 336.267C486.634 336.267 483.624 336.267 480.604 336.257C475.454 336.257 470.304 336.267 465.154 336.267C462.304 336.267 459.454 336.257 456.604 336.257C451.294 336.267 445.974 336.277 440.664 336.287C437.974 336.277 435.294 336.267 432.604 336.257C427.284 336.257 421.974 336.257 416.654 336.257C413.974 336.257 411.294 336.257 408.604 336.267C403.124 336.267 397.634 336.267 392.154 336.267C389.634 336.267 387.124 336.267 384.604 336.267C378.954 336.267 373.314 336.277 367.664 336.277C365.314 336.277 362.964 336.267 360.604 336.267C354.954 336.257 349.304 336.257 343.644 336.247C341.294 336.257 338.944 336.257 336.604 336.267C330.784 336.267 324.974 336.257 319.154 336.257C317.014 336.297 314.834 336.297 312.644 336.307Z" fill="#2455A0"/>
<path d="M697.674 289.687C693.654 281.187 689.414 272.807 684.704 264.667C681.264 256.957 677.204 249.567 673.174 242.167C669.234 233.897 664.904 225.817 660.624 217.727C659.634 215.747 658.644 213.757 657.444 211.357C654.514 216.147 651.804 220.577 649.094 225.007C644.354 231.907 639.964 239.037 635.634 246.197C632.014 251.897 628.404 257.597 624.784 263.287C620.124 270.497 615.394 277.667 611.084 285.097C607.334 290.457 603.914 296.027 600.564 301.637C599.674 303.017 598.764 304.397 597.884 305.777C593.834 312.157 594.154 320.707 598.724 326.707C599.324 327.497 599.754 328.647 601.074 328.587C600.674 329.417 601.504 329.507 601.874 329.817C603.754 331.367 605.934 332.357 608.174 333.277C608.944 333.597 609.764 334.067 609.564 335.077C609.364 336.067 608.504 336.217 607.614 336.217C605.294 336.227 602.964 336.257 600.644 336.287C596.154 336.287 591.674 336.297 587.184 336.297C583.834 336.307 580.484 336.317 577.124 336.317C572.314 336.307 567.494 336.307 562.684 336.297C559.494 336.307 556.314 336.307 553.124 336.317C552.054 336.277 550.974 336.217 549.904 336.217C548.924 336.217 547.934 336.037 547.794 334.947C547.644 333.817 548.674 333.507 549.554 333.207C550.804 332.787 552.054 332.367 553.294 331.937C556.564 331.057 559.734 329.927 562.654 328.197C567.914 326.067 572.744 323.217 577.114 319.597C580.954 317.027 584.434 314.017 587.664 310.717C593.594 305.397 597.304 298.487 601.194 291.707C604.774 286.587 608.104 281.317 611.194 275.897C616.104 268.677 620.764 261.307 625.184 253.777C629.094 248.257 632.544 242.437 636.104 236.687C640.554 229.777 645.104 222.937 649.194 215.807C650.964 213.117 652.734 210.427 654.524 207.757C654.924 207.157 655.024 206.607 654.654 205.927C652.794 202.517 650.984 199.097 649.144 195.677C645.054 187.057 640.514 178.667 636.084 170.227C632.554 163.277 629.144 156.267 625.254 149.517C620.974 140.457 616.204 131.637 611.534 122.777C608.204 116.197 604.984 109.567 601.304 103.177C597.104 94.0066 592.224 85.1966 587.584 76.2566C586.584 74.2766 585.594 72.2866 584.584 70.3166C582.464 66.2266 580.464 62.0566 577.144 58.7366C573.324 53.7266 568.674 49.8166 562.654 47.6866C559.654 46.1966 556.494 45.3066 553.114 45.3166C551.814 45.1566 550.514 44.9966 549.214 44.8466C548.384 44.7566 547.754 44.3766 547.744 43.5066C547.734 42.4666 548.494 42.1666 549.404 42.1266C550.464 42.0866 551.524 42.0466 552.584 42.0066C555.954 42.1866 559.324 42.2266 562.684 41.9866C567.474 42.1666 572.264 42.2566 577.054 41.9366C580.424 42.2866 583.804 42.1766 587.174 41.9966C591.644 41.9966 596.104 42.0066 600.574 42.0066C604.114 42.1666 607.654 42.2666 611.194 41.9466C615.654 42.2566 620.114 42.1366 624.574 42.0066C628.244 42.1066 631.914 42.1966 635.594 42.2966C636.184 43.0966 636.174 43.8866 635.584 44.6766C632.034 45.2766 628.204 44.6866 625.104 47.1866C623.254 48.2266 622.584 49.9266 622.634 51.9066C622.694 54.7366 623.554 57.3566 625.124 59.7266C628.604 66.4166 632.094 73.1166 635.574 79.8066C639.874 88.1566 644.174 96.4966 648.464 104.847C652.294 112.217 656.124 119.597 659.944 126.967C664.184 135.207 668.434 143.437 672.674 151.677C675.184 156.617 677.704 161.567 680.384 166.847C682.014 164.187 683.384 161.937 684.754 159.687C689.024 153.157 693.304 146.627 697.204 139.867C701.404 133.797 705.244 127.497 709.084 121.207C713.254 114.857 717.414 108.487 721.224 101.907C725.324 95.4966 729.414 89.0866 733.514 82.6866C735.924 78.9066 738.304 75.0966 740.774 71.3566C741.614 70.0766 742.134 68.7266 742.414 67.2366C744.184 57.9766 740.674 50.2166 733.114 46.7266C731.984 45.6766 730.404 45.4966 729.144 44.7066C728.634 44.3866 728.164 43.9666 728.274 43.3166C728.394 42.5766 728.934 42.1966 729.684 42.1466C730.844 42.0766 732.004 42.0266 733.164 41.9666C737.124 42.1666 741.084 42.1766 745.044 41.9566C749.244 42.2066 753.454 42.1666 757.654 41.9766C761.454 41.9666 765.244 41.9666 769.044 41.9566C773.254 42.1566 777.464 42.2466 781.674 41.9066C783.744 41.9666 785.824 42.0166 787.894 42.0866C788.794 42.1166 789.864 41.9566 790.094 43.1866C790.354 44.5866 789.154 44.8066 788.244 45.0866C785.954 45.8066 783.604 46.3766 781.424 47.4266C777.074 48.8766 772.944 50.7666 769.084 53.2566C764.874 55.3466 760.984 57.9166 757.534 61.1166C752.744 64.8066 748.474 69.0366 744.694 73.7466C740.564 79.7166 736.734 85.8666 733.044 92.1066C728.894 98.6366 724.754 105.167 720.604 111.687C716.444 118.047 712.274 124.397 708.474 130.987C704.454 136.877 700.614 142.867 697.074 149.047C692.244 155.997 687.904 163.257 683.424 170.427C682.894 171.287 683.134 171.957 683.534 172.737C687.924 181.207 692.304 189.677 696.684 198.147C700.534 205.757 704.294 213.417 708.514 220.837C712.294 228.907 716.574 236.737 720.704 244.627C724.814 252.517 728.924 260.397 733.034 268.287C736.934 275.897 740.824 283.497 744.724 291.107C747.194 295.917 749.584 300.757 752.144 305.517C753.714 308.437 754.874 311.577 756.964 314.207C760.054 319.427 763.864 323.987 769.104 327.207C772.774 330.187 777.054 331.737 781.644 332.557C783.704 333.287 785.864 333.117 787.994 333.297C788.944 333.377 790.194 333.337 790.184 334.727C790.174 336.277 788.874 336.137 787.814 336.167C785.754 336.217 783.704 336.237 781.644 336.277C777.454 336.267 773.274 336.267 769.084 336.257C765.264 336.257 761.454 336.247 757.634 336.247C753.454 336.247 749.264 336.257 745.084 336.257C741.104 336.257 737.124 336.257 733.134 336.257C729.114 336.257 725.094 336.257 721.084 336.267C716.934 336.267 712.794 336.267 708.644 336.267C707.084 336.237 705.514 336.197 703.954 336.167C702.854 336.147 701.504 336.117 701.394 334.817C701.264 333.337 702.744 333.457 703.754 333.297C705.364 333.027 707.064 333.497 708.604 332.687C713.904 331.987 716.194 328.757 714.874 323.637C713.664 318.937 711.074 314.867 708.604 310.757C705.254 303.627 701.634 296.567 697.674 289.687Z" fill="#2455A0"/>
<path d="M96.1638 336.287C89.3438 336.287 82.5338 336.287 75.7138 336.287C74.5338 336.287 73.3538 336.287 72.1738 336.287C65.1938 336.287 58.2038 336.297 51.2238 336.297C50.2038 336.297 49.1938 336.287 48.1738 336.287C44.7838 336.257 41.4038 336.247 38.0138 336.197C36.9438 336.177 35.6438 336.207 35.6538 334.697C35.6638 333.297 36.9738 333.407 37.9038 333.367C41.4538 333.187 45.0038 333.007 48.1838 331.147C49.3238 330.747 50.4238 330.267 51.2138 329.287C53.7938 327.377 55.2738 324.727 56.1438 321.717C57.2338 317.977 57.2438 314.137 57.2438 310.257C57.2038 228.827 57.2138 147.397 57.2038 65.9766C57.2038 64.8066 57.2538 63.6366 57.1638 62.4766C56.7438 57.4866 55.6038 52.7766 51.6338 49.2666C50.6838 48.2566 49.5338 47.5866 48.2138 47.1966C45.7538 45.6666 43.0038 45.2766 40.1838 45.1266C39.4438 45.0866 38.7038 45.0166 37.9638 44.9066C36.9638 44.7566 35.5138 44.9866 35.6738 43.3766C35.8238 41.8766 37.2138 42.1566 38.2338 42.1366C41.5338 42.0666 44.8338 42.0466 48.1338 42.0166C49.1738 42.0166 50.2038 42.0066 51.2438 42.0066C58.2038 42.0066 65.1738 42.0166 72.1338 42.0166C73.3338 42.0166 74.5338 42.0166 75.7338 42.0166C82.5338 42.0166 89.3238 42.0166 96.1238 42.0166C97.3338 42.2066 98.5438 42.2466 99.7438 41.9666C106.534 42.2666 113.324 42.1666 120.124 42.0166C121.444 42.3966 122.974 41.7166 124.144 42.8266C124.144 43.2866 124.144 43.7466 124.134 44.2066C123.004 45.2666 121.434 44.5966 120.194 45.2266C111.074 45.2266 105.064 49.9866 103.304 58.6866C102.854 60.8866 102.694 63.1266 102.684 65.3866C102.554 153.047 102.404 240.717 102.264 328.377C102.264 328.877 102.304 329.377 102.254 329.877C102.134 331.117 102.534 331.667 103.904 331.647C109.314 331.557 114.724 331.557 120.134 331.527C121.494 331.527 122.854 331.517 124.214 331.517C130.854 331.527 137.484 331.527 144.124 331.537C145.654 331.537 147.174 331.537 148.704 331.527C155.174 331.527 161.654 331.527 168.124 331.537C169.654 331.517 171.184 331.507 172.724 331.487C179.194 331.507 185.664 331.517 192.124 331.537C193.824 331.587 195.544 331.977 197.174 331.167C204.094 329.577 210.684 327.127 216.764 323.407C218.554 322.617 220.214 321.607 221.674 320.297C231.134 313.977 237.384 305.267 240.874 294.507C241.894 292.587 242.284 290.487 242.654 288.387C242.974 286.577 243.794 285.927 245.534 286.787C245.604 287.097 245.684 287.417 245.754 287.727C245.714 291.537 245.644 295.347 245.654 299.167C245.674 311.027 245.724 322.877 245.764 334.737C245.694 335.057 245.634 335.377 245.564 335.697C244.024 336.667 242.264 336.017 240.634 336.347C234.324 336.337 228.004 336.337 221.694 336.327C220.004 336.337 218.324 336.337 216.634 336.347C210.154 336.347 203.674 336.337 197.204 336.337C195.684 336.337 194.164 336.347 192.634 336.347C186.154 336.337 179.674 336.317 173.184 336.307C171.504 336.307 169.824 336.307 168.154 336.307C161.664 336.307 155.184 336.307 148.694 336.317C147.184 336.317 145.664 336.317 144.154 336.317C137.504 336.317 130.854 336.327 124.204 336.327C122.854 336.327 121.504 336.317 120.154 336.317C113.344 336.327 106.524 336.327 99.7138 336.337C98.5338 336.307 97.3538 336.297 96.1638 336.287Z" fill="#2455A0"/>
<path d="M983.064 81.5266C983.064 72.5766 983.134 64.0166 983.014 55.4566C982.984 53.2766 983.534 52.5966 985.784 52.6466C992.444 52.7966 999.114 52.7666 1005.77 52.6566C1007.64 52.6266 1008.29 53.2866 1008.78 55.0566C1017.96 88.1766 1027.22 121.277 1036.45 154.387C1037.56 158.357 1038.63 162.337 1039.91 166.997C1041.57 161.067 1043.05 155.807 1044.51 150.547C1048.02 137.907 1051.49 125.257 1055.06 112.637C1055.54 110.957 1055.51 109.447 1055.03 107.777C1049.97 90.0566 1044.99 72.3066 1039.92 54.5866C1039.48 53.0366 1039.87 52.6566 1041.34 52.6766C1044.42 52.7266 1047.51 52.7766 1050.59 52.6566C1052.09 52.5966 1052.55 53.2366 1052.91 54.5566C1055.6 64.3266 1058.37 74.0666 1061.09 83.8166C1061.31 84.5966 1061.38 85.4066 1062.27 86.3566C1062.92 84.1166 1063.51 82.1866 1064.05 80.2366C1066.34 71.9966 1068.71 63.7766 1070.86 55.5066C1071.46 53.2066 1072.49 52.4466 1074.82 52.6466C1077.47 52.8666 1080.15 52.7666 1082.81 52.6766C1084.39 52.6266 1084.59 53.1566 1084.18 54.5766C1080.46 67.5866 1076.81 80.6166 1073.13 93.6366C1071.73 98.5866 1070.32 103.547 1068.85 108.477C1068.12 110.917 1069.2 113.087 1069.8 115.287C1074.41 132.097 1079.1 148.887 1083.77 165.687C1083.83 165.907 1084.02 166.077 1084.35 166.577C1086.98 157.077 1089.51 147.847 1092.08 138.627C1097.55 118.957 1103.06 99.2866 1108.52 79.6066C1110.74 71.6066 1112.95 63.6066 1115.04 55.5766C1115.58 53.4966 1116.38 52.4166 1118.73 52.6466C1121.04 52.8666 1123.39 52.6966 1125.72 52.6966C1128.86 52.6966 1128.91 52.7166 1128.09 55.6366C1124.63 67.9466 1121.11 80.2366 1117.66 92.5466C1111.31 115.167 1105 137.797 1098.63 160.407C1093.93 177.087 1089.18 193.747 1083.95 210.487C1076.77 184.987 1069.59 159.487 1062.41 133.987C1062.19 133.957 1061.97 133.927 1061.75 133.897C1054.57 159.367 1047.39 184.837 1040.21 210.307C1040.02 210.327 1039.83 210.357 1039.63 210.377C1024.91 158.237 1010.2 106.097 995.484 53.9666C995.384 53.9666 995.284 53.9666 995.184 53.9666C995.184 54.7766 995.184 55.5866 995.184 56.3966C995.184 101.297 995.184 146.207 995.184 191.107C995.184 194.347 995.184 194.347 991.934 194.347C989.764 194.347 987.594 194.237 985.434 194.377C983.584 194.497 982.984 193.887 983.004 191.997C983.094 183.837 983.044 175.667 983.044 167.507C983.044 167.117 983.044 166.737 983.044 165.917C980.464 169.227 978.274 172.307 975.694 175.107C964.844 186.927 951.744 194.437 935.654 196.327C916.914 198.527 900.244 193.857 885.894 181.397C872.024 169.357 863.704 154.297 860.984 136.107C858.444 119.077 860.484 102.687 868.564 87.4666C876.934 71.6966 889.054 59.5566 906.284 53.6266C931.874 44.8266 958.734 52.3066 976.414 72.7966C978.714 75.4466 980.664 78.3566 983.064 81.5266ZM982.994 127.527C983.464 118.227 982.244 109.467 979.154 101.027C975.534 91.1366 969.444 82.9266 961.564 76.0166C949.184 65.1566 934.704 61.6666 918.644 64.0966C909.814 65.4366 901.944 69.0666 895.134 74.8466C886.694 82.0166 880.014 90.4866 876.174 101.017C871.794 113.037 870.994 125.337 873.754 137.777C877.784 155.927 888.144 169.517 904.384 178.487C912.624 183.037 921.664 184.147 930.954 183.697C938.634 183.327 945.804 181.277 952.554 177.577C957.114 175.077 961.104 171.827 964.954 168.407C970.994 163.047 975.644 156.607 979.124 149.307C982.474 142.287 983.554 134.897 982.994 127.527Z" fill="#9D9E9E"/>
<path d="M1038.62 249.207C1041.06 245.777 1043.72 242.787 1046.87 240.347C1052.63 235.887 1059.1 233.307 1066.48 232.517C1079.94 231.097 1091.01 235.477 1100.01 245.327C1106.25 252.167 1109.59 260.377 1109.62 269.597C1109.75 304.417 1109.66 339.237 1109.71 374.067C1109.71 376.067 1109.28 376.917 1107.11 376.787C1104.2 376.607 1101.28 376.697 1098.36 376.757C1096.95 376.787 1096.39 376.257 1096.48 374.857C1096.55 373.697 1096.49 372.527 1096.49 371.357C1096.49 338.197 1096.5 305.047 1096.49 271.887C1096.48 259.217 1088.39 248.737 1076.11 246.067C1061.05 242.797 1047.42 253.657 1045.61 267.487C1045.27 270.067 1045.24 272.627 1045.23 275.197C1045.22 307.937 1045.22 340.677 1045.22 373.417C1045.22 376.737 1045.22 376.737 1041.8 376.737C1039.13 376.737 1036.47 376.697 1033.8 376.757C1032.51 376.787 1031.95 376.307 1032.05 375.007C1032.1 374.347 1032.06 373.677 1032.06 373.007C1032.06 338.767 1032.04 304.527 1032.07 270.287C1032.08 257.807 1020.63 246.097 1008.76 245.647C1002.05 245.387 996.084 246.737 990.844 250.867C984.164 256.127 980.764 263.097 980.754 271.607C980.724 305.517 980.744 339.417 980.744 373.327C980.744 376.737 980.744 376.737 977.414 376.737C974.834 376.737 972.244 376.657 969.664 376.767C967.994 376.837 967.374 376.197 967.574 374.597C967.614 374.267 967.584 373.927 967.584 373.597C967.584 327.527 967.584 281.457 967.584 235.387C967.584 232.157 967.584 232.157 970.824 232.157C973.154 232.157 975.504 232.287 977.824 232.117C980.034 231.957 981.044 232.557 980.794 234.967C980.584 237.017 980.754 239.107 980.754 241.727C989.914 234.037 1000.09 231.217 1011.55 232.587C1023.07 233.977 1031.78 239.867 1038.62 249.207Z" fill="#9D9E9E"/>
<path d="M818.044 188.217C818.044 126.647 818.044 65.0866 818.044 3.51661C818.044 0.166606 818.044 0.166608 821.434 0.166608C824.014 0.166608 826.604 0.226611 829.184 0.146611C830.664 0.0966112 831.384 0.566607 831.224 2.12661C831.154 2.78661 831.214 3.45661 831.214 4.12661C831.214 62.1166 831.234 120.097 831.154 178.087C831.154 180.607 831.744 181.267 834.294 181.247C849.374 181.117 864.454 181.217 879.534 181.137C881.564 181.127 882.374 181.617 882.234 183.757C882.054 186.407 882.064 189.097 882.234 191.747C882.374 193.867 881.594 194.407 879.544 194.387C864.464 194.307 849.384 194.407 834.304 194.277C831.764 194.257 831.134 194.907 831.154 197.437C831.264 216.927 831.254 236.427 831.164 255.917C831.154 258.077 831.644 258.747 833.904 258.717C844.484 258.587 855.074 258.757 865.644 258.587C868.294 258.547 868.954 259.377 868.754 261.827C868.554 264.397 868.584 266.997 868.744 269.567C868.874 271.637 868.204 272.277 866.094 272.257C855.594 272.157 845.094 272.207 834.594 272.217C830.814 272.217 831.204 271.827 831.204 275.507C831.194 308.247 831.174 340.987 831.254 373.727C831.264 376.127 830.624 376.957 828.204 376.767C825.554 376.557 822.874 376.657 820.214 376.747C818.644 376.797 817.824 376.357 818.024 374.657C818.104 373.997 818.034 373.327 818.034 372.657C818.044 311.187 818.044 249.707 818.044 188.217Z" fill="#9D9E9E"/>
<path d="M806.144 188.577C806.144 250.057 806.144 311.527 806.134 373.007C806.134 377.167 806.584 376.647 802.344 376.677C799.924 376.697 797.504 376.607 795.094 376.707C793.534 376.777 792.974 376.147 793.124 374.667C793.184 374.087 793.134 373.497 793.134 372.917C793.134 249.967 793.134 127.017 793.134 4.06663C793.134 3.39663 793.174 2.72663 793.124 2.06663C793.044 0.846629 793.434 0.216629 794.804 0.246629C798.054 0.306629 801.304 0.296631 804.554 0.256631C805.754 0.246631 806.204 0.756633 806.144 1.90663C806.104 2.65663 806.144 3.40663 806.144 4.15663C806.144 65.6266 806.144 127.097 806.144 188.577Z" fill="#D8D9D9"/>
<path d="M504.684 188.337C504.684 126.867 504.684 65.3967 504.684 3.93666C504.684 -0.113339 504.244 0.266661 508.224 0.256661C514.134 0.236661 514.134 0.246658 514.134 6.06666C514.134 128.257 514.134 250.437 514.134 372.627C514.134 373.297 514.084 373.967 514.144 374.627C514.274 376.067 513.804 376.667 512.214 376.717C504.674 376.977 504.674 377.027 504.674 369.497C504.684 309.107 504.684 248.727 504.684 188.337Z" fill="#D8D9D9"/>
<path d="M538.174 188.737C538.174 250.217 538.174 311.697 538.174 373.177C538.174 376.677 538.174 376.677 534.704 376.677C528.684 376.677 528.684 376.677 528.684 370.557C528.684 248.437 528.684 126.307 528.694 4.18658C528.694 -0.203415 528.164 0.286579 532.494 0.266579C538.174 0.246579 538.174 0.25658 538.174 6.05658C538.174 66.9466 538.174 127.837 538.174 188.737Z" fill="#D8D9D9"/>
<path d="M769.124 53.2966C772.984 50.8066 777.114 48.9166 781.464 47.4666C781.534 48.7966 781.654 50.1166 781.654 51.4466C781.664 145.167 781.664 238.877 781.674 332.597C777.084 331.767 772.804 330.227 769.134 327.247C769.134 235.937 769.134 144.617 769.124 53.2966Z" fill="#D8D9D9"/>
<path d="M562.664 328.207C559.734 329.937 556.564 331.067 553.304 331.947C553.254 330.697 553.154 329.457 553.154 328.207C553.144 233.917 553.144 139.617 553.144 45.3267C556.524 45.3267 559.674 46.2067 562.684 47.6967C562.664 141.197 562.664 234.707 562.664 328.207Z" fill="#D8D9D9"/>
<path d="M922.244 246.597C925.824 243.187 928.934 240.327 932.674 238.307C938.424 235.187 944.424 232.967 951.064 232.567C953.544 232.417 956.034 232.317 958.514 232.117C961.144 231.907 961.884 232.967 961.684 235.417C961.504 237.647 961.484 239.927 961.684 242.157C961.914 244.637 961.174 245.427 958.554 245.417C952.984 245.387 947.374 245.777 942.284 248.347C931.364 253.857 924.284 262.267 922.634 274.757C922.204 277.997 922.254 281.227 922.254 284.457C922.234 314.187 922.204 343.917 922.304 373.647C922.314 376.237 921.594 376.997 919.084 376.787C916.434 376.567 913.754 376.677 911.094 376.757C909.614 376.807 908.874 376.347 909.064 374.777C909.114 374.367 909.074 373.947 909.074 373.527C909.074 328.307 909.094 283.087 909.024 237.867C909.024 235.447 909.464 234.377 912.144 234.637C914.864 234.897 917.634 234.747 920.384 234.677C921.794 234.647 922.294 235.197 922.264 236.587C922.194 239.657 922.244 242.727 922.244 246.597Z" fill="#9D9E9E"/>
<path d="M480.674 60.2366C484.444 62.9966 487.524 66.4066 490.154 70.2466C489.284 71.0666 489.674 72.1366 489.674 73.0866C489.654 150.567 489.654 228.047 489.674 305.537C489.674 306.417 489.354 307.387 490.074 308.167C487.504 312.037 484.284 315.277 480.644 318.137C480.654 317.387 480.674 316.637 480.674 315.887C480.674 230.667 480.674 145.457 480.674 60.2366Z" fill="#D8D9D9"/>
<path d="M294.734 41.9966C294.414 42.0466 294.084 42.1166 293.764 42.1266C292.804 42.1566 291.814 42.2966 291.824 43.4966C291.834 44.6866 292.814 44.8266 293.774 44.8666C294.084 44.8766 294.394 45.0366 294.704 45.1266C294.694 46.0466 294.684 46.9566 294.684 47.8766C294.684 142.977 294.684 238.087 294.684 333.187C294.284 333.237 293.884 333.277 293.494 333.347C292.604 333.517 291.624 333.707 291.734 334.907C291.824 335.897 292.654 336.127 293.504 336.197C293.904 336.227 294.304 336.257 294.704 336.287C294.694 348.357 294.704 360.437 294.674 372.507C294.664 376.847 295.304 376.637 291.614 376.657C288.674 376.667 288.674 376.657 288.674 372.627C288.674 292.017 288.674 211.417 288.674 130.807C288.674 88.4166 288.674 46.0366 288.704 3.64664C288.704 2.55664 288.034 0.906644 289.294 0.476644C290.714 -0.00335574 292.444 0.136642 293.964 0.396642C295.164 0.606642 294.664 1.92664 294.664 2.75664C294.694 14.7466 294.684 26.7366 294.684 38.7266C294.684 39.8366 294.714 40.9166 294.734 41.9966Z" fill="#D8D9D9"/>
<path d="M270.194 188.657C270.194 250.217 270.194 311.777 270.194 373.347C270.194 376.487 268.544 377.637 265.544 376.647C264.834 376.407 264.684 375.957 264.674 375.337C264.664 374.667 264.664 374.007 264.664 373.337C264.664 250.127 264.664 126.927 264.664 3.71658C264.664 0.0465832 264.894 -0.11342 268.684 0.23658C269.704 0.33658 270.234 0.646585 270.194 1.72659C270.164 2.47659 270.194 3.22659 270.194 3.97659C270.194 65.5366 270.194 127.097 270.194 188.657Z" fill="#D8D9D9"/>
<path d="M898.214 305.657C898.214 328.387 898.184 351.117 898.264 373.837C898.274 376.077 897.744 376.957 895.374 376.777C892.644 376.567 889.884 376.647 887.134 376.757C885.464 376.827 884.844 376.177 885.034 374.577C885.084 374.167 885.044 373.747 885.044 373.327C885.044 328.207 885.044 283.087 885.044 237.957C885.044 234.677 885.044 234.677 888.264 234.677C890.844 234.677 893.434 234.777 896.004 234.647C897.804 234.557 898.264 235.257 898.244 236.957C898.164 243.697 898.214 250.447 898.214 257.187C898.214 273.357 898.214 289.507 898.214 305.657Z" fill="#9D9E9E"/>
<path d="M684.794 159.717C683.424 161.967 682.044 164.207 680.424 166.877C677.734 161.597 675.224 156.647 672.714 151.707C673.504 150.757 673.124 149.627 673.124 148.587C673.144 100.217 673.144 51.8367 673.144 3.46667C673.144 0.266671 673.144 0.256672 676.414 0.256672C678.334 0.256672 680.244 0.326668 682.154 0.236668C683.634 0.166668 684.354 0.656671 684.194 2.21667C684.124 2.87667 684.184 3.54667 684.184 4.21667C684.184 54.6667 684.184 105.127 684.174 155.577C684.164 156.997 684.124 158.407 684.794 159.717Z" fill="#D8D9D9"/>
<path d="M649.094 224.997C651.804 220.567 654.514 216.147 657.444 211.347C658.644 213.747 659.634 215.737 660.624 217.717C659.734 218.637 660.154 219.777 660.154 220.807C660.134 271.617 660.134 322.417 660.134 373.227C660.134 376.667 660.134 376.667 656.604 376.667C654.684 376.667 652.774 376.617 650.854 376.677C649.544 376.727 649.024 376.177 649.124 374.907C649.174 374.247 649.134 373.577 649.134 372.907C649.134 324.847 649.134 276.787 649.134 228.737C649.134 227.497 649.104 226.247 649.094 224.997Z" fill="#D8D9D9"/>
<path d="M197.204 331.147C195.574 331.957 193.844 331.567 192.154 331.517C192.174 330.267 192.214 329.017 192.214 327.767C192.214 219.657 192.214 111.537 192.234 3.42661C192.234 2.01661 191.504 0.22661 194.274 0.17661C196.774 0.12661 197.244 0.986607 197.244 3.30661C197.184 112.587 197.194 221.867 197.204 331.147Z" fill="#D8D9D9"/>
<path d="M221.694 320.277C220.234 321.587 218.574 322.597 216.784 323.387C216.744 322.477 216.664 321.557 216.664 320.647C216.654 214.857 216.664 109.077 216.624 3.28663C216.624 1.25663 216.764 0.136635 219.364 0.156635C222.164 0.176635 221.674 1.80663 221.674 3.41663C221.674 108.117 221.674 212.827 221.674 317.527C221.684 318.447 221.694 319.367 221.694 320.277Z" fill="#D8D9D9"/>
<path d="M245.544 286.757C243.804 285.897 242.984 286.557 242.664 288.357C242.294 290.457 241.904 292.567 240.884 294.477C240.814 293.317 240.664 292.157 240.664 291.007C240.654 195.207 240.654 99.4166 240.654 3.61662C240.654 0.236622 241.584 -0.453381 245.014 0.246619C245.854 0.416619 246.134 0.826623 246.144 1.58662C246.144 2.16662 246.154 2.75662 246.154 3.33662C246.154 96.7966 246.154 190.267 246.134 283.727C246.144 284.747 246.604 285.927 245.544 286.757Z" fill="#D8D9D9"/>
<path d="M709.134 121.237C705.294 127.537 701.454 133.837 697.254 139.897C697.214 138.897 697.144 137.907 697.144 136.907C697.134 92.4366 697.144 47.9566 697.144 3.48664C697.144 0.256644 697.144 0.256649 700.384 0.256649C702.214 0.256649 704.064 0.386648 705.874 0.216648C708.024 0.0166476 708.764 0.676643 708.714 2.94664C708.564 9.77664 708.654 16.6066 708.654 23.4366C708.654 55.0866 708.654 86.7366 708.674 118.387C708.674 119.337 708.294 120.397 709.134 121.237Z" fill="#D8D9D9"/>
<path d="M148.734 331.507C147.204 331.507 145.684 331.507 144.154 331.517C144.174 330.267 144.214 329.017 144.214 327.767C144.214 219.637 144.214 111.507 144.244 3.37665C144.244 2.09665 143.424 0.366656 146.064 0.176656C148.854 -0.0233436 148.694 1.49666 148.694 3.36666C148.674 111.497 148.674 219.627 148.674 327.757C148.674 329.007 148.714 330.257 148.734 331.507Z" fill="#D8D9D9"/>
<path d="M172.744 331.467C171.214 331.487 169.684 331.497 168.144 331.517C168.164 330.267 168.204 329.017 168.204 327.767C168.204 219.637 168.204 111.517 168.204 3.38663C168.204 0.226627 168.534 -0.0733726 171.304 0.246627C172.204 0.346627 172.704 0.636626 172.694 1.59663C172.684 2.42663 172.704 3.26663 172.704 4.09663C172.704 111.977 172.704 219.847 172.704 327.727C172.704 328.967 172.734 330.217 172.744 331.467Z" fill="#D8D9D9"/>
<path d="M673.174 242.167C677.204 249.567 681.254 256.967 684.704 264.667C683.774 265.567 684.194 266.717 684.194 267.747C684.174 303.047 684.154 338.347 684.224 373.647C684.224 375.997 683.684 376.957 681.214 376.717C679.154 376.517 677.054 376.617 674.974 376.697C673.544 376.757 672.984 376.177 673.124 374.787C673.154 374.457 673.124 374.117 673.124 373.787C673.124 330.327 673.124 286.867 673.124 243.407C673.134 242.997 673.164 242.587 673.174 242.167Z" fill="#D8D9D9"/>
<path d="M624.784 263.277C628.404 257.577 632.014 251.877 635.634 246.187C635.644 288.897 635.634 331.617 635.694 374.327C635.694 376.207 635.144 376.897 633.284 376.687C630.664 376.397 627.284 377.827 625.604 376.087C624.064 374.477 625.154 371.157 625.154 368.597C625.124 334.457 625.134 300.317 625.124 266.187C625.114 265.217 625.424 264.187 624.784 263.277Z" fill="#D8D9D9"/>
<path d="M659.974 126.997C656.144 119.627 652.314 112.247 648.494 104.877C649.534 104.037 649.114 102.867 649.114 101.847C649.134 69.0266 649.164 36.2166 649.074 3.3966C649.064 0.896596 649.644 -0.113407 652.234 0.236593C654.754 0.576593 658.034 -0.833401 659.674 0.836599C661.194 2.3866 660.124 5.5966 660.124 8.0766C660.154 46.5566 660.144 85.0366 660.134 123.517C660.134 124.667 660.034 125.837 659.974 126.997Z" fill="#D8D9D9"/>
<path d="M120.204 45.2167C121.444 44.5867 123.014 45.2567 124.144 44.1967C124.154 45.1967 124.184 46.1967 124.184 47.1967C124.184 140.717 124.184 234.237 124.184 327.757C124.184 329.007 124.214 330.257 124.234 331.507C122.874 331.507 121.514 331.517 120.154 331.517C120.174 330.267 120.204 329.017 120.204 327.767C120.204 233.577 120.204 139.397 120.204 45.2167Z" fill="#D8D9D9"/>
<path d="M733.554 82.7166C729.454 89.1266 725.364 95.5366 721.264 101.937C721.224 100.937 721.144 99.9466 721.144 98.9466C721.134 67.0866 721.174 35.2166 721.074 3.35657C721.064 0.816569 721.704 -0.0734327 724.254 0.206567C726.224 0.426567 728.254 0.386569 730.234 0.216569C732.454 0.0265695 733.224 0.686568 733.204 3.06657C733.074 15.1266 733.144 27.1966 733.144 39.2566C733.144 40.1666 733.184 41.0866 733.194 41.9966C732.034 42.0566 730.874 42.1066 729.714 42.1766C728.964 42.2166 728.424 42.5966 728.304 43.3466C728.194 43.9966 728.664 44.4166 729.174 44.7366C730.434 45.5266 732.014 45.6966 733.144 46.7566C733.144 57.8666 733.134 68.9866 733.154 80.0966C733.164 80.9766 732.844 81.9366 733.554 82.7166Z" fill="#D8D9D9"/>
<path d="M24.2038 188.477C24.2038 126.837 24.1938 65.1866 24.2538 3.54665C24.2538 2.45665 23.2638 0.406642 25.3838 0.376642C27.7438 0.336642 26.6538 2.51665 26.6538 3.64665C26.7038 126.857 26.7038 250.057 26.6538 373.267C26.6538 374.407 27.7138 376.617 25.4038 376.547C23.2238 376.487 24.2538 374.337 24.2438 373.167C24.2038 311.607 24.2038 250.047 24.2038 188.477Z" fill="#D8D9D9"/>
<path d="M0.203807 188.297C0.203807 126.737 0.19381 65.1866 0.25381 3.62664C0.25381 2.49664 -0.846192 0.296635 1.53381 0.376635C3.62381 0.446635 2.62381 2.48664 2.62381 3.58664C2.67381 126.877 2.67381 250.157 2.67381 373.427C2.67381 373.507 2.69381 373.597 2.67381 373.677C2.32381 374.697 3.55381 376.567 1.46381 376.587C-0.656191 376.607 0.25381 374.717 0.25381 373.707C0.20381 311.917 0.203807 250.107 0.203807 188.297Z" fill="#D8D9D9"/>
<path d="M708.644 332.727C707.104 333.537 705.404 333.067 703.794 333.337C702.784 333.507 701.304 333.377 701.434 334.857C701.544 336.157 702.894 336.187 703.994 336.207C705.554 336.237 707.124 336.267 708.684 336.307C708.674 348.877 708.624 361.447 708.704 374.017C708.714 376.027 708.254 376.887 706.094 376.717C703.774 376.537 701.434 376.597 699.104 376.697C697.544 376.767 696.964 376.147 697.134 374.657C697.174 374.327 697.134 373.987 697.134 373.657C697.134 346.607 697.134 319.547 697.154 292.497C697.154 291.557 696.744 290.477 697.674 289.687C701.634 296.567 705.244 303.627 708.634 310.797C708.634 318.107 708.634 325.417 708.644 332.727Z" fill="#D8D9D9"/>
<path d="M51.2138 329.297C50.4238 330.277 49.3238 330.757 48.1838 331.157C48.1938 300.607 48.2038 270.057 48.2038 239.507C48.2138 175.407 48.2138 111.307 48.2138 47.2166C49.5338 47.5966 50.6938 48.2766 51.6338 49.2866C50.7938 50.2266 51.2038 51.3666 51.2038 52.3966C51.1838 101.877 51.1838 151.367 51.1838 200.847C51.1938 243.657 51.2138 286.477 51.2138 329.297Z" fill="#D8D9D9"/>
<path d="M600.634 336.277C602.954 336.257 605.284 336.217 607.604 336.207C608.494 336.207 609.354 336.057 609.554 335.067C609.764 334.057 608.944 333.577 608.164 333.267C605.934 332.347 603.744 331.357 601.864 329.807C601.494 329.497 600.674 329.407 601.064 328.577C601.084 320.277 601.104 311.987 601.114 303.687C601.114 302.957 601.274 302.167 600.554 301.627C603.904 296.017 607.324 290.447 611.074 285.087C611.104 292.577 611.154 300.057 611.154 307.547C611.164 329.597 611.124 351.647 611.214 373.687C611.224 376.087 610.584 376.987 608.164 376.707C606.604 376.527 604.994 376.537 603.424 376.707C601.244 376.937 600.584 376.217 600.604 373.967C600.724 362.487 600.654 351.007 600.654 339.527C600.674 338.447 600.654 337.357 600.634 336.277Z" fill="#D8D9D9"/>
<path d="M757.694 42.0167C753.494 42.2067 749.284 42.2467 745.084 41.9967C745.104 29.0267 745.184 16.0567 745.084 3.08666C745.064 0.736663 745.774 0.03666 748.024 0.21666C750.334 0.39666 752.684 0.38666 755.004 0.21666C757.074 0.06666 757.684 0.766659 757.674 2.85666C757.584 15.0767 757.624 27.2967 757.634 39.5267C757.634 40.3567 757.674 41.1867 757.694 42.0167Z" fill="#D8D9D9"/>
<path d="M781.714 41.9466C777.504 42.2866 773.294 42.1966 769.084 41.9966C769.104 29.0266 769.184 16.0666 769.084 3.09663C769.064 0.786626 769.714 0.0166261 772.004 0.206626C774.234 0.396626 776.504 0.416626 778.734 0.206626C781.234 -0.0333739 781.734 0.97663 781.714 3.29663C781.604 15.2666 781.664 27.2366 781.664 39.1966C781.664 40.1266 781.694 41.0366 781.714 41.9466Z" fill="#D8D9D9"/>
<path d="M745.114 336.307C749.294 336.307 753.484 336.297 757.664 336.297C757.654 348.847 757.584 361.407 757.674 373.957C757.694 376.177 757.074 376.897 754.874 376.717C752.564 376.527 750.214 376.537 747.894 376.717C745.714 376.887 745.054 376.217 745.074 373.967C745.194 362.327 745.124 350.687 745.124 339.047C745.144 338.137 745.124 337.217 745.114 336.307Z" fill="#D8D9D9"/>
<path d="M769.114 336.297C773.304 336.307 777.484 336.307 781.674 336.317C781.664 348.787 781.594 361.267 781.714 373.737C781.734 376.197 780.984 376.927 778.624 376.717C776.314 376.517 773.964 376.557 771.644 376.707C769.704 376.837 769.074 376.227 769.094 374.207C769.184 362.397 769.144 350.597 769.134 338.787C769.144 337.967 769.124 337.137 769.114 336.297Z" fill="#D8D9D9"/>
<path d="M721.114 336.307C725.134 336.307 729.154 336.307 733.164 336.297C733.154 348.857 733.094 361.407 733.194 373.967C733.214 376.207 732.564 376.907 730.384 376.717C728.234 376.537 726.054 376.537 723.904 376.717C721.734 376.897 721.064 376.227 721.084 373.977C721.204 362.337 721.134 350.697 721.134 339.057C721.134 338.137 721.124 337.217 721.114 336.307Z" fill="#D8D9D9"/>
<path d="M635.624 42.3066C631.954 42.2066 628.284 42.1166 624.604 42.0166C624.624 29.1266 624.734 16.2266 624.614 3.33657C624.594 0.746566 625.324 -0.0634389 627.824 0.206561C629.634 0.406561 631.494 0.356563 633.304 0.216563C635.194 0.0665632 635.704 0.776559 635.694 2.62656C635.614 12.6966 635.654 22.7566 635.654 32.8266C635.654 35.9866 635.634 39.1466 635.624 42.3066Z" fill="#D8D9D9"/>
<path d="M885.044 209.727C885.044 204.727 885.084 199.727 885.024 194.737C885.004 193.257 885.454 192.637 887.014 192.677C890.094 192.767 893.184 192.767 896.264 192.677C897.834 192.627 898.254 193.267 898.244 194.737C898.204 204.737 898.204 214.727 898.244 224.727C898.254 226.207 897.824 226.827 896.264 226.787C893.184 226.697 890.094 226.697 887.014 226.787C885.454 226.827 885.014 226.207 885.024 224.727C885.084 219.717 885.044 214.727 885.044 209.727Z" fill="#9D9E9E"/>
<path d="M611.224 41.9666C607.684 42.2866 604.144 42.1866 600.604 42.0266C600.624 29.0666 600.704 16.0966 600.624 3.13655C600.614 0.866554 601.194 -0.0534472 603.524 0.236553C605.964 0.546553 609.114 -0.803443 610.704 0.826557C612.184 2.33656 611.134 5.42655 611.144 7.80655C611.214 19.1866 611.204 30.5766 611.224 41.9666Z" fill="#D8D9D9"/>
<path d="M587.214 42.0066C583.834 42.1866 580.464 42.2966 577.094 41.9466C577.114 29.0666 577.184 16.1866 577.094 3.30655C577.074 0.996554 577.564 -0.0734402 580.064 0.22656C582.274 0.49656 585.134 -0.663445 586.584 0.666555C588.194 2.14655 587.104 5.06656 587.124 7.35656C587.204 18.9066 587.184 30.4566 587.214 42.0066Z" fill="#D8D9D9"/>
<path d="M562.714 41.9966C559.344 42.2366 555.974 42.1966 552.614 42.0166C552.634 29.0466 552.714 16.0766 552.634 3.11663C552.614 0.826626 553.234 -0.0733791 555.544 0.236621C557.814 0.546621 560.754 -0.773377 562.234 0.816623C563.584 2.25662 562.624 5.10663 562.634 7.33663C562.694 18.8866 562.694 30.4466 562.714 41.9966Z" fill="#D8D9D9"/>
<path d="M577.124 336.317C580.474 336.307 583.824 336.297 587.184 336.297C587.174 348.857 587.104 361.407 587.204 373.967C587.224 376.187 586.604 376.967 584.404 376.717C582.924 376.547 581.404 376.557 579.924 376.717C577.774 376.947 577.064 376.257 577.094 373.987C577.214 362.347 577.144 350.707 577.144 339.067C577.134 338.147 577.124 337.227 577.124 336.317Z" fill="#D8D9D9"/>
<path d="M553.124 336.317C556.314 336.307 559.494 336.307 562.684 336.297C562.674 348.857 562.614 361.407 562.714 373.967C562.734 376.207 562.084 376.767 559.914 376.737C553.144 376.627 553.144 376.717 553.144 369.997C553.134 358.767 553.124 347.547 553.124 336.317Z" fill="#D8D9D9"/>
<path d="M489.714 42.0066C486.684 42.2266 483.644 42.2166 480.614 42.0166C480.634 29.0466 480.714 16.0766 480.624 3.10661C480.604 0.79661 481.254 0.146606 483.544 0.196606C489.654 0.336606 489.654 0.226613 489.654 6.33661C489.674 18.2266 489.694 30.1166 489.714 42.0066Z" fill="#D8D9D9"/>
<path d="M480.644 336.287C483.664 336.287 486.674 336.287 489.694 336.297C489.684 348.847 489.624 361.407 489.724 373.957C489.744 376.187 489.104 376.767 486.924 376.727C480.694 376.607 480.694 376.707 480.694 370.457C480.674 359.067 480.654 347.677 480.644 336.287Z" fill="#D8D9D9"/>
<path d="M465.224 41.9966C462.354 42.2466 459.484 42.2166 456.614 42.0166C456.634 29.0466 456.714 16.0766 456.624 3.11657C456.604 0.80657 457.254 0.146566 459.544 0.206566C465.164 0.346566 465.164 0.236571 465.174 5.83657C465.184 17.8866 465.204 29.9366 465.224 41.9966Z" fill="#D8D9D9"/>
<path d="M456.644 336.287C459.494 336.287 462.344 336.297 465.194 336.297C465.184 348.847 465.124 361.407 465.224 373.957C465.244 376.197 464.584 376.767 462.414 376.717C456.684 376.597 456.684 376.697 456.684 370.947C456.664 359.407 456.654 347.847 456.644 336.287Z" fill="#D8D9D9"/>
<path d="M440.734 41.9466C438.024 42.2966 435.324 42.1866 432.614 42.0066C432.634 29.0466 432.714 16.0766 432.624 3.1166C432.604 0.826599 433.214 0.126593 435.534 0.196593C440.684 0.356593 440.684 0.236599 440.694 5.2966C440.704 17.5166 440.724 29.7366 440.734 41.9466Z" fill="#D8D9D9"/>
<path d="M416.724 42.0167C414.024 42.2167 411.324 42.2367 408.614 42.0067C408.634 29.0367 408.714 16.0667 408.624 3.10667C408.604 0.786666 409.274 0.146664 411.554 0.206664C416.654 0.356664 416.654 0.246665 416.664 5.35667C416.674 17.5767 416.694 29.7967 416.724 42.0167Z" fill="#D8D9D9"/>
<path d="M432.644 336.297C435.334 336.307 438.014 336.317 440.704 336.327C440.694 348.877 440.634 361.437 440.744 373.987C440.764 376.257 440.064 376.787 437.914 376.737C432.684 376.607 432.684 376.717 432.674 371.467C432.664 359.737 432.654 348.017 432.644 336.297Z" fill="#D8D9D9"/>
<path d="M408.644 336.297C411.324 336.297 414.004 336.297 416.694 336.287C416.684 348.837 416.614 361.397 416.704 373.947C416.724 376.167 416.104 376.777 413.914 376.727C408.684 376.587 408.684 376.697 408.674 371.457C408.664 359.737 408.654 348.017 408.644 336.297Z" fill="#D8D9D9"/>
<path d="M392.224 41.9966C389.684 42.2266 387.154 42.2266 384.614 41.9966C384.634 29.0266 384.714 16.0566 384.614 3.08658C384.594 0.75658 385.274 0.116572 387.544 0.196572C392.164 0.356572 392.164 0.236577 392.164 4.82658C392.184 17.2266 392.204 29.6166 392.224 41.9966Z" fill="#D8D9D9"/>
<path d="M384.644 336.297C387.164 336.297 389.674 336.297 392.194 336.297C392.184 348.847 392.114 361.407 392.224 373.957C392.244 376.197 391.594 376.787 389.414 376.717C384.674 376.577 384.674 376.687 384.664 371.957C384.664 360.077 384.654 348.187 384.644 336.297Z" fill="#D8D9D9"/>
<path d="M367.734 41.9766C365.364 42.2566 362.984 42.2166 360.614 42.0066C360.634 29.1266 360.724 16.2366 360.604 3.35657C360.584 0.796572 361.274 -0.183426 363.784 0.256573C364.104 0.316573 364.454 0.306573 364.784 0.256573C367.004 -0.0834265 367.764 0.716575 367.744 3.08658C367.624 15.0566 367.684 27.0266 367.694 38.9966C367.684 39.9766 367.714 40.9766 367.734 41.9766Z" fill="#D8D9D9"/>
<path d="M343.724 42.0266C341.354 42.2066 338.984 42.2466 336.624 41.9966C336.644 29.1166 336.744 16.2266 336.614 3.34656C336.594 0.776565 337.304 -0.173434 339.804 0.246566C340.294 0.326566 340.804 0.316566 341.294 0.246566C343.164 -0.0134337 343.704 0.766564 343.694 2.62656C343.614 12.1066 343.644 21.5766 343.654 31.0566C343.654 34.7066 343.694 38.3666 343.724 42.0266Z" fill="#D8D9D9"/>
<path d="M336.644 336.297C338.994 336.287 341.344 336.287 343.684 336.277C343.674 348.747 343.594 361.217 343.694 373.687C343.714 376.087 343.054 377.067 340.654 376.677C340.164 376.597 339.654 376.607 339.164 376.677C337.214 376.957 336.604 376.207 336.624 374.197C336.704 361.577 336.654 348.937 336.644 336.297Z" fill="#D8D9D9"/>
<path d="M360.644 336.297C362.994 336.297 365.344 336.307 367.704 336.307C367.694 348.857 367.634 361.417 367.734 373.967C367.754 376.217 367.074 376.807 364.914 376.717C359.974 376.507 360.694 377.297 360.684 372.467C360.644 360.407 360.654 348.357 360.644 336.297Z" fill="#D8D9D9"/>
<path d="M319.224 42.0066C317.024 42.2166 314.814 42.2366 312.614 41.9966C312.634 29.0266 312.644 16.0566 312.694 3.0966C312.694 2.1866 312.134 0.746598 313.334 0.456598C315.074 0.0265979 317.004 -0.0934035 318.724 0.556596C319.544 0.866596 319.154 2.0666 319.154 2.8666C319.174 14.8366 319.164 26.8066 319.174 38.7766C319.164 39.8466 319.204 40.9266 319.224 42.0066Z" fill="#D8D9D9"/>
<path d="M312.644 336.307C314.824 336.307 317.014 336.297 319.194 336.297C319.184 348.847 319.074 361.407 319.234 373.957C319.274 376.787 317.934 376.737 315.924 376.727C313.934 376.717 312.564 376.827 312.594 373.977C312.764 361.417 312.654 348.857 312.644 336.307Z" fill="#D8D9D9"/>
<path d="M625.134 47.2067C628.224 44.7067 632.064 45.2967 635.614 44.6967C635.614 56.4067 635.604 68.1267 635.604 79.8367C632.124 73.1467 628.634 66.4467 625.154 59.7567C625.144 55.5667 625.144 51.3867 625.134 47.2067Z" fill="#D8D9D9"/>
<path d="M240.644 336.317C242.274 335.987 244.024 336.627 245.574 335.667C246.434 336.257 246.154 337.167 246.154 337.957C246.174 350.027 246.114 362.087 246.214 374.157C246.234 376.357 245.434 376.727 243.474 376.757C241.384 376.787 240.594 376.337 240.614 374.027C240.724 361.447 240.654 348.877 240.644 336.317Z" fill="#D8D9D9"/>
<path d="M168.164 336.287C169.844 336.287 171.524 336.287 173.194 336.287C173.184 348.837 173.164 361.387 173.144 373.937C173.144 376.437 171.254 377.617 168.934 376.587C167.754 376.067 168.224 375.007 168.214 374.187C168.184 362.637 168.194 351.077 168.194 339.527C168.204 338.447 168.184 337.367 168.164 336.287Z" fill="#D8D9D9"/>
<path d="M216.644 336.317C218.334 336.307 220.014 336.307 221.704 336.297C221.694 348.767 221.684 361.237 221.674 373.707C221.674 376.587 220.554 377.377 217.684 376.657C216.174 376.277 216.684 375.107 216.684 374.227C216.654 362.257 216.664 350.287 216.664 338.317C216.664 337.647 216.654 336.987 216.644 336.317Z" fill="#D8D9D9"/>
<path d="M192.644 336.317C194.164 336.317 195.684 336.307 197.214 336.307C197.204 348.857 197.144 361.417 197.244 373.967C197.264 376.207 196.614 376.827 194.434 376.737C192.434 376.657 192.654 375.487 192.664 374.227C192.664 362.257 192.664 350.287 192.664 338.307C192.664 337.647 192.654 336.987 192.644 336.317Z" fill="#D8D9D9"/>
<path d="M144.164 336.287C145.674 336.287 147.194 336.287 148.704 336.287C148.694 348.837 148.644 361.397 148.704 373.947C148.714 375.857 148.444 376.897 146.184 376.727C144.684 376.617 144.164 376.207 144.184 374.687C144.254 369.367 144.214 364.047 144.214 358.727C144.194 351.247 144.184 343.767 144.164 336.287Z" fill="#D8D9D9"/>
<path d="M124.154 42.8166C122.984 41.7166 121.454 42.3866 120.134 42.0066C120.154 28.8666 120.194 15.7266 120.194 2.57662C120.194 1.19662 120.214 0.216612 122.104 0.196612C124.044 0.176612 124.214 1.08661 124.214 2.63661C124.174 13.0366 124.194 23.4366 124.194 33.8266C124.184 36.8266 124.164 39.8166 124.154 42.8166Z" fill="#D8D9D9"/>
<path d="M120.164 336.287C121.514 336.287 122.864 336.297 124.214 336.297C124.204 348.937 124.184 361.567 124.204 374.207C124.204 375.657 124.244 376.817 122.194 376.727C120.694 376.657 120.164 376.227 120.184 374.697C120.254 369.547 120.214 364.387 120.214 359.237C120.194 351.587 120.184 343.937 120.164 336.287Z" fill="#D8D9D9"/>
<path d="M99.7539 41.9566C98.5539 42.2366 97.3439 42.1966 96.1339 42.0066C96.1539 28.9566 96.1639 15.9166 96.2339 2.86661C96.2339 1.93661 95.5939 0.576611 97.3039 0.276611C99.1439 -0.0433894 99.7539 0.666612 99.7439 2.56661C99.6639 14.6166 99.7039 26.6666 99.7039 38.7166C99.7039 39.7966 99.7439 40.8766 99.7539 41.9566Z" fill="#D8D9D9"/>
<path d="M75.7438 42.0067C74.5438 42.0067 73.3438 42.0067 72.1438 42.0067C72.1638 28.9567 72.1738 15.9067 72.2438 2.85666C72.2438 1.92666 71.6038 0.566653 73.3238 0.266653C75.2238 -0.0633471 75.7338 0.746655 75.7238 2.59665C75.6538 14.6467 75.6838 26.7067 75.6938 38.7567C75.6838 39.8467 75.7238 40.9267 75.7438 42.0067Z" fill="#D8D9D9"/>
<path d="M72.1738 336.287C73.3538 336.287 74.5338 336.287 75.7138 336.287C75.7038 348.927 75.6938 361.557 75.6638 374.197C75.6638 375.247 76.1538 376.627 74.1938 376.697C72.6638 376.747 72.1638 376.217 72.1838 374.697C72.2538 369.377 72.2138 364.057 72.2138 358.737C72.2038 351.257 72.1838 343.767 72.1738 336.287Z" fill="#D8D9D9"/>
<path d="M51.2538 41.9966C50.2138 41.9966 49.1838 42.0066 48.1438 42.0066C48.1638 28.9566 48.1838 15.9066 48.2338 2.85661C48.2338 2.01661 47.7838 0.966608 48.8438 0.386608C50.1438 -0.333392 51.1838 0.516607 51.1838 2.34661C51.2038 11.7366 51.1838 21.1366 51.1938 30.5266C51.2038 34.3566 51.2338 38.1766 51.2538 41.9966Z" fill="#D8D9D9"/>
<path d="M48.1738 336.287C49.1938 336.287 50.2038 336.297 51.2238 336.297C51.2138 348.937 51.2138 361.567 51.1838 374.207C51.1838 374.987 51.5538 375.957 50.6638 376.487C50.0838 376.827 49.3338 376.797 48.7338 376.487C47.9938 376.107 48.2238 375.327 48.2238 374.697C48.2038 369.547 48.2238 364.387 48.2138 359.237C48.2038 351.587 48.1838 343.937 48.1738 336.287Z" fill="#D8D9D9"/>
<path d="M96.1638 336.287C97.3538 336.297 98.5338 336.297 99.7238 336.307C99.7138 343.067 99.7038 349.827 99.7138 356.577C99.7138 357.297 99.4938 358.077 100.154 358.667C98.8538 361.197 97.5438 363.737 96.2438 366.267C96.2238 356.277 96.1938 346.287 96.1638 336.287Z" fill="#D8D9D9"/>
<path d="M95.7738 371.727C97.0438 369.327 98.3138 366.927 99.5838 364.527C99.6238 367.987 99.6338 371.457 99.7138 374.917C99.7438 376.157 99.3438 376.687 98.0238 376.707C96.6038 376.727 96.1438 376.187 96.1738 374.817C96.1838 373.787 96.5838 372.667 95.7738 371.727Z" fill="#D8D9D9"/>
<path d="M465.174 51.2266C465.174 142.027 465.174 232.817 465.194 323.617C465.194 324.727 464.734 325.987 465.854 326.887C462.894 328.267 459.874 329.467 456.674 330.177C456.674 317.517 456.694 304.857 456.684 292.187C456.674 266.777 456.654 241.367 456.634 215.967C457.224 215.167 457.134 214.247 457.134 213.337C457.134 197.207 457.134 181.077 457.144 164.947C457.144 164.027 457.174 163.117 456.654 162.307C456.654 124.307 456.654 86.3066 456.654 48.3066C459.694 48.6866 462.484 49.8166 465.174 51.2266Z" fill="#D8D9D9"/>
<path d="M416.684 192.577C416.694 238.887 416.704 285.197 416.714 331.507C414.014 331.507 411.324 331.497 408.624 331.497C408.644 319.927 408.664 308.357 408.674 296.787C408.684 261.747 408.684 226.707 408.694 191.667C411.424 191.337 414.084 191.707 416.684 192.577Z" fill="#D8D9D9"/>
<path d="M416.684 46.8267C416.674 93.1367 416.674 139.437 416.664 185.747C414.074 186.687 411.404 186.977 408.664 186.697C408.664 140.077 408.654 93.4567 408.654 46.8467C411.324 46.8367 414.004 46.8267 416.684 46.8267Z" fill="#D8D9D9"/>
<path d="M441.254 202.647C440.294 203.527 440.704 204.677 440.704 205.707C440.674 247.627 440.664 289.537 440.664 331.457C437.984 331.747 435.304 331.657 432.624 331.507C432.644 320.597 432.674 309.677 432.674 298.767C432.674 265.107 432.664 231.447 432.654 197.797C435.744 199.007 438.604 200.637 441.254 202.647Z" fill="#D8D9D9"/>
<path d="M440.694 46.8566C440.694 88.9666 440.684 131.077 440.694 173.187C440.694 174.067 440.374 175.037 441.204 175.777C438.634 177.757 435.774 179.217 432.764 180.407C432.734 179.157 432.684 177.917 432.684 176.667C432.674 133.397 432.664 90.1166 432.654 46.8466C435.334 46.8366 438.014 46.8466 440.694 46.8566Z" fill="#D8D9D9"/>
<path d="M392.194 46.8366C392.194 93.4566 392.184 140.067 392.184 186.687C389.674 186.687 387.164 186.687 384.664 186.687C384.664 140.067 384.654 93.4566 384.654 46.8366C387.164 46.8366 389.674 46.8366 392.194 46.8366Z" fill="#D8D9D9"/>
<path d="M392.154 191.677C392.164 237.117 392.164 282.567 392.174 328.007C392.174 329.167 392.204 330.337 392.224 331.497C389.694 331.497 387.164 331.497 384.634 331.497C384.654 315.937 384.674 300.367 384.684 284.807C384.694 253.767 384.694 222.717 384.704 191.677C387.174 191.667 389.664 191.667 392.154 191.677Z" fill="#D8D9D9"/>
<path d="M367.694 46.8466C367.694 93.4566 367.684 140.067 367.684 186.677C365.344 186.677 362.994 186.687 360.654 186.687C360.654 140.067 360.654 93.4566 360.644 46.8366C363.004 46.8366 365.354 46.8466 367.694 46.8466Z" fill="#D8D9D9"/>
<path d="M367.664 191.687C367.674 237.037 367.684 282.387 367.694 327.737C367.694 328.987 367.724 330.237 367.734 331.477C365.374 331.697 363.004 331.677 360.644 331.487C360.654 330.327 360.684 329.157 360.684 327.997C360.694 282.557 360.704 237.117 360.704 191.667C363.014 191.677 365.334 191.677 367.664 191.687Z" fill="#D8D9D9"/>
<path d="M757.574 61.1566C757.594 62.1566 757.624 63.1566 757.624 64.1566C757.624 146.437 757.624 228.717 757.604 310.997C757.604 312.087 758.134 313.357 756.984 314.257C754.894 311.627 753.734 308.487 752.164 305.567C749.604 300.807 747.214 295.967 744.744 291.157C745.424 290.357 745.114 289.397 745.114 288.517C745.124 217.817 745.134 147.117 745.114 76.4266C745.114 75.5466 745.424 74.5866 744.724 73.7966C748.514 69.0666 752.784 64.8466 757.574 61.1566Z" fill="#D8D9D9"/>
<path d="M587.604 76.2666C586.824 77.0266 587.164 77.9966 587.164 78.8766C587.144 155.217 587.144 231.567 587.164 307.907C587.164 308.857 586.774 309.927 587.674 310.727C584.444 314.027 580.964 317.037 577.124 319.607C577.124 233.487 577.134 147.367 577.134 61.2466C577.134 60.4166 577.144 59.5766 577.154 58.7466C580.474 62.0666 582.484 66.2366 584.594 70.3266C585.624 72.3066 586.604 74.2866 587.604 76.2666Z" fill="#D8D9D9"/>
<path d="M733.084 92.1466C733.104 92.9766 733.144 93.8066 733.144 94.6466C733.144 151.627 733.144 208.607 733.144 265.587C733.144 266.507 733.094 267.417 733.064 268.337C728.954 260.447 724.844 252.567 720.734 244.677C721.434 243.887 721.124 242.927 721.124 242.037C721.144 199.547 721.144 157.067 721.124 114.577C721.124 113.627 721.504 112.557 720.644 111.737C724.794 105.207 728.934 98.6766 733.084 92.1466Z" fill="#D8D9D9"/>
<path d="M611.554 122.787C610.954 123.417 611.174 124.207 611.174 124.927C611.164 174.927 611.174 224.917 611.174 274.917C611.174 275.247 611.194 275.587 611.204 275.917C608.114 281.337 604.784 286.607 601.204 291.727C600.344 291.007 600.684 290.027 600.684 289.147C600.664 228.077 600.664 167.017 600.684 105.947C600.684 105.007 600.264 103.907 601.314 103.187C605.004 109.587 608.234 116.217 611.554 122.787Z" fill="#D8D9D9"/>
<path d="M625.204 253.797C625.184 244.817 625.144 235.837 625.134 226.857C625.124 202.157 625.124 177.467 625.134 152.767C625.134 151.687 625.224 150.607 625.274 149.537C629.164 156.297 632.574 163.307 636.104 170.247C635.334 171.007 635.664 171.977 635.664 172.847C635.644 193.267 635.644 213.697 635.664 234.117C635.664 234.987 635.334 235.957 636.114 236.707C632.554 242.457 629.114 248.277 625.204 253.797Z" fill="#D8D9D9"/>
<path d="M708.514 131.027C708.564 131.687 708.644 132.357 708.644 133.017C708.654 161.727 708.654 190.427 708.644 219.137C708.644 219.717 708.574 220.297 708.544 220.877C704.334 213.457 700.564 205.797 696.714 198.187C697.344 197.567 697.124 196.777 697.124 196.057C697.124 180.397 697.124 164.747 697.114 149.087C700.664 142.917 704.504 136.917 708.514 131.027Z" fill="#D8D9D9"/>
<path d="M649.214 215.837C649.194 209.127 649.184 202.417 649.164 195.707C650.994 199.127 652.814 202.557 654.674 205.957C655.044 206.637 654.944 207.187 654.544 207.787C652.754 210.457 650.994 213.147 649.214 215.837Z" fill="#D8D9D9"/>
</svg>
