<svg width="1113" height="201" viewBox="0 0 1113 201" fill="none" xmlns="http://www.w3.org/2000/svg">
<g filter="url(#filter0_d_560_761)">
<path d="M411.89 192.11C406.77 192.07 401.64 191.99 396.52 192.01C394.29 192.02 392.07 192.05 389.88 191.6C348.58 185.41 316.47 156.29 307.63 117.05C296.1 65.85 325.03 17.98 376 3.84C383 1.9 390.14 0.83 397.34 0.11C397.71 0.31 398.05 0.27 398.36 0C402.37 0 406.38 0 410.38 0C410.86 0.33 411.36 0.35 411.88 0.0899999C420.68 0.92 429.39 2.26 437.75 5.21C471.17 16.97 492.99 39.59 502.01 74C504.73 84.38 504.63 94.94 503.48 105.61C501.89 120.38 497.45 134.13 489.34 146.49C473.38 170.8 451 185.73 422.28 191.09C418.83 191.74 415.38 192.05 411.89 192.11ZM404.09 50.12C380.3 49.76 359.71 69.22 358.97 92.12C358.02 121.75 379.95 140.01 401.89 141.22C429.18 142.73 450.12 120.65 450.77 95.15C451.39 70.78 430.11 50.51 404.09 50.12Z" fill="white"/>
</g>
<g filter="url(#filter1_d_560_761)">
<path d="M747.74 1.13C750.4 1.39 753.05 1.39 755.71 1.13C758.38 1.42 761.06 1.42 763.73 1.13C765.73 1.2 767.73 1.28 769.73 1.35C771.13 2.14 772.78 1.78001 774.24 2.30001C774.75 2.31001 775.26 2.31001 775.77 2.32001C776.04 2.63001 776.36 2.72 776.75 2.56C777.25 2.65 777.76 2.75001 778.26 2.84001C778.53 3.16001 778.85 3.28 779.25 3.12C779.59 3.19 779.92 3.26 780.26 3.33C780.52 3.65 780.84 3.78 781.25 3.62C782.75 4.02 784.26 4.42001 785.76 4.82001C786.99 5.55001 788.33 5.94 789.75 6.12C790.66 6.47 791.56 6.81001 792.47 7.16001C792.81 7.53001 793.22 7.76001 793.75 7.65001C797.36 9.30001 800.97 10.94 804.58 12.59C804.84 13.03 805.24 13.24 805.75 13.22C818.06 20.5 828.81 29.51 837.34 41.08C850.65 59.14 855.97 79.42 854.49 101.61C853.08 122.64 845.68 141.38 832.44 157.77C819.56 173.7 802.89 183.81 783.08 188.74C755.15 195.68 728.22 193.01 703.09 178.68C678.41 164.61 663.71 143.02 658.29 115.31C654.91 97.98 655.13 80.63 661.04 63.75C668.8 41.62 683.99 25.77 703.98 14.12C710.99 10.03 718.5 7.11 726.2 4.62C726.73 4.77 727.14 4.54001 727.5 4.19001C728.23 3.99001 728.97 3.79 729.7 3.6C730.1 3.75 730.42 3.63 730.68 3.31C731.02 3.25 731.36 3.19001 731.7 3.13001C732.1 3.30001 732.42 3.18 732.69 2.87C733.19 2.79 733.69 2.71001 734.2 2.63001C734.59 2.81001 734.92 2.7 735.2 2.39C735.88 2.29 736.55 2.2 737.23 2.1C737.62 2.31 737.93 2.22 738.2 1.88C738.71 1.85 739.22 1.82 739.72 1.79C742.39 1.57 745.07 1.35 747.74 1.13ZM801.22 95.13C801.24 70.5 780.32 50.58 754.43 50.58C730.24 50.58 709.69 71.23 709.67 95.56C709.65 120.85 730.83 142.44 755.35 142.4C781.37 142.37 801.11 119.83 801.22 95.13Z" fill="white"/>
</g>
<g filter="url(#filter2_d_560_761)">
<path d="M570.79 3.37004C571.46 3.24004 572.13 3.11004 572.8 2.98004C575.13 2.92004 577.46 2.85004 579.79 2.79004C582.47 2.96004 585.15 3.14004 587.83 3.31004C589.16 3.36004 590.49 3.41004 591.82 3.46004C592.1 3.79004 592.43 3.86004 592.81 3.63004C608.39 5.84004 622.92 11.25 637.04 17.96C638.5 18.66 638.75 19.24 637.95 20.72C631.32 32.99 624.75 45.3 618.23 57.63C617.46 59.08 616.82 59.23 615.38 58.49C609.1 55.28 603.06 51.54 596.32 49.26C590.07 47.15 583.82 46.87 577.51 49.07C570.03 51.68 569.97 59.09 572.99 63.97C573.64 65.03 574.77 65.44 575.78 65.99C584.15 70.54 593.25 73.25 602.16 76.44C607.56 78.38 612.88 80.49 618.09 82.91C630.9 88.87 638.73 98.81 641.93 112.41C646.66 132.5 643.79 151.32 631.48 168.18C624.92 177.16 615.69 182.73 605.34 186.52C593.31 190.92 580.81 191.87 568.09 191.86C546.2 191.84 527.67 182.52 509.61 171.66C508.4 170.93 508.56 170.32 509.05 169.33C515.62 156.04 522.28 142.81 529.12 129.66C529.96 128.04 530.59 128.21 531.87 129.08C537.36 132.82 542.75 136.71 548.46 140.13C557.2 145.37 566.58 147.97 576.76 146.64C585.99 145.43 591.16 138.73 588.8 129.55C588.34 127.77 587.4 126.51 585.78 125.54C578.46 121.17 570.43 118.5 562.42 115.8C554.17 113.02 545.85 110.45 538.17 106.24C526.99 100.11 519.3 91.34 517.59 78.32C516.57 70.56 516.8 62.76 517.28 54.94C517.78 46.82 519.65 39.13 523.93 32.27C534.56 15.2 549.65 5.03004 570.09 3.52004C570.31 3.52004 570.55 3.43004 570.79 3.37004Z" fill="white"/>
</g>
<g filter="url(#filter3_d_560_761)">
<path d="M214.783 7.13C231.618 7.13 245.619 9.19681 256.785 13.3304C267.952 17.3797 276.327 23.4535 281.911 31.552C287.579 39.6505 290.413 49.7315 290.413 61.7948C290.413 69.3028 289.144 76.1359 286.606 82.2942C284.068 88.4524 280.43 93.9779 275.693 98.8708C271.04 103.679 265.457 107.897 258.943 111.525L313 192.13H256.151L216.813 124.811H204.124V192.13H154V7.13H214.783ZM214.022 44.9652H204.124V87.2292H213.514C221.212 87.2292 227.515 85.542 232.421 82.1676C237.328 78.7933 239.781 72.7616 239.781 64.0726C239.781 58.083 237.751 53.4011 233.69 50.0267C229.63 46.6523 223.073 44.9652 214.022 44.9652Z" fill="white"/>
</g>
<g filter="url(#filter4_d_560_761)">
<path d="M69.8134 7.13C93.9189 7.13 111.955 12.2337 123.921 22.4412C135.974 32.6487 142 47.1585 142 65.9706C142 74.4066 140.743 82.5051 138.228 90.2661C135.8 98.0272 131.768 104.945 126.132 111.019C120.582 117.092 113.169 121.901 103.891 125.444C94.6993 128.987 83.3402 130.759 69.8134 130.759H55.3761V192.13H4V7.13H69.8134ZM68.6428 47.4959H55.3761V90.013H65.5212C69.9435 90.013 74.0622 89.296 77.8775 87.8619C81.6927 86.3434 84.7276 83.9392 86.9821 80.6492C89.3233 77.2748 90.4939 72.8037 90.4939 67.236C90.4939 61.4152 88.7163 56.6911 85.1612 53.0637C81.606 49.3518 76.0999 47.4959 68.6428 47.4959Z" fill="white"/>
</g>
<g filter="url(#filter5_d_560_761)">
<path d="M867.56 102.2C867.56 73.28 867.59 44.37 867.51 15.45C867.5 13.15 868 12.35 870.48 12.33C903.71 12.02 936.94 12.22 970.17 12.44C972.26 12.45 972.79 13.04 972.78 15.09C972.69 28.55 972.68 42.01 972.78 55.47C972.79 57.49 972.2 57.97 970.25 57.9C954.02 57.3 937.77 57.68 921.54 57.47C919.47 57.44 918.82 58.01 918.85 60.08C918.94 65.73 918.9 71.38 918.73 77.03C918.67 78.99 919.21 79.54 921.2 79.51C935.77 79.28 950.35 79.23 964.92 78.98C967.27 78.94 967.79 79.63 967.79 81.87C967.81 95.16 967.94 108.46 968.15 121.75C968.18 123.77 967.58 124.25 965.62 124.24C951.05 124.16 936.47 124.23 921.9 124.15C919.89 124.14 919.26 124.59 919.21 126.71C918.81 147.65 918.68 168.58 918.78 189.52C918.79 191.6 918.26 192.12 916.18 192.1C901.02 192.01 885.87 191.99 870.71 192.11C868.21 192.13 867.41 191.63 867.42 188.94C867.53 160.02 867.49 131.11 867.49 102.19C867.52 102.2 867.54 102.2 867.56 102.2Z" fill="white"/>
</g>
<g filter="url(#filter6_d_560_761)">
<path d="M1108.58 11.5301C1108.61 14.1901 1108.64 16.8401 1108.67 19.5001C1108.67 22.1701 1108.67 24.8401 1108.67 27.5101C1108.67 30.1601 1108.67 32.8101 1108.67 35.4601C1108.67 38.1301 1108.67 40.8001 1108.67 43.4701C1108.67 46.1201 1108.67 48.7701 1108.67 51.4201C1108.63 53.0801 1108.6 54.7401 1108.56 56.4001C1102.15 56.4601 1095.75 56.5101 1089.34 56.5901C1088.43 56.6001 1087.52 56.7301 1086.62 56.8001C1084.44 56.5101 1082.26 56.5901 1080.1 56.9701C1072.68 56.5601 1072.69 56.5601 1072.68 63.9101C1072.64 105.54 1072.58 147.17 1072.61 188.8C1072.61 191.12 1071.96 191.63 1069.74 191.61C1054.5 191.5 1039.26 191.49 1024.02 191.57C1021.99 191.58 1021.58 190.96 1021.58 189.06C1021.49 145.85 1021.31 102.65 1021.26 59.4401C1021.26 57.0101 1020.64 56.4401 1018.25 56.4701C1007.59 56.6001 996.93 56.4301 986.27 56.5601C983.86 56.5901 983.41 55.7901 983.42 53.6101C983.49 39.9001 983.42 26.1901 983.39 12.4801C983.61 12.2601 983.83 12.0501 984.06 11.8301C990.08 11.7401 996.09 11.6501 1002.11 11.5701C1004.61 11.8401 1007.09 11.8201 1009.58 11.4301C1010.57 11.4601 1011.57 11.5101 1012.56 11.5101C1044.07 11.5001 1075.58 11.4801 1107.09 11.4601C1107.59 11.4501 1108.08 11.5001 1108.58 11.5301Z" fill="white"/>
</g>
<defs>
<filter id="filter0_d_560_761" x="301.11" y="0" width="207.133" height="200.11" filterUnits="userSpaceOnUse" color-interpolation-filters="sRGB">
<feFlood flood-opacity="0" result="BackgroundImageFix"/>
<feColorMatrix in="SourceAlpha" type="matrix" values="0 0 0 0 0 0 0 0 0 0 0 0 0 0 0 0 0 0 127 0" result="hardAlpha"/>
<feOffset dy="4"/>
<feGaussianBlur stdDeviation="2"/>
<feComposite in2="hardAlpha" operator="out"/>
<feColorMatrix type="matrix" values="0 0 0 0 0 0 0 0 0 0 0 0 0 0 0 0 0 0 0.25 0"/>
<feBlend mode="normal" in2="BackgroundImageFix" result="effect1_dropShadow_560_761"/>
<feBlend mode="normal" in="SourceGraphic" in2="effect1_dropShadow_560_761" result="shape"/>
</filter>
<filter id="filter1_d_560_761" x="652.091" y="1.13" width="206.639" height="199.278" filterUnits="userSpaceOnUse" color-interpolation-filters="sRGB">
<feFlood flood-opacity="0" result="BackgroundImageFix"/>
<feColorMatrix in="SourceAlpha" type="matrix" values="0 0 0 0 0 0 0 0 0 0 0 0 0 0 0 0 0 0 127 0" result="hardAlpha"/>
<feOffset dy="4"/>
<feGaussianBlur stdDeviation="2"/>
<feComposite in2="hardAlpha" operator="out"/>
<feColorMatrix type="matrix" values="0 0 0 0 0 0 0 0 0 0 0 0 0 0 0 0 0 0 0.25 0"/>
<feBlend mode="normal" in2="BackgroundImageFix" result="effect1_dropShadow_560_761"/>
<feBlend mode="normal" in="SourceGraphic" in2="effect1_dropShadow_560_761" result="shape"/>
</filter>
<filter id="filter2_d_560_761" x="504.684" y="2.79004" width="143.402" height="197.07" filterUnits="userSpaceOnUse" color-interpolation-filters="sRGB">
<feFlood flood-opacity="0" result="BackgroundImageFix"/>
<feColorMatrix in="SourceAlpha" type="matrix" values="0 0 0 0 0 0 0 0 0 0 0 0 0 0 0 0 0 0 127 0" result="hardAlpha"/>
<feOffset dy="4"/>
<feGaussianBlur stdDeviation="2"/>
<feComposite in2="hardAlpha" operator="out"/>
<feColorMatrix type="matrix" values="0 0 0 0 0 0 0 0 0 0 0 0 0 0 0 0 0 0 0.25 0"/>
<feBlend mode="normal" in2="BackgroundImageFix" result="effect1_dropShadow_560_761"/>
<feBlend mode="normal" in="SourceGraphic" in2="effect1_dropShadow_560_761" result="shape"/>
</filter>
<filter id="filter3_d_560_761" x="150" y="7.13" width="167" height="193" filterUnits="userSpaceOnUse" color-interpolation-filters="sRGB">
<feFlood flood-opacity="0" result="BackgroundImageFix"/>
<feColorMatrix in="SourceAlpha" type="matrix" values="0 0 0 0 0 0 0 0 0 0 0 0 0 0 0 0 0 0 127 0" result="hardAlpha"/>
<feOffset dy="4"/>
<feGaussianBlur stdDeviation="2"/>
<feComposite in2="hardAlpha" operator="out"/>
<feColorMatrix type="matrix" values="0 0 0 0 0 0 0 0 0 0 0 0 0 0 0 0 0 0 0.25 0"/>
<feBlend mode="normal" in2="BackgroundImageFix" result="effect1_dropShadow_560_761"/>
<feBlend mode="normal" in="SourceGraphic" in2="effect1_dropShadow_560_761" result="shape"/>
</filter>
<filter id="filter4_d_560_761" x="0" y="7.13" width="146" height="193" filterUnits="userSpaceOnUse" color-interpolation-filters="sRGB">
<feFlood flood-opacity="0" result="BackgroundImageFix"/>
<feColorMatrix in="SourceAlpha" type="matrix" values="0 0 0 0 0 0 0 0 0 0 0 0 0 0 0 0 0 0 127 0" result="hardAlpha"/>
<feOffset dy="4"/>
<feGaussianBlur stdDeviation="2"/>
<feComposite in2="hardAlpha" operator="out"/>
<feColorMatrix type="matrix" values="0 0 0 0 0 0 0 0 0 0 0 0 0 0 0 0 0 0 0.25 0"/>
<feBlend mode="normal" in2="BackgroundImageFix" result="effect1_dropShadow_560_761"/>
<feBlend mode="normal" in="SourceGraphic" in2="effect1_dropShadow_560_761" result="shape"/>
</filter>
<filter id="filter5_d_560_761" x="863.42" y="12.1705" width="113.36" height="187.94" filterUnits="userSpaceOnUse" color-interpolation-filters="sRGB">
<feFlood flood-opacity="0" result="BackgroundImageFix"/>
<feColorMatrix in="SourceAlpha" type="matrix" values="0 0 0 0 0 0 0 0 0 0 0 0 0 0 0 0 0 0 127 0" result="hardAlpha"/>
<feOffset dy="4"/>
<feGaussianBlur stdDeviation="2"/>
<feComposite in2="hardAlpha" operator="out"/>
<feColorMatrix type="matrix" values="0 0 0 0 0 0 0 0 0 0 0 0 0 0 0 0 0 0 0.25 0"/>
<feBlend mode="normal" in2="BackgroundImageFix" result="effect1_dropShadow_560_761"/>
<feBlend mode="normal" in="SourceGraphic" in2="effect1_dropShadow_560_761" result="shape"/>
</filter>
<filter id="filter6_d_560_761" x="979.39" y="11.4301" width="133.28" height="188.181" filterUnits="userSpaceOnUse" color-interpolation-filters="sRGB">
<feFlood flood-opacity="0" result="BackgroundImageFix"/>
<feColorMatrix in="SourceAlpha" type="matrix" values="0 0 0 0 0 0 0 0 0 0 0 0 0 0 0 0 0 0 127 0" result="hardAlpha"/>
<feOffset dy="4"/>
<feGaussianBlur stdDeviation="2"/>
<feComposite in2="hardAlpha" operator="out"/>
<feColorMatrix type="matrix" values="0 0 0 0 0 0 0 0 0 0 0 0 0 0 0 0 0 0 0.25 0"/>
<feBlend mode="normal" in2="BackgroundImageFix" result="effect1_dropShadow_560_761"/>
<feBlend mode="normal" in="SourceGraphic" in2="effect1_dropShadow_560_761" result="shape"/>
</filter>
</defs>
</svg>
