<svg width="185" height="202" viewBox="0 0 185 202" fill="none" xmlns="http://www.w3.org/2000/svg">
<path d="M5.96774 2.97059C5.96774 4.6112 4.63182 5.94118 2.98387 5.94118C1.33592 5.94118 0 4.6112 0 2.97059C0 1.32998 1.33592 0 2.98387 0C4.63182 0 5.96774 1.32998 5.96774 2.97059Z" fill="#ECEFF1"/>
<path d="M23.871 2.97059C23.871 4.6112 22.535 5.94118 20.8871 5.94118C19.2392 5.94118 17.9032 4.6112 17.9032 2.97059C17.9032 1.32998 19.2392 0 20.8871 0C22.535 0 23.871 1.32998 23.871 2.97059Z" fill="#ECEFF1"/>
<path d="M41.7742 2.97059C41.7742 4.6112 40.4383 5.94118 38.7903 5.94118C37.1424 5.94118 35.8065 4.6112 35.8065 2.97059C35.8065 1.32998 37.1424 0 38.7903 0C40.4383 0 41.7742 1.32998 41.7742 2.97059Z" fill="#ECEFF1"/>
<path d="M59.6774 2.97059C59.6774 4.6112 58.3415 5.94118 56.6936 5.94118C55.0456 5.94118 53.7097 4.6112 53.7097 2.97059C53.7097 1.32998 55.0456 0 56.6936 0C58.3415 0 59.6774 1.32998 59.6774 2.97059Z" fill="#ECEFF1"/>
<path d="M77.5807 2.97059C77.5807 4.6112 76.2447 5.94118 74.5968 5.94118C72.9488 5.94118 71.6129 4.6112 71.6129 2.97059C71.6129 1.32998 72.9488 0 74.5968 0C76.2447 0 77.5807 1.32998 77.5807 2.97059Z" fill="#ECEFF1"/>
<path d="M95.4839 2.97059C95.4839 4.6112 94.1479 5.94118 92.5 5.94118C90.8521 5.94118 89.5161 4.6112 89.5161 2.97059C89.5161 1.32998 90.8521 0 92.5 0C94.1479 0 95.4839 1.32998 95.4839 2.97059Z" fill="#ECEFF1"/>
<path d="M113.387 2.97059C113.387 4.6112 112.051 5.94118 110.403 5.94118C108.755 5.94118 107.419 4.6112 107.419 2.97059C107.419 1.32998 108.755 0 110.403 0C112.051 0 113.387 1.32998 113.387 2.97059Z" fill="#ECEFF1"/>
<path d="M131.29 2.97059C131.29 4.6112 129.954 5.94118 128.306 5.94118C126.659 5.94118 125.323 4.6112 125.323 2.97059C125.323 1.32998 126.659 0 128.306 0C129.954 0 131.29 1.32998 131.29 2.97059Z" fill="#ECEFF1"/>
<path d="M149.194 2.97059C149.194 4.6112 147.858 5.94118 146.21 5.94118C144.562 5.94118 143.226 4.6112 143.226 2.97059C143.226 1.32998 144.562 0 146.21 0C147.858 0 149.194 1.32998 149.194 2.97059Z" fill="#ECEFF1"/>
<path d="M167.097 2.97059C167.097 4.6112 165.761 5.94118 164.113 5.94118C162.465 5.94118 161.129 4.6112 161.129 2.97059C161.129 1.32998 162.465 0 164.113 0C165.761 0 167.097 1.32998 167.097 2.97059Z" fill="#ECEFF1"/>
<path d="M185 2.97059C185 4.6112 183.664 5.94118 182.016 5.94118C180.368 5.94118 179.032 4.6112 179.032 2.97059C179.032 1.32998 180.368 0 182.016 0C183.664 0 185 1.32998 185 2.97059Z" fill="#ECEFF1"/>
<path d="M5.96774 20.7941C5.96774 22.4347 4.63182 23.7647 2.98387 23.7647C1.33592 23.7647 0 22.4347 0 20.7941C0 19.1535 1.33592 17.8235 2.98387 17.8235C4.63182 17.8235 5.96774 19.1535 5.96774 20.7941Z" fill="#ECEFF1"/>
<path d="M23.871 20.7941C23.871 22.4347 22.535 23.7647 20.8871 23.7647C19.2392 23.7647 17.9032 22.4347 17.9032 20.7941C17.9032 19.1535 19.2392 17.8235 20.8871 17.8235C22.535 17.8235 23.871 19.1535 23.871 20.7941Z" fill="#ECEFF1"/>
<path d="M41.7742 20.7941C41.7742 22.4347 40.4383 23.7647 38.7903 23.7647C37.1424 23.7647 35.8065 22.4347 35.8065 20.7941C35.8065 19.1535 37.1424 17.8235 38.7903 17.8235C40.4383 17.8235 41.7742 19.1535 41.7742 20.7941Z" fill="#ECEFF1"/>
<path d="M59.6774 20.7941C59.6774 22.4347 58.3415 23.7647 56.6936 23.7647C55.0456 23.7647 53.7097 22.4347 53.7097 20.7941C53.7097 19.1535 55.0456 17.8235 56.6936 17.8235C58.3415 17.8235 59.6774 19.1535 59.6774 20.7941Z" fill="#ECEFF1"/>
<path d="M77.5807 20.7941C77.5807 22.4347 76.2447 23.7647 74.5968 23.7647C72.9488 23.7647 71.6129 22.4347 71.6129 20.7941C71.6129 19.1535 72.9488 17.8235 74.5968 17.8235C76.2447 17.8235 77.5807 19.1535 77.5807 20.7941Z" fill="#ECEFF1"/>
<path d="M95.4839 20.7941C95.4839 22.4347 94.1479 23.7647 92.5 23.7647C90.8521 23.7647 89.5161 22.4347 89.5161 20.7941C89.5161 19.1535 90.8521 17.8235 92.5 17.8235C94.1479 17.8235 95.4839 19.1535 95.4839 20.7941Z" fill="#ECEFF1"/>
<path d="M113.387 20.7941C113.387 22.4347 112.051 23.7647 110.403 23.7647C108.755 23.7647 107.419 22.4347 107.419 20.7941C107.419 19.1535 108.755 17.8235 110.403 17.8235C112.051 17.8235 113.387 19.1535 113.387 20.7941Z" fill="#ECEFF1"/>
<path d="M131.29 20.7941C131.29 22.4347 129.954 23.7647 128.306 23.7647C126.659 23.7647 125.323 22.4347 125.323 20.7941C125.323 19.1535 126.659 17.8235 128.306 17.8235C129.954 17.8235 131.29 19.1535 131.29 20.7941Z" fill="#ECEFF1"/>
<path d="M149.194 20.7941C149.194 22.4347 147.858 23.7647 146.21 23.7647C144.562 23.7647 143.226 22.4347 143.226 20.7941C143.226 19.1535 144.562 17.8235 146.21 17.8235C147.858 17.8235 149.194 19.1535 149.194 20.7941Z" fill="#ECEFF1"/>
<path d="M167.097 20.7941C167.097 22.4347 165.761 23.7647 164.113 23.7647C162.465 23.7647 161.129 22.4347 161.129 20.7941C161.129 19.1535 162.465 17.8235 164.113 17.8235C165.761 17.8235 167.097 19.1535 167.097 20.7941Z" fill="#ECEFF1"/>
<path d="M185 20.7941C185 22.4347 183.664 23.7647 182.016 23.7647C180.368 23.7647 179.032 22.4347 179.032 20.7941C179.032 19.1535 180.368 17.8235 182.016 17.8235C183.664 17.8235 185 19.1535 185 20.7941Z" fill="#ECEFF1"/>
<path d="M5.96774 38.6176C5.96774 40.2583 4.63182 41.5882 2.98387 41.5882C1.33592 41.5882 0 40.2583 0 38.6176C0 36.977 1.33592 35.6471 2.98387 35.6471C4.63182 35.6471 5.96774 36.977 5.96774 38.6176Z" fill="#ECEFF1"/>
<path d="M23.871 38.6176C23.871 40.2583 22.535 41.5882 20.8871 41.5882C19.2392 41.5882 17.9032 40.2583 17.9032 38.6176C17.9032 36.977 19.2392 35.6471 20.8871 35.6471C22.535 35.6471 23.871 36.977 23.871 38.6176Z" fill="#ECEFF1"/>
<path d="M41.7742 38.6176C41.7742 40.2583 40.4383 41.5882 38.7903 41.5882C37.1424 41.5882 35.8065 40.2583 35.8065 38.6176C35.8065 36.977 37.1424 35.6471 38.7903 35.6471C40.4383 35.6471 41.7742 36.977 41.7742 38.6176Z" fill="#ECEFF1"/>
<path d="M59.6774 38.6176C59.6774 40.2583 58.3415 41.5882 56.6936 41.5882C55.0456 41.5882 53.7097 40.2583 53.7097 38.6176C53.7097 36.977 55.0456 35.6471 56.6936 35.6471C58.3415 35.6471 59.6774 36.977 59.6774 38.6176Z" fill="#ECEFF1"/>
<path d="M77.5807 38.6176C77.5807 40.2583 76.2447 41.5882 74.5968 41.5882C72.9488 41.5882 71.6129 40.2583 71.6129 38.6176C71.6129 36.977 72.9488 35.6471 74.5968 35.6471C76.2447 35.6471 77.5807 36.977 77.5807 38.6176Z" fill="#ECEFF1"/>
<path d="M95.4839 38.6176C95.4839 40.2583 94.1479 41.5882 92.5 41.5882C90.8521 41.5882 89.5161 40.2583 89.5161 38.6176C89.5161 36.977 90.8521 35.6471 92.5 35.6471C94.1479 35.6471 95.4839 36.977 95.4839 38.6176Z" fill="#ECEFF1"/>
<path d="M113.387 38.6176C113.387 40.2583 112.051 41.5882 110.403 41.5882C108.755 41.5882 107.419 40.2583 107.419 38.6176C107.419 36.977 108.755 35.6471 110.403 35.6471C112.051 35.6471 113.387 36.977 113.387 38.6176Z" fill="#ECEFF1"/>
<path d="M131.29 38.6176C131.29 40.2583 129.954 41.5882 128.306 41.5882C126.659 41.5882 125.323 40.2583 125.323 38.6176C125.323 36.977 126.659 35.6471 128.306 35.6471C129.954 35.6471 131.29 36.977 131.29 38.6176Z" fill="#ECEFF1"/>
<path d="M149.194 38.6176C149.194 40.2583 147.858 41.5882 146.21 41.5882C144.562 41.5882 143.226 40.2583 143.226 38.6176C143.226 36.977 144.562 35.6471 146.21 35.6471C147.858 35.6471 149.194 36.977 149.194 38.6176Z" fill="#ECEFF1"/>
<path d="M167.097 38.6176C167.097 40.2583 165.761 41.5882 164.113 41.5882C162.465 41.5882 161.129 40.2583 161.129 38.6176C161.129 36.977 162.465 35.6471 164.113 35.6471C165.761 35.6471 167.097 36.977 167.097 38.6176Z" fill="#ECEFF1"/>
<path d="M185 38.6176C185 40.2583 183.664 41.5882 182.016 41.5882C180.368 41.5882 179.032 40.2583 179.032 38.6176C179.032 36.977 180.368 35.6471 182.016 35.6471C183.664 35.6471 185 36.977 185 38.6176Z" fill="#ECEFF1"/>
<path d="M5.96774 56.4412C5.96774 58.0818 4.63182 59.4118 2.98387 59.4118C1.33592 59.4118 0 58.0818 0 56.4412C0 54.8006 1.33592 53.4706 2.98387 53.4706C4.63182 53.4706 5.96774 54.8006 5.96774 56.4412Z" fill="#ECEFF1"/>
<path d="M23.871 56.4412C23.871 58.0818 22.535 59.4118 20.8871 59.4118C19.2392 59.4118 17.9032 58.0818 17.9032 56.4412C17.9032 54.8006 19.2392 53.4706 20.8871 53.4706C22.535 53.4706 23.871 54.8006 23.871 56.4412Z" fill="#ECEFF1"/>
<path d="M41.7742 56.4412C41.7742 58.0818 40.4383 59.4118 38.7903 59.4118C37.1424 59.4118 35.8065 58.0818 35.8065 56.4412C35.8065 54.8006 37.1424 53.4706 38.7903 53.4706C40.4383 53.4706 41.7742 54.8006 41.7742 56.4412Z" fill="#ECEFF1"/>
<path d="M59.6774 56.4412C59.6774 58.0818 58.3415 59.4118 56.6936 59.4118C55.0456 59.4118 53.7097 58.0818 53.7097 56.4412C53.7097 54.8006 55.0456 53.4706 56.6936 53.4706C58.3415 53.4706 59.6774 54.8006 59.6774 56.4412Z" fill="#ECEFF1"/>
<path d="M77.5807 56.4412C77.5807 58.0818 76.2447 59.4118 74.5968 59.4118C72.9488 59.4118 71.6129 58.0818 71.6129 56.4412C71.6129 54.8006 72.9488 53.4706 74.5968 53.4706C76.2447 53.4706 77.5807 54.8006 77.5807 56.4412Z" fill="#ECEFF1"/>
<path d="M95.4839 56.4412C95.4839 58.0818 94.1479 59.4118 92.5 59.4118C90.8521 59.4118 89.5161 58.0818 89.5161 56.4412C89.5161 54.8006 90.8521 53.4706 92.5 53.4706C94.1479 53.4706 95.4839 54.8006 95.4839 56.4412Z" fill="#ECEFF1"/>
<path d="M113.387 56.4412C113.387 58.0818 112.051 59.4118 110.403 59.4118C108.755 59.4118 107.419 58.0818 107.419 56.4412C107.419 54.8006 108.755 53.4706 110.403 53.4706C112.051 53.4706 113.387 54.8006 113.387 56.4412Z" fill="#ECEFF1"/>
<path d="M131.29 56.4412C131.29 58.0818 129.954 59.4118 128.306 59.4118C126.659 59.4118 125.323 58.0818 125.323 56.4412C125.323 54.8006 126.659 53.4706 128.306 53.4706C129.954 53.4706 131.29 54.8006 131.29 56.4412Z" fill="#ECEFF1"/>
<path d="M149.194 56.4412C149.194 58.0818 147.858 59.4118 146.21 59.4118C144.562 59.4118 143.226 58.0818 143.226 56.4412C143.226 54.8006 144.562 53.4706 146.21 53.4706C147.858 53.4706 149.194 54.8006 149.194 56.4412Z" fill="#ECEFF1"/>
<path d="M167.097 56.4412C167.097 58.0818 165.761 59.4118 164.113 59.4118C162.465 59.4118 161.129 58.0818 161.129 56.4412C161.129 54.8006 162.465 53.4706 164.113 53.4706C165.761 53.4706 167.097 54.8006 167.097 56.4412Z" fill="#ECEFF1"/>
<path d="M185 56.4412C185 58.0818 183.664 59.4118 182.016 59.4118C180.368 59.4118 179.032 58.0818 179.032 56.4412C179.032 54.8006 180.368 53.4706 182.016 53.4706C183.664 53.4706 185 54.8006 185 56.4412Z" fill="#ECEFF1"/>
<path d="M5.96774 74.2647C5.96774 75.9053 4.63182 77.2353 2.98387 77.2353C1.33592 77.2353 0 75.9053 0 74.2647C0 72.6241 1.33592 71.2941 2.98387 71.2941C4.63182 71.2941 5.96774 72.6241 5.96774 74.2647Z" fill="#ECEFF1"/>
<path d="M23.871 74.2647C23.871 75.9053 22.535 77.2353 20.8871 77.2353C19.2392 77.2353 17.9032 75.9053 17.9032 74.2647C17.9032 72.6241 19.2392 71.2941 20.8871 71.2941C22.535 71.2941 23.871 72.6241 23.871 74.2647Z" fill="#ECEFF1"/>
<path d="M41.7742 74.2647C41.7742 75.9053 40.4383 77.2353 38.7903 77.2353C37.1424 77.2353 35.8065 75.9053 35.8065 74.2647C35.8065 72.6241 37.1424 71.2941 38.7903 71.2941C40.4383 71.2941 41.7742 72.6241 41.7742 74.2647Z" fill="#ECEFF1"/>
<path d="M59.6774 74.2647C59.6774 75.9053 58.3415 77.2353 56.6936 77.2353C55.0456 77.2353 53.7097 75.9053 53.7097 74.2647C53.7097 72.6241 55.0456 71.2941 56.6936 71.2941C58.3415 71.2941 59.6774 72.6241 59.6774 74.2647Z" fill="#ECEFF1"/>
<path d="M77.5807 74.2647C77.5807 75.9053 76.2447 77.2353 74.5968 77.2353C72.9488 77.2353 71.6129 75.9053 71.6129 74.2647C71.6129 72.6241 72.9488 71.2941 74.5968 71.2941C76.2447 71.2941 77.5807 72.6241 77.5807 74.2647Z" fill="#ECEFF1"/>
<path d="M95.4839 74.2647C95.4839 75.9053 94.1479 77.2353 92.5 77.2353C90.8521 77.2353 89.5161 75.9053 89.5161 74.2647C89.5161 72.6241 90.8521 71.2941 92.5 71.2941C94.1479 71.2941 95.4839 72.6241 95.4839 74.2647Z" fill="#ECEFF1"/>
<path d="M113.387 74.2647C113.387 75.9053 112.051 77.2353 110.403 77.2353C108.755 77.2353 107.419 75.9053 107.419 74.2647C107.419 72.6241 108.755 71.2941 110.403 71.2941C112.051 71.2941 113.387 72.6241 113.387 74.2647Z" fill="#ECEFF1"/>
<path d="M131.29 74.2647C131.29 75.9053 129.954 77.2353 128.306 77.2353C126.659 77.2353 125.323 75.9053 125.323 74.2647C125.323 72.6241 126.659 71.2941 128.306 71.2941C129.954 71.2941 131.29 72.6241 131.29 74.2647Z" fill="#ECEFF1"/>
<path d="M149.194 74.2647C149.194 75.9053 147.858 77.2353 146.21 77.2353C144.562 77.2353 143.226 75.9053 143.226 74.2647C143.226 72.6241 144.562 71.2941 146.21 71.2941C147.858 71.2941 149.194 72.6241 149.194 74.2647Z" fill="#ECEFF1"/>
<path d="M167.097 74.2647C167.097 75.9053 165.761 77.2353 164.113 77.2353C162.465 77.2353 161.129 75.9053 161.129 74.2647C161.129 72.6241 162.465 71.2941 164.113 71.2941C165.761 71.2941 167.097 72.6241 167.097 74.2647Z" fill="#ECEFF1"/>
<path d="M185 74.2647C185 75.9053 183.664 77.2353 182.016 77.2353C180.368 77.2353 179.032 75.9053 179.032 74.2647C179.032 72.6241 180.368 71.2941 182.016 71.2941C183.664 71.2941 185 72.6241 185 74.2647Z" fill="#ECEFF1"/>
<path d="M5.96774 92.0882C5.96774 93.7288 4.63182 95.0588 2.98387 95.0588C1.33592 95.0588 0 93.7288 0 92.0882C0 90.4476 1.33592 89.1176 2.98387 89.1176C4.63182 89.1176 5.96774 90.4476 5.96774 92.0882Z" fill="#ECEFF1"/>
<path d="M23.871 92.0882C23.871 93.7288 22.535 95.0588 20.8871 95.0588C19.2392 95.0588 17.9032 93.7288 17.9032 92.0882C17.9032 90.4476 19.2392 89.1176 20.8871 89.1176C22.535 89.1176 23.871 90.4476 23.871 92.0882Z" fill="#ECEFF1"/>
<path d="M41.7742 92.0882C41.7742 93.7288 40.4383 95.0588 38.7903 95.0588C37.1424 95.0588 35.8065 93.7288 35.8065 92.0882C35.8065 90.4476 37.1424 89.1176 38.7903 89.1176C40.4383 89.1176 41.7742 90.4476 41.7742 92.0882Z" fill="#ECEFF1"/>
<path d="M59.6774 92.0882C59.6774 93.7288 58.3415 95.0588 56.6936 95.0588C55.0456 95.0588 53.7097 93.7288 53.7097 92.0882C53.7097 90.4476 55.0456 89.1176 56.6936 89.1176C58.3415 89.1176 59.6774 90.4476 59.6774 92.0882Z" fill="#ECEFF1"/>
<path d="M77.5807 92.0882C77.5807 93.7288 76.2447 95.0588 74.5968 95.0588C72.9488 95.0588 71.6129 93.7288 71.6129 92.0882C71.6129 90.4476 72.9488 89.1176 74.5968 89.1176C76.2447 89.1176 77.5807 90.4476 77.5807 92.0882Z" fill="#ECEFF1"/>
<path d="M95.4839 92.0882C95.4839 93.7288 94.1479 95.0588 92.5 95.0588C90.8521 95.0588 89.5161 93.7288 89.5161 92.0882C89.5161 90.4476 90.8521 89.1176 92.5 89.1176C94.1479 89.1176 95.4839 90.4476 95.4839 92.0882Z" fill="#ECEFF1"/>
<path d="M113.387 92.0882C113.387 93.7288 112.051 95.0588 110.403 95.0588C108.755 95.0588 107.419 93.7288 107.419 92.0882C107.419 90.4476 108.755 89.1176 110.403 89.1176C112.051 89.1176 113.387 90.4476 113.387 92.0882Z" fill="#ECEFF1"/>
<path d="M131.29 92.0882C131.29 93.7288 129.954 95.0588 128.306 95.0588C126.659 95.0588 125.323 93.7288 125.323 92.0882C125.323 90.4476 126.659 89.1176 128.306 89.1176C129.954 89.1176 131.29 90.4476 131.29 92.0882Z" fill="#ECEFF1"/>
<path d="M149.194 92.0882C149.194 93.7288 147.858 95.0588 146.21 95.0588C144.562 95.0588 143.226 93.7288 143.226 92.0882C143.226 90.4476 144.562 89.1176 146.21 89.1176C147.858 89.1176 149.194 90.4476 149.194 92.0882Z" fill="#ECEFF1"/>
<path d="M167.097 92.0882C167.097 93.7288 165.761 95.0588 164.113 95.0588C162.465 95.0588 161.129 93.7288 161.129 92.0882C161.129 90.4476 162.465 89.1176 164.113 89.1176C165.761 89.1176 167.097 90.4476 167.097 92.0882Z" fill="#ECEFF1"/>
<path d="M185 92.0882C185 93.7288 183.664 95.0588 182.016 95.0588C180.368 95.0588 179.032 93.7288 179.032 92.0882C179.032 90.4476 180.368 89.1176 182.016 89.1176C183.664 89.1176 185 90.4476 185 92.0882Z" fill="#ECEFF1"/>
<path d="M5.96774 109.912C5.96774 111.552 4.63182 112.882 2.98387 112.882C1.33592 112.882 0 111.552 0 109.912C0 108.271 1.33592 106.941 2.98387 106.941C4.63182 106.941 5.96774 108.271 5.96774 109.912Z" fill="#ECEFF1"/>
<path d="M23.871 109.912C23.871 111.552 22.535 112.882 20.8871 112.882C19.2392 112.882 17.9032 111.552 17.9032 109.912C17.9032 108.271 19.2392 106.941 20.8871 106.941C22.535 106.941 23.871 108.271 23.871 109.912Z" fill="#ECEFF1"/>
<path d="M41.7742 109.912C41.7742 111.552 40.4383 112.882 38.7903 112.882C37.1424 112.882 35.8065 111.552 35.8065 109.912C35.8065 108.271 37.1424 106.941 38.7903 106.941C40.4383 106.941 41.7742 108.271 41.7742 109.912Z" fill="#ECEFF1"/>
<path d="M59.6774 109.912C59.6774 111.552 58.3415 112.882 56.6936 112.882C55.0456 112.882 53.7097 111.552 53.7097 109.912C53.7097 108.271 55.0456 106.941 56.6936 106.941C58.3415 106.941 59.6774 108.271 59.6774 109.912Z" fill="#ECEFF1"/>
<path d="M77.5807 109.912C77.5807 111.552 76.2447 112.882 74.5968 112.882C72.9488 112.882 71.6129 111.552 71.6129 109.912C71.6129 108.271 72.9488 106.941 74.5968 106.941C76.2447 106.941 77.5807 108.271 77.5807 109.912Z" fill="#ECEFF1"/>
<path d="M95.4839 109.912C95.4839 111.552 94.1479 112.882 92.5 112.882C90.8521 112.882 89.5161 111.552 89.5161 109.912C89.5161 108.271 90.8521 106.941 92.5 106.941C94.1479 106.941 95.4839 108.271 95.4839 109.912Z" fill="#ECEFF1"/>
<path d="M113.387 109.912C113.387 111.552 112.051 112.882 110.403 112.882C108.755 112.882 107.419 111.552 107.419 109.912C107.419 108.271 108.755 106.941 110.403 106.941C112.051 106.941 113.387 108.271 113.387 109.912Z" fill="#ECEFF1"/>
<path d="M131.29 109.912C131.29 111.552 129.954 112.882 128.306 112.882C126.659 112.882 125.323 111.552 125.323 109.912C125.323 108.271 126.659 106.941 128.306 106.941C129.954 106.941 131.29 108.271 131.29 109.912Z" fill="#ECEFF1"/>
<path d="M149.194 109.912C149.194 111.552 147.858 112.882 146.21 112.882C144.562 112.882 143.226 111.552 143.226 109.912C143.226 108.271 144.562 106.941 146.21 106.941C147.858 106.941 149.194 108.271 149.194 109.912Z" fill="#ECEFF1"/>
<path d="M167.097 109.912C167.097 111.552 165.761 112.882 164.113 112.882C162.465 112.882 161.129 111.552 161.129 109.912C161.129 108.271 162.465 106.941 164.113 106.941C165.761 106.941 167.097 108.271 167.097 109.912Z" fill="#ECEFF1"/>
<path d="M185 109.912C185 111.552 183.664 112.882 182.016 112.882C180.368 112.882 179.032 111.552 179.032 109.912C179.032 108.271 180.368 106.941 182.016 106.941C183.664 106.941 185 108.271 185 109.912Z" fill="#ECEFF1"/>
<path d="M5.96774 127.735C5.96774 129.376 4.63182 130.706 2.98387 130.706C1.33592 130.706 0 129.376 0 127.735C0 126.095 1.33592 124.765 2.98387 124.765C4.63182 124.765 5.96774 126.095 5.96774 127.735Z" fill="#ECEFF1"/>
<path d="M23.871 127.735C23.871 129.376 22.535 130.706 20.8871 130.706C19.2392 130.706 17.9032 129.376 17.9032 127.735C17.9032 126.095 19.2392 124.765 20.8871 124.765C22.535 124.765 23.871 126.095 23.871 127.735Z" fill="#ECEFF1"/>
<path d="M41.7742 127.735C41.7742 129.376 40.4383 130.706 38.7903 130.706C37.1424 130.706 35.8065 129.376 35.8065 127.735C35.8065 126.095 37.1424 124.765 38.7903 124.765C40.4383 124.765 41.7742 126.095 41.7742 127.735Z" fill="#ECEFF1"/>
<path d="M59.6774 127.735C59.6774 129.376 58.3415 130.706 56.6936 130.706C55.0456 130.706 53.7097 129.376 53.7097 127.735C53.7097 126.095 55.0456 124.765 56.6936 124.765C58.3415 124.765 59.6774 126.095 59.6774 127.735Z" fill="#ECEFF1"/>
<path d="M77.5807 127.735C77.5807 129.376 76.2447 130.706 74.5968 130.706C72.9488 130.706 71.6129 129.376 71.6129 127.735C71.6129 126.095 72.9488 124.765 74.5968 124.765C76.2447 124.765 77.5807 126.095 77.5807 127.735Z" fill="#ECEFF1"/>
<path d="M95.4839 127.735C95.4839 129.376 94.1479 130.706 92.5 130.706C90.8521 130.706 89.5161 129.376 89.5161 127.735C89.5161 126.095 90.8521 124.765 92.5 124.765C94.1479 124.765 95.4839 126.095 95.4839 127.735Z" fill="#ECEFF1"/>
<path d="M113.387 127.735C113.387 129.376 112.051 130.706 110.403 130.706C108.755 130.706 107.419 129.376 107.419 127.735C107.419 126.095 108.755 124.765 110.403 124.765C112.051 124.765 113.387 126.095 113.387 127.735Z" fill="#ECEFF1"/>
<path d="M131.29 127.735C131.29 129.376 129.954 130.706 128.306 130.706C126.659 130.706 125.323 129.376 125.323 127.735C125.323 126.095 126.659 124.765 128.306 124.765C129.954 124.765 131.29 126.095 131.29 127.735Z" fill="#ECEFF1"/>
<path d="M149.194 127.735C149.194 129.376 147.858 130.706 146.21 130.706C144.562 130.706 143.226 129.376 143.226 127.735C143.226 126.095 144.562 124.765 146.21 124.765C147.858 124.765 149.194 126.095 149.194 127.735Z" fill="#ECEFF1"/>
<path d="M167.097 127.735C167.097 129.376 165.761 130.706 164.113 130.706C162.465 130.706 161.129 129.376 161.129 127.735C161.129 126.095 162.465 124.765 164.113 124.765C165.761 124.765 167.097 126.095 167.097 127.735Z" fill="#ECEFF1"/>
<path d="M185 127.735C185 129.376 183.664 130.706 182.016 130.706C180.368 130.706 179.032 129.376 179.032 127.735C179.032 126.095 180.368 124.765 182.016 124.765C183.664 124.765 185 126.095 185 127.735Z" fill="#ECEFF1"/>
<path d="M5.96774 145.559C5.96774 147.199 4.63182 148.529 2.98387 148.529C1.33592 148.529 0 147.199 0 145.559C0 143.918 1.33592 142.588 2.98387 142.588C4.63182 142.588 5.96774 143.918 5.96774 145.559Z" fill="#ECEFF1"/>
<path d="M23.871 145.559C23.871 147.199 22.535 148.529 20.8871 148.529C19.2392 148.529 17.9032 147.199 17.9032 145.559C17.9032 143.918 19.2392 142.588 20.8871 142.588C22.535 142.588 23.871 143.918 23.871 145.559Z" fill="#ECEFF1"/>
<path d="M41.7742 145.559C41.7742 147.199 40.4383 148.529 38.7903 148.529C37.1424 148.529 35.8065 147.199 35.8065 145.559C35.8065 143.918 37.1424 142.588 38.7903 142.588C40.4383 142.588 41.7742 143.918 41.7742 145.559Z" fill="#ECEFF1"/>
<path d="M59.6774 145.559C59.6774 147.199 58.3415 148.529 56.6936 148.529C55.0456 148.529 53.7097 147.199 53.7097 145.559C53.7097 143.918 55.0456 142.588 56.6936 142.588C58.3415 142.588 59.6774 143.918 59.6774 145.559Z" fill="#ECEFF1"/>
<path d="M77.5807 145.559C77.5807 147.199 76.2447 148.529 74.5968 148.529C72.9488 148.529 71.6129 147.199 71.6129 145.559C71.6129 143.918 72.9488 142.588 74.5968 142.588C76.2447 142.588 77.5807 143.918 77.5807 145.559Z" fill="#ECEFF1"/>
<path d="M95.4839 145.559C95.4839 147.199 94.1479 148.529 92.5 148.529C90.8521 148.529 89.5161 147.199 89.5161 145.559C89.5161 143.918 90.8521 142.588 92.5 142.588C94.1479 142.588 95.4839 143.918 95.4839 145.559Z" fill="#ECEFF1"/>
<path d="M113.387 145.559C113.387 147.199 112.051 148.529 110.403 148.529C108.755 148.529 107.419 147.199 107.419 145.559C107.419 143.918 108.755 142.588 110.403 142.588C112.051 142.588 113.387 143.918 113.387 145.559Z" fill="#ECEFF1"/>
<path d="M131.29 145.559C131.29 147.199 129.954 148.529 128.306 148.529C126.659 148.529 125.323 147.199 125.323 145.559C125.323 143.918 126.659 142.588 128.306 142.588C129.954 142.588 131.29 143.918 131.29 145.559Z" fill="#ECEFF1"/>
<path d="M149.194 145.559C149.194 147.199 147.858 148.529 146.21 148.529C144.562 148.529 143.226 147.199 143.226 145.559C143.226 143.918 144.562 142.588 146.21 142.588C147.858 142.588 149.194 143.918 149.194 145.559Z" fill="#ECEFF1"/>
<path d="M167.097 145.559C167.097 147.199 165.761 148.529 164.113 148.529C162.465 148.529 161.129 147.199 161.129 145.559C161.129 143.918 162.465 142.588 164.113 142.588C165.761 142.588 167.097 143.918 167.097 145.559Z" fill="#ECEFF1"/>
<path d="M185 145.559C185 147.199 183.664 148.529 182.016 148.529C180.368 148.529 179.032 147.199 179.032 145.559C179.032 143.918 180.368 142.588 182.016 142.588C183.664 142.588 185 143.918 185 145.559Z" fill="#ECEFF1"/>
<path d="M5.96774 163.382C5.96774 165.023 4.63182 166.353 2.98387 166.353C1.33592 166.353 0 165.023 0 163.382C0 161.742 1.33592 160.412 2.98387 160.412C4.63182 160.412 5.96774 161.742 5.96774 163.382Z" fill="#ECEFF1"/>
<path d="M23.871 163.382C23.871 165.023 22.535 166.353 20.8871 166.353C19.2392 166.353 17.9032 165.023 17.9032 163.382C17.9032 161.742 19.2392 160.412 20.8871 160.412C22.535 160.412 23.871 161.742 23.871 163.382Z" fill="#ECEFF1"/>
<path d="M41.7742 163.382C41.7742 165.023 40.4383 166.353 38.7903 166.353C37.1424 166.353 35.8065 165.023 35.8065 163.382C35.8065 161.742 37.1424 160.412 38.7903 160.412C40.4383 160.412 41.7742 161.742 41.7742 163.382Z" fill="#ECEFF1"/>
<path d="M59.6774 163.382C59.6774 165.023 58.3415 166.353 56.6936 166.353C55.0456 166.353 53.7097 165.023 53.7097 163.382C53.7097 161.742 55.0456 160.412 56.6936 160.412C58.3415 160.412 59.6774 161.742 59.6774 163.382Z" fill="#ECEFF1"/>
<path d="M77.5807 163.382C77.5807 165.023 76.2447 166.353 74.5968 166.353C72.9488 166.353 71.6129 165.023 71.6129 163.382C71.6129 161.742 72.9488 160.412 74.5968 160.412C76.2447 160.412 77.5807 161.742 77.5807 163.382Z" fill="#ECEFF1"/>
<path d="M95.4839 163.382C95.4839 165.023 94.1479 166.353 92.5 166.353C90.8521 166.353 89.5161 165.023 89.5161 163.382C89.5161 161.742 90.8521 160.412 92.5 160.412C94.1479 160.412 95.4839 161.742 95.4839 163.382Z" fill="#ECEFF1"/>
<path d="M113.387 163.382C113.387 165.023 112.051 166.353 110.403 166.353C108.755 166.353 107.419 165.023 107.419 163.382C107.419 161.742 108.755 160.412 110.403 160.412C112.051 160.412 113.387 161.742 113.387 163.382Z" fill="#ECEFF1"/>
<path d="M131.29 163.382C131.29 165.023 129.954 166.353 128.306 166.353C126.659 166.353 125.323 165.023 125.323 163.382C125.323 161.742 126.659 160.412 128.306 160.412C129.954 160.412 131.29 161.742 131.29 163.382Z" fill="#ECEFF1"/>
<path d="M149.194 163.382C149.194 165.023 147.858 166.353 146.21 166.353C144.562 166.353 143.226 165.023 143.226 163.382C143.226 161.742 144.562 160.412 146.21 160.412C147.858 160.412 149.194 161.742 149.194 163.382Z" fill="#ECEFF1"/>
<path d="M167.097 163.382C167.097 165.023 165.761 166.353 164.113 166.353C162.465 166.353 161.129 165.023 161.129 163.382C161.129 161.742 162.465 160.412 164.113 160.412C165.761 160.412 167.097 161.742 167.097 163.382Z" fill="#ECEFF1"/>
<path d="M185 163.382C185 165.023 183.664 166.353 182.016 166.353C180.368 166.353 179.032 165.023 179.032 163.382C179.032 161.742 180.368 160.412 182.016 160.412C183.664 160.412 185 161.742 185 163.382Z" fill="#ECEFF1"/>
<path d="M5.96774 181.206C5.96774 182.846 4.63182 184.176 2.98387 184.176C1.33592 184.176 0 182.846 0 181.206C0 179.565 1.33592 178.235 2.98387 178.235C4.63182 178.235 5.96774 179.565 5.96774 181.206Z" fill="#ECEFF1"/>
<path d="M23.871 181.206C23.871 182.846 22.535 184.176 20.8871 184.176C19.2392 184.176 17.9032 182.846 17.9032 181.206C17.9032 179.565 19.2392 178.235 20.8871 178.235C22.535 178.235 23.871 179.565 23.871 181.206Z" fill="#ECEFF1"/>
<path d="M41.7742 181.206C41.7742 182.846 40.4383 184.176 38.7903 184.176C37.1424 184.176 35.8065 182.846 35.8065 181.206C35.8065 179.565 37.1424 178.235 38.7903 178.235C40.4383 178.235 41.7742 179.565 41.7742 181.206Z" fill="#ECEFF1"/>
<path d="M59.6774 181.206C59.6774 182.846 58.3415 184.176 56.6936 184.176C55.0456 184.176 53.7097 182.846 53.7097 181.206C53.7097 179.565 55.0456 178.235 56.6936 178.235C58.3415 178.235 59.6774 179.565 59.6774 181.206Z" fill="#ECEFF1"/>
<path d="M77.5807 181.206C77.5807 182.846 76.2447 184.176 74.5968 184.176C72.9488 184.176 71.6129 182.846 71.6129 181.206C71.6129 179.565 72.9488 178.235 74.5968 178.235C76.2447 178.235 77.5807 179.565 77.5807 181.206Z" fill="#ECEFF1"/>
<path d="M95.4839 181.206C95.4839 182.846 94.1479 184.176 92.5 184.176C90.8521 184.176 89.5161 182.846 89.5161 181.206C89.5161 179.565 90.8521 178.235 92.5 178.235C94.1479 178.235 95.4839 179.565 95.4839 181.206Z" fill="#ECEFF1"/>
<path d="M113.387 181.206C113.387 182.846 112.051 184.176 110.403 184.176C108.755 184.176 107.419 182.846 107.419 181.206C107.419 179.565 108.755 178.235 110.403 178.235C112.051 178.235 113.387 179.565 113.387 181.206Z" fill="#ECEFF1"/>
<path d="M131.29 181.206C131.29 182.846 129.954 184.176 128.306 184.176C126.659 184.176 125.323 182.846 125.323 181.206C125.323 179.565 126.659 178.235 128.306 178.235C129.954 178.235 131.29 179.565 131.29 181.206Z" fill="#ECEFF1"/>
<path d="M149.194 181.206C149.194 182.846 147.858 184.176 146.21 184.176C144.562 184.176 143.226 182.846 143.226 181.206C143.226 179.565 144.562 178.235 146.21 178.235C147.858 178.235 149.194 179.565 149.194 181.206Z" fill="#ECEFF1"/>
<path d="M167.097 181.206C167.097 182.846 165.761 184.176 164.113 184.176C162.465 184.176 161.129 182.846 161.129 181.206C161.129 179.565 162.465 178.235 164.113 178.235C165.761 178.235 167.097 179.565 167.097 181.206Z" fill="#ECEFF1"/>
<path d="M185 181.206C185 182.846 183.664 184.176 182.016 184.176C180.368 184.176 179.032 182.846 179.032 181.206C179.032 179.565 180.368 178.235 182.016 178.235C183.664 178.235 185 179.565 185 181.206Z" fill="#ECEFF1"/>
<path d="M5.96774 199.029C5.96774 200.67 4.63182 202 2.98387 202C1.33592 202 0 200.67 0 199.029C0 197.389 1.33592 196.059 2.98387 196.059C4.63182 196.059 5.96774 197.389 5.96774 199.029Z" fill="#ECEFF1"/>
<path d="M23.871 199.029C23.871 200.67 22.535 202 20.8871 202C19.2392 202 17.9032 200.67 17.9032 199.029C17.9032 197.389 19.2392 196.059 20.8871 196.059C22.535 196.059 23.871 197.389 23.871 199.029Z" fill="#ECEFF1"/>
<path d="M41.7742 199.029C41.7742 200.67 40.4383 202 38.7903 202C37.1424 202 35.8065 200.67 35.8065 199.029C35.8065 197.389 37.1424 196.059 38.7903 196.059C40.4383 196.059 41.7742 197.389 41.7742 199.029Z" fill="#ECEFF1"/>
<path d="M59.6774 199.029C59.6774 200.67 58.3415 202 56.6936 202C55.0456 202 53.7097 200.67 53.7097 199.029C53.7097 197.389 55.0456 196.059 56.6936 196.059C58.3415 196.059 59.6774 197.389 59.6774 199.029Z" fill="#ECEFF1"/>
<path d="M77.5807 199.029C77.5807 200.67 76.2447 202 74.5968 202C72.9488 202 71.6129 200.67 71.6129 199.029C71.6129 197.389 72.9488 196.059 74.5968 196.059C76.2447 196.059 77.5807 197.389 77.5807 199.029Z" fill="#ECEFF1"/>
<path d="M95.4839 199.029C95.4839 200.67 94.1479 202 92.5 202C90.8521 202 89.5161 200.67 89.5161 199.029C89.5161 197.389 90.8521 196.059 92.5 196.059C94.1479 196.059 95.4839 197.389 95.4839 199.029Z" fill="#ECEFF1"/>
<path d="M113.387 199.029C113.387 200.67 112.051 202 110.403 202C108.755 202 107.419 200.67 107.419 199.029C107.419 197.389 108.755 196.059 110.403 196.059C112.051 196.059 113.387 197.389 113.387 199.029Z" fill="#ECEFF1"/>
<path d="M131.29 199.029C131.29 200.67 129.954 202 128.306 202C126.659 202 125.323 200.67 125.323 199.029C125.323 197.389 126.659 196.059 128.306 196.059C129.954 196.059 131.29 197.389 131.29 199.029Z" fill="#ECEFF1"/>
<path d="M149.194 199.029C149.194 200.67 147.858 202 146.21 202C144.562 202 143.226 200.67 143.226 199.029C143.226 197.389 144.562 196.059 146.21 196.059C147.858 196.059 149.194 197.389 149.194 199.029Z" fill="#ECEFF1"/>
<path d="M167.097 199.029C167.097 200.67 165.761 202 164.113 202C162.465 202 161.129 200.67 161.129 199.029C161.129 197.389 162.465 196.059 164.113 196.059C165.761 196.059 167.097 197.389 167.097 199.029Z" fill="#ECEFF1"/>
<path d="M185 199.029C185 200.67 183.664 202 182.016 202C180.368 202 179.032 200.67 179.032 199.029C179.032 197.389 180.368 196.059 182.016 196.059C183.664 196.059 185 197.389 185 199.029Z" fill="#ECEFF1"/>
</svg>
