<svg width="1105" height="193" viewBox="0 0 1105 193" fill="none" xmlns="http://www.w3.org/2000/svg">
<g clip-path="url(#clip0_4_532)">
<path d="M407.89 192.11C402.77 192.07 397.64 191.99 392.52 192.01C390.29 192.02 388.07 192.05 385.88 191.6C344.58 185.41 312.47 156.29 303.63 117.05C292.1 65.85 321.03 17.98 372 3.84C379 1.9 386.14 0.83 393.34 0.11C393.71 0.31 394.05 0.27 394.36 0C398.37 0 402.38 0 406.38 0C406.86 0.33 407.36 0.35 407.88 0.0899999C416.68 0.92 425.39 2.26 433.75 5.21C467.17 16.97 488.99 39.59 498.01 74C500.73 84.38 500.63 94.94 499.48 105.61C497.89 120.38 493.45 134.13 485.34 146.49C469.38 170.8 447 185.73 418.28 191.09C414.83 191.74 411.38 192.05 407.89 192.11ZM400.09 50.12C376.3 49.76 355.71 69.22 354.97 92.12C354.02 121.75 375.95 140.01 397.89 141.22C425.18 142.73 446.12 120.65 446.77 95.15C447.39 70.78 426.11 50.51 400.09 50.12Z" fill="#0A2C5D"/>
<path d="M743.74 1.13C746.4 1.39 749.05 1.39 751.71 1.13C754.38 1.42 757.06 1.42 759.73 1.13C761.73 1.2 763.73 1.28 765.73 1.35C767.13 2.14 768.78 1.78001 770.24 2.30001C770.75 2.31001 771.26 2.31001 771.77 2.32001C772.04 2.63001 772.36 2.72 772.75 2.56C773.25 2.65 773.76 2.75001 774.26 2.84001C774.53 3.16001 774.85 3.28 775.25 3.12C775.59 3.19 775.92 3.26 776.26 3.33C776.52 3.65 776.84 3.78 777.25 3.62C778.75 4.02 780.26 4.42001 781.76 4.82001C782.99 5.55 784.33 5.94 785.75 6.12C786.66 6.47 787.56 6.81001 788.47 7.16001C788.81 7.53001 789.22 7.76001 789.75 7.65001C793.36 9.3 796.97 10.94 800.58 12.59C800.84 13.03 801.24 13.24 801.75 13.22C814.06 20.5 824.81 29.51 833.34 41.08C846.65 59.14 851.97 79.42 850.49 101.61C849.08 122.64 841.68 141.38 828.44 157.77C815.56 173.7 798.89 183.81 779.08 188.74C751.15 195.68 724.22 193.01 699.09 178.68C674.41 164.61 659.71 143.02 654.29 115.31C650.91 97.98 651.13 80.63 657.04 63.75C664.8 41.62 679.99 25.77 699.98 14.12C706.99 10.03 714.5 7.11 722.2 4.62C722.73 4.77 723.14 4.54 723.5 4.19001C724.23 3.99001 724.97 3.79 725.7 3.6C726.1 3.75001 726.42 3.63 726.68 3.31C727.02 3.25001 727.36 3.19001 727.7 3.13001C728.1 3.30001 728.42 3.18 728.69 2.87C729.19 2.79 729.69 2.71001 730.2 2.63001C730.59 2.81001 730.92 2.7 731.2 2.39C731.88 2.29 732.55 2.2 733.23 2.1C733.62 2.31 733.93 2.22 734.2 1.88C734.71 1.85 735.22 1.82 735.72 1.79C738.39 1.57 741.07 1.35 743.74 1.13ZM797.22 95.13C797.24 70.5 776.32 50.58 750.43 50.58C726.24 50.58 705.69 71.23 705.67 95.56C705.65 120.85 726.83 142.44 751.35 142.4C777.37 142.37 797.11 119.83 797.22 95.13Z" fill="#0A2C5D"/>
<path d="M566.79 3.37004C567.46 3.24004 568.13 3.11004 568.8 2.98004C571.13 2.92004 573.46 2.85004 575.79 2.79004C578.47 2.96004 581.15 3.14004 583.83 3.31004C585.16 3.36004 586.49 3.41004 587.82 3.46004C588.1 3.79004 588.43 3.86004 588.81 3.63004C604.39 5.84004 618.92 11.25 633.04 17.96C634.5 18.66 634.75 19.24 633.95 20.72C627.32 32.99 620.75 45.3 614.23 57.63C613.46 59.08 612.82 59.23 611.38 58.49C605.1 55.28 599.06 51.54 592.32 49.26C586.07 47.15 579.82 46.87 573.51 49.07C566.03 51.68 565.97 59.09 568.99 63.97C569.64 65.03 570.77 65.44 571.78 65.99C580.15 70.54 589.25 73.25 598.16 76.44C603.56 78.38 608.88 80.49 614.09 82.91C626.9 88.87 634.73 98.81 637.93 112.41C642.66 132.5 639.79 151.32 627.48 168.18C620.92 177.16 611.69 182.73 601.34 186.52C589.31 190.92 576.81 191.87 564.09 191.86C542.2 191.84 523.67 182.52 505.61 171.66C504.4 170.93 504.56 170.32 505.05 169.33C511.62 156.04 518.28 142.81 525.12 129.66C525.96 128.04 526.59 128.21 527.87 129.08C533.36 132.82 538.75 136.71 544.46 140.13C553.2 145.37 562.58 147.97 572.76 146.64C581.99 145.43 587.16 138.73 584.8 129.55C584.34 127.77 583.4 126.51 581.78 125.54C574.46 121.17 566.43 118.5 558.42 115.8C550.17 113.02 541.85 110.45 534.17 106.24C522.99 100.11 515.3 91.34 513.59 78.32C512.57 70.56 512.8 62.76 513.28 54.94C513.78 46.82 515.65 39.13 519.93 32.27C530.56 15.2 545.65 5.03004 566.09 3.52004C566.31 3.52004 566.55 3.43004 566.79 3.37004Z" fill="#0A2C5D"/>
<path d="M210.783 7.13C227.618 7.13 241.619 9.19681 252.785 13.3304C263.952 17.3797 272.327 23.4535 277.911 31.552C283.579 39.6505 286.413 49.7315 286.413 61.7948C286.413 69.3028 285.144 76.1359 282.606 82.2942C280.068 88.4524 276.43 93.9779 271.693 98.8708C267.04 103.679 261.457 107.897 254.943 111.525L309 192.13H252.151L212.813 124.811H200.124V192.13H150V7.13H210.783ZM210.022 44.9652H200.124V87.2292H209.514C217.212 87.2292 223.515 85.542 228.421 82.1676C233.328 78.7933 235.781 72.7616 235.781 64.0726C235.781 58.083 233.751 53.4011 229.69 50.0267C225.63 46.6524 219.073 44.9652 210.022 44.9652Z" fill="#0A2C5D"/>
<path d="M65.8134 7.13C89.9189 7.13 107.955 12.2337 119.921 22.4412C131.974 32.6487 138 47.1585 138 65.9706C138 74.4066 136.743 82.5051 134.228 90.2661C131.8 98.0272 127.768 104.945 122.132 111.019C116.582 117.092 109.169 121.901 99.8907 125.444C90.6993 128.987 79.3402 130.759 65.8134 130.759H51.3761V192.13H0V7.13H65.8134ZM64.6428 47.4959H51.3761V90.013H61.5212C65.9435 90.013 70.0622 89.296 73.8775 87.8619C77.6927 86.3434 80.7276 83.9392 82.9821 80.6492C85.3233 77.2748 86.4939 72.8037 86.4939 67.236C86.4939 61.4152 84.7163 56.6911 81.1612 53.0637C77.606 49.3518 72.0999 47.4959 64.6428 47.4959Z" fill="#0A2C5D"/>
<path d="M863.56 102.2C863.56 73.28 863.59 44.37 863.51 15.45C863.5 13.15 864 12.35 866.48 12.33C899.71 12.02 932.94 12.22 966.17 12.44C968.26 12.45 968.79 13.04 968.78 15.09C968.69 28.55 968.68 42.01 968.78 55.47C968.79 57.49 968.2 57.97 966.25 57.9C950.02 57.3 933.77 57.68 917.54 57.47C915.47 57.44 914.82 58.01 914.85 60.08C914.94 65.73 914.9 71.38 914.73 77.03C914.67 78.99 915.21 79.54 917.2 79.51C931.77 79.28 946.35 79.23 960.92 78.98C963.27 78.94 963.79 79.63 963.79 81.87C963.81 95.16 963.94 108.46 964.15 121.75C964.18 123.77 963.58 124.25 961.62 124.24C947.05 124.16 932.47 124.23 917.9 124.15C915.89 124.14 915.26 124.59 915.21 126.71C914.81 147.65 914.68 168.58 914.78 189.52C914.79 191.6 914.26 192.12 912.18 192.1C897.02 192.01 881.87 191.99 866.71 192.11C864.21 192.13 863.41 191.63 863.42 188.94C863.53 160.02 863.49 131.11 863.49 102.19C863.52 102.2 863.54 102.2 863.56 102.2Z" fill="#0A2C5D"/>
<path d="M1104.58 11.5301C1104.61 14.1901 1104.64 16.8401 1104.67 19.5001C1104.67 22.1701 1104.67 24.8401 1104.67 27.5101C1104.67 30.1601 1104.67 32.8101 1104.67 35.4601C1104.67 38.1301 1104.67 40.8001 1104.67 43.4701C1104.67 46.1201 1104.67 48.7701 1104.67 51.4201C1104.63 53.0801 1104.6 54.7401 1104.56 56.4001C1098.15 56.4601 1091.75 56.5101 1085.34 56.5901C1084.43 56.6001 1083.52 56.7301 1082.62 56.8001C1080.44 56.5101 1078.26 56.5901 1076.1 56.9701C1068.68 56.5601 1068.69 56.5601 1068.68 63.9101C1068.64 105.54 1068.58 147.17 1068.61 188.8C1068.61 191.12 1067.96 191.63 1065.74 191.61C1050.5 191.5 1035.26 191.49 1020.02 191.57C1017.99 191.58 1017.58 190.96 1017.58 189.06C1017.49 145.85 1017.31 102.65 1017.26 59.4401C1017.26 57.0101 1016.64 56.4401 1014.25 56.4701C1003.59 56.6001 992.93 56.4301 982.27 56.5601C979.86 56.5901 979.41 55.7901 979.42 53.6101C979.49 39.9001 979.42 26.1901 979.39 12.4801C979.61 12.2601 979.83 12.0501 980.06 11.8301C986.08 11.7401 992.09 11.6501 998.11 11.5701C1000.61 11.8401 1003.09 11.8201 1005.58 11.4301C1006.57 11.4601 1007.57 11.5101 1008.56 11.5101C1040.07 11.5001 1071.58 11.4801 1103.09 11.4601C1103.59 11.4501 1104.08 11.5001 1104.58 11.5301Z" fill="#0A2C5D"/>
</g>
<defs>
<clipPath id="clip0_4_532">
<rect width="1104.67" height="192.408" fill="white"/>
</clipPath>
</defs>
</svg>
