<svg width="174" height="41" viewBox="0 0 174 41" fill="none" xmlns="http://www.w3.org/2000/svg">
<path d="M20.7938 4.37121C21.1207 3.83069 21.3976 3.38773 21.6586 2.93686C22.2703 1.86901 23.4542 1.85582 24.1687 2.23287C25.0177 2.67846 25.4528 3.79641 24.8885 4.77989C23.7837 6.70466 22.6948 8.63998 21.5874 10.5647C20.3403 12.7321 19.0667 14.8862 17.8381 17.0641C17.1604 18.2638 17.1894 18.2612 18.5684 18.2849C19.8604 18.306 21.1576 18.1794 22.4443 18.3877C23.9868 18.6409 24.965 19.6481 25.0388 21.0745C25.0757 21.7732 24.8358 22.0554 24.1318 22.0554C18.7925 22.0606 13.4559 22.0659 8.11665 22.0527C6.89851 22.0501 6.10224 21.2749 6.0996 20.1807C6.09696 19.0548 6.92224 18.2876 8.15357 18.2796C9.42708 18.2717 10.7032 18.2665 11.9767 18.2849C12.541 18.2928 12.9259 18.0713 13.2054 17.5862C14.8823 14.6595 16.5593 11.7328 18.2652 8.82191C18.5605 8.3183 18.55 7.92544 18.2415 7.44293C17.7247 6.63347 17.258 5.78973 16.7887 4.94864C16.198 3.89397 16.4538 2.77338 17.3819 2.2566C18.3601 1.71081 19.4596 2.05621 20.066 3.09769C20.2928 3.49319 20.5169 3.89133 20.7938 4.37121Z" fill="#FCFCFC"/>
<path d="M32.5248 22.0582C32.1319 22.1188 31.4385 21.8341 31.2433 22.1821C31.0166 22.5908 31.6072 23.0417 31.8234 23.482C32.124 24.0884 32.5063 24.6527 32.8148 25.2538C33.3079 26.2136 32.9651 27.2577 32.0159 27.7719C31.1906 28.2201 30.0568 27.9142 29.5532 27.0652C28.5961 25.4463 27.668 23.8142 26.7294 22.1848C25.5059 20.0649 24.2298 17.974 23.0723 15.8172C22.0677 13.9425 21.6221 11.9703 22.7902 9.96115C23.2806 9.11742 23.5258 9.12005 24.0162 9.96906C25.4479 12.4475 26.8849 14.926 28.2876 17.4203C28.633 18.0346 29.0206 18.3484 29.78 18.3009C30.9823 18.2271 32.1925 18.2746 33.4001 18.2825C34.6315 18.293 35.5016 19.0629 35.5121 20.1387C35.5227 21.2514 34.6341 22.0556 33.3896 22.0582C33.1286 22.0582 32.8649 22.0582 32.5248 22.0582Z" fill="#FCFCFC"/>
<path d="M10.4555 28.0091C9.02639 27.9828 8.10883 26.4588 8.74691 25.2591C9.09231 24.6078 9.49836 23.9882 9.85694 23.3422C10.1971 22.7252 10.7534 22.5064 11.3968 22.5539C12.0269 22.5987 12.6386 22.778 13.1791 23.1366C13.6696 23.4609 13.841 23.8854 13.5404 24.4233C13.0183 25.3514 12.5042 26.2847 11.9452 27.1891C11.5998 27.7428 11.0434 27.9933 10.4555 28.0091Z" fill="#FCFCFC"/>
<path d="M13.2109 38.8326C13.2109 39.4733 13.2003 40.0429 13.2161 40.6124C13.2241 40.905 13.1028 40.9973 12.8286 40.9973C12.557 40.9973 12.4383 40.9103 12.441 40.6177C12.4515 38.8194 12.4462 37.0212 12.4436 35.2204C12.4436 35.0095 12.4462 34.875 12.7389 34.8433C13.174 34.7959 13.1555 35.0991 13.2109 35.3628C14.5846 34.5691 15.7632 34.6535 16.5357 35.5816C17.2476 36.4385 17.2292 37.8544 16.4935 38.6771C15.7183 39.5419 14.4949 39.6184 13.2109 38.8326ZM16.2773 37.0687C16.2668 36.1432 15.6234 35.492 14.727 35.4972C13.8305 35.5025 13.2135 36.159 13.2161 37.103C13.2188 38.0864 13.841 38.714 14.7929 38.6982C15.6841 38.6797 16.2879 38.0179 16.2773 37.0687Z" fill="#F5F5F5"/>
<path d="M7.46829 35.4181C8.73389 34.5902 10.0179 34.643 10.7852 35.5131C11.5208 36.3489 11.5314 37.8149 10.8089 38.6612C10.068 39.5287 8.80244 39.6184 7.48147 38.8168C7.48147 39.4338 7.4762 39.9848 7.48411 40.5359C7.48674 40.7969 7.49202 41.0052 7.12288 41C6.74848 40.9973 6.76957 40.7758 6.76957 40.5227C6.77221 38.8326 6.76166 37.1425 6.78275 35.4524C6.78539 35.2547 6.56391 34.9224 7.0306 34.846C7.51575 34.7642 7.43401 35.1334 7.46829 35.4181ZM9.07666 38.6955C9.97312 38.6823 10.6059 38.0126 10.598 37.0871C10.5901 36.1696 9.93621 35.4999 9.04502 35.4999C8.13273 35.4999 7.45774 36.217 7.49202 37.1531C7.52366 38.0812 8.16701 38.7087 9.07666 38.6955Z" fill="#F5F5F5"/>
<path d="M5.62009 39.3389C5.26941 39.4312 5.12703 39.1913 5.06112 38.896C4.84491 37.9678 4.27539 37.6198 3.34992 37.8017C3.20226 37.8307 3.03879 37.8281 2.89114 37.8017C1.85756 37.6277 1.11138 37.9046 0.871448 39.0304C0.773891 39.4866 0.370481 39.4048 0.133181 39.3099C-0.154216 39.1965 0.10154 38.9434 0.178003 38.772C0.926818 37.1004 1.68882 35.4366 2.44027 33.7676C2.5431 33.5382 2.64856 33.3748 2.95969 33.388C3.25764 33.3985 3.42374 33.4723 3.55558 33.765C4.31494 35.4788 5.09539 37.1821 5.88376 38.8854C6.01296 39.1754 6.11315 39.389 5.62009 39.3389ZM2.99924 34.2897C2.55628 35.2837 2.15814 36.1723 1.74419 37.1004C2.59319 37.1004 3.37892 37.1004 4.16992 37.1004C4.16201 37.0055 4.17256 36.958 4.15674 36.9211C3.79024 36.0826 3.42111 35.2442 2.99924 34.2897Z" fill="#F5F5F5"/>
<path d="M22.1835 39.4259C21.4874 39.3811 20.8388 39.2888 20.2666 38.9223C20.0161 38.7615 19.8157 38.6086 20.0346 38.2447C20.2877 37.8255 20.4327 38.1999 20.583 38.2922C21.2343 38.685 21.9383 38.7773 22.6686 38.6745C23.1617 38.6059 23.5572 38.3502 23.6205 37.8255C23.6785 37.3456 23.283 37.1267 22.9191 36.987C22.3496 36.7708 21.7484 36.6442 21.1736 36.4465C20.3536 36.1644 20.0451 35.7293 20.061 34.9541C20.0768 34.2132 20.4512 33.7228 21.2264 33.4776C22.1202 33.1928 22.9929 33.2877 23.8446 33.6753C24.1162 33.7993 24.1821 33.9416 24.0502 34.2264C23.9026 34.5428 23.7391 34.4373 23.5335 34.3213C22.9507 33.9917 22.3179 33.9627 21.6851 34.0814C21.2606 34.1605 20.9152 34.3872 20.8388 34.875C20.757 35.3786 21.0945 35.6107 21.4637 35.753C22.0095 35.964 22.5895 36.0905 23.1459 36.2751C24.0687 36.581 24.4721 37.1109 24.3877 37.8756C24.2981 38.6745 23.7523 39.2071 22.8664 39.3468C22.6264 39.3837 22.3865 39.4022 22.1835 39.4259Z" fill="#F5F5F5"/>
<path d="M39.4329 37.3611C38.9715 37.3611 38.5101 37.3875 38.0513 37.3559C37.5213 37.319 37.5767 37.5536 37.7533 37.8911C38.1884 38.719 39.3696 38.9827 40.2028 38.4185C40.4216 38.2682 40.5851 38.0625 40.8277 38.4C41.0887 38.7639 40.7776 38.8851 40.5825 39.0038C39.7071 39.539 38.7816 39.5443 37.901 39.0592C37.0414 38.5872 36.7488 37.7646 36.8437 36.8233C36.9307 35.9611 37.3394 35.2966 38.1884 34.9697C39.715 34.3791 41.1757 35.3494 41.2311 36.9788C41.2417 37.2689 41.1705 37.377 40.8778 37.3664C40.3979 37.3506 39.9154 37.3611 39.4329 37.3611ZM38.9899 36.76C39.3643 36.76 39.7388 36.7363 40.1105 36.7653C40.5614 36.7995 40.5139 36.5701 40.3768 36.3038C40.1026 35.7765 39.6728 35.4838 39.0611 35.4865C38.4573 35.4891 38.0144 35.7396 37.7375 36.288C37.5793 36.6018 37.5767 36.7811 38.0038 36.7626C38.3308 36.7468 38.6604 36.76 38.9899 36.76Z" fill="#F5F5F5"/>
<path d="M32.8808 37.0687C32.8861 38.4635 31.9896 39.3811 30.6132 39.3837C29.2448 39.3863 28.2772 38.4398 28.2798 37.0977C28.2824 35.7715 29.2817 34.788 30.6159 34.8012C31.9527 34.8117 32.8755 35.7372 32.8808 37.0687ZM30.5895 38.6955C31.486 38.6982 32.1214 38.0495 32.132 37.1188C32.1425 36.188 31.515 35.5104 30.6317 35.4972C29.7036 35.4841 29.0497 36.1511 29.0523 37.1082C29.0576 38.0364 29.693 38.6929 30.5895 38.6955Z" fill="#F5F5F5"/>
<path d="M25.6191 37.045C25.6191 36.7391 25.6059 36.4306 25.6217 36.1248C25.6402 35.753 25.6639 35.405 25.1102 35.4946C24.8597 35.5342 24.8387 35.3601 24.8307 35.165C24.8228 34.9488 24.8835 34.8143 25.1208 34.8592C25.6138 34.9488 25.6587 34.6614 25.6191 34.2896C25.5927 34.0418 25.6402 33.8678 25.954 33.8625C26.2387 33.8572 26.3785 33.9574 26.3284 34.2422C26.2282 34.7985 26.5103 34.9251 26.9875 34.8592C27.0956 34.8433 27.2064 34.8644 27.3171 34.8565C27.565 34.8328 27.6863 34.9304 27.6836 35.1861C27.681 35.4551 27.5281 35.4893 27.2987 35.5051C26.331 35.5763 26.331 35.5842 26.331 36.5308C26.331 36.9922 26.3073 37.4536 26.3416 37.9124C26.3943 38.6217 26.7081 38.8511 27.3936 38.6481C27.6652 38.5663 27.7759 38.5742 27.884 38.8379C28.0238 39.1754 27.7469 39.236 27.5755 39.2835C26.5709 39.563 25.5637 39.2598 25.6165 38.0337C25.6323 37.7041 25.6191 37.3745 25.6191 37.045Z" fill="#F5F5F5"/>
<path d="M34.7341 35.4047C35.1586 35.0408 35.5541 34.8431 36.0366 34.8273C36.2686 34.8194 36.3662 34.8853 36.3503 35.112C36.3372 35.2966 36.4004 35.468 36.0893 35.5313C35.0847 35.7369 34.7736 36.1403 34.7314 37.2082C34.7077 37.7777 34.7182 38.3499 34.7314 38.9194C34.7367 39.1936 34.7182 39.3597 34.3596 39.3544C33.9905 39.3492 33.9932 39.1488 33.9958 38.8904C33.9984 37.7276 33.9905 36.5648 34.0037 35.4021C34.0063 35.178 33.8587 34.8721 34.3227 34.8405C34.7288 34.8141 34.7472 35.054 34.7341 35.4047Z" fill="#F5F5F5"/>
<path d="M76.0496 16.2633C73.8561 16.2633 71.6682 16.2494 69.4803 16.2744C69.0011 16.2799 68.8544 16.1636 68.8682 15.6706C68.9042 14.3107 68.8959 12.9481 68.871 11.5883C68.8627 11.1701 68.9707 11.0344 69.4083 11.0372C73.2829 11.0538 77.1602 11.051 81.0348 11.0399C81.3782 11.0399 81.489 11.1369 81.5499 11.4858C82.1232 14.8647 81.5278 18.0219 79.819 20.9798C75.9472 27.6793 66.4919 28.9533 60.4488 24.1426C55.9954 20.5976 54.1647 14.6182 56.0231 9.26188C57.7845 4.17977 61.3988 1.07234 66.7301 0.1944C70.6629 -0.453672 74.2439 0.523975 77.3818 3.04703C77.7778 3.36552 77.6587 3.49569 77.3845 3.76434C76.3127 4.81399 75.2465 5.86642 74.2079 6.94931C73.9226 7.24565 73.7454 7.24011 73.4158 7.01855C70.2087 4.83892 66.2787 5.08818 63.4427 7.62785C59.6761 11.0039 60.1026 17.2437 64.2929 20.0825C67.0292 21.9353 70.7543 22.0101 73.4656 20.2625C74.856 19.3596 75.8613 17.8198 76.0496 16.2633Z" fill="#FCFCFC"/>
<path d="M75.1356 35.0352C75.1051 34.6336 75.2491 34.4425 75.6729 34.5007C76.1021 34.5588 75.9498 34.8663 75.9526 35.0795C75.9664 36.1181 75.9166 37.1567 75.9664 38.1925C76.1049 40.962 74.1967 41.2944 72.3522 40.8208C72.0918 40.7543 71.8509 40.5992 71.6099 40.4718C71.369 40.3444 71.2942 40.1865 71.4687 39.9179C71.6404 39.6548 71.7761 39.6603 72.0088 39.832C72.4713 40.1672 73.0196 40.289 73.5735 40.2918C74.6315 40.2946 75.1411 39.6963 75.1051 38.4833C74.5041 38.8599 73.8865 39.1424 73.1775 39.051C72.463 38.9596 71.8537 38.6772 71.4272 38.0679C70.8622 37.2564 70.9508 35.9159 71.621 35.1848C72.4436 34.2902 73.784 34.221 75.1356 35.0352ZM75.1383 36.7689C75.1466 35.8328 74.4986 35.1903 73.5375 35.1765C72.5544 35.1626 71.8094 35.8522 71.8204 36.7634C71.8315 37.6247 72.5987 38.3531 73.4988 38.3531C74.4321 38.3531 75.13 37.6801 75.1383 36.7689Z" fill="#F5F5F5"/>
<path d="M58.9002 37.381C58.9002 38.7436 58.5263 39.0926 56.8674 39.2782C55.5463 39.425 54.1865 38.7492 53.6076 37.6525C52.9956 36.492 53.1423 35.0269 53.9704 34.0244C54.9813 32.8002 57.2274 32.5066 58.4876 33.4649C58.6371 33.5785 59.1052 33.6505 58.7784 34.0631C58.5346 34.3761 58.3463 34.3096 58.05 34.1074C56.9837 33.3763 55.4604 33.5563 54.66 34.473C53.8596 35.3897 53.8541 36.7607 54.6434 37.6885C55.3607 38.5304 56.7261 38.7935 57.7342 38.3088C57.9973 38.1814 58.122 38.0346 58.1054 37.7328C58.0804 37.3201 58.1109 36.9019 58.097 36.4892C58.086 36.2012 58.1164 36.0184 58.4931 36.024C58.8531 36.0295 58.9196 36.1846 58.903 36.4865C58.8891 36.78 58.9002 37.0819 58.9002 37.381Z" fill="#F5F5F5"/>
<path d="M82.1202 37.1373C81.6356 37.1373 81.1509 37.1594 80.669 37.1317C80.2148 37.104 80.2425 37.2813 80.3893 37.6053C80.813 38.5387 82.0455 38.8655 82.9788 38.2589C83.2336 38.0928 83.4358 37.8795 83.685 38.2617C83.9454 38.6605 83.5549 38.7658 83.3776 38.8738C82.483 39.4111 81.5331 39.4166 80.6219 38.943C79.7301 38.4777 79.4006 37.6386 79.4643 36.6858C79.528 35.7387 79.9434 34.9715 80.9099 34.6114C82.4858 34.0188 84.0755 35.085 84.1171 36.7551C84.1254 37.0819 83.9869 37.1456 83.71 37.14C83.1782 37.129 82.6492 37.1373 82.1202 37.1373ZM80.2979 36.5058C81.198 36.5058 82.0898 36.503 82.9788 36.5086C83.3665 36.5114 83.3028 36.3313 83.1921 36.0765C82.9179 35.4395 82.3473 35.1127 81.5857 35.1847C80.8906 35.2512 80.4834 35.6556 80.2979 36.5058Z" fill="#F5F5F5"/>
<path d="M62.4254 39.2587C61.0074 39.2671 60.0381 38.3199 60.0243 36.9157C60.0104 35.4589 60.9521 34.4758 62.3867 34.4481C63.7825 34.4204 64.8377 35.4423 64.8599 36.8437C64.8848 38.2368 63.8628 39.2532 62.4254 39.2587ZM62.3867 38.5414C63.3366 38.5525 64.029 37.8795 64.0539 36.9185C64.0789 35.9187 63.392 35.182 62.4282 35.182C61.4949 35.1792 60.808 35.8771 60.7942 36.8437C60.7803 37.7909 61.4727 38.5304 62.3867 38.5414Z" fill="#F5F5F5"/>
<path d="M67.9563 39.2615C66.5217 39.2754 65.5163 38.2922 65.5052 36.8714C65.4942 35.4673 66.5217 34.4425 67.9341 34.4453C69.33 34.4481 70.3104 35.4147 70.3353 36.8133C70.363 38.2534 69.3965 39.2505 67.9563 39.2615ZM67.9314 38.5415C68.8564 38.5415 69.5654 37.8242 69.5737 36.877C69.5848 35.9326 68.8786 35.1931 67.9591 35.182C66.9925 35.1709 66.2669 35.9076 66.2807 36.8853C66.2946 37.8352 66.998 38.5415 67.9314 38.5415Z" fill="#F5F5F5"/>
<path d="M77.5058 35.8828C77.5058 34.9606 77.5058 34.0383 77.5058 33.1161C77.5058 32.8419 77.4449 32.5649 77.8963 32.5649C78.3145 32.5677 78.3201 32.7948 78.3201 33.0967C78.3145 34.9883 78.3145 36.8799 78.3228 38.7715C78.3228 39.0623 78.3007 39.2395 77.9268 39.2312C77.5889 39.2229 77.4947 39.1121 77.5003 38.7881C77.5169 37.8215 77.5058 36.8522 77.5058 35.8828Z" fill="#F5F5F5"/>
<path d="M107.643 16.0758C107.643 12.5491 107.643 9.02493 107.641 5.49824C107.641 5.20498 107.656 4.92675 107.804 4.65605C108.245 3.85897 108.526 3.81134 109.167 4.45051C112.935 8.20529 116.699 11.9651 120.482 15.7048C120.84 16.0608 120.8 16.2262 120.469 16.557C116.724 20.2767 112.997 24.0165 109.258 27.7412C109.034 27.9618 108.829 28.433 108.521 28.2951C108.054 28.0896 107.706 27.656 107.646 27.0895C107.631 26.9441 107.643 26.7987 107.643 26.6508C107.643 23.1267 107.643 19.6 107.643 16.0758Z" fill="#FCFCFC"/>
<path d="M111.653 4.68848C112.593 5.21986 113.433 5.68608 114.267 6.16482C116.689 7.55093 119.105 8.94206 121.524 10.3307C122.491 10.8846 123.464 11.4386 124.436 11.985C124.717 12.1429 124.765 12.2732 124.502 12.5264C123.747 13.2458 122.998 13.9727 122.293 14.7397C121.952 15.1131 121.787 14.9527 121.519 14.682C118.428 11.5789 115.328 8.48587 112.235 5.3878C112.059 5.21485 111.916 5.00931 111.653 4.68848Z" fill="#F5F5F5"/>
<path d="M124.812 20.0385C120.403 22.5676 116.072 25.0541 111.738 27.5381C111.698 27.4829 111.658 27.4303 111.615 27.3751C114.894 24.1317 118.18 20.9008 121.439 17.6373C121.86 17.2137 122.068 17.2638 122.436 17.6598C123.176 18.4519 123.965 19.1963 124.812 20.0385Z" fill="#F5F5F5"/>
<path d="M129.565 16.1708C129.683 16.8801 129.337 17.394 128.733 17.7449C127.981 18.1835 127.204 18.5795 126.457 19.0282C126.209 19.1761 126.081 19.1535 125.885 18.958C125.013 18.0933 124.128 17.2436 123.238 16.3964C123.048 16.2159 123.023 16.0981 123.226 15.9001C124.108 15.0453 124.985 14.1856 125.843 13.3058C126.063 13.0777 126.234 13.0953 126.469 13.2356C127.269 13.7094 128.086 14.153 128.873 14.6468C129.409 14.9827 129.64 15.504 129.565 16.1708Z" fill="#FCFCFC"/>
<path d="M118.032 37.7245C118.736 36.5138 119.393 35.3884 120.047 34.2655C120.12 34.1401 120.198 34.0173 120.268 33.8895C120.403 33.6388 120.636 33.7391 120.827 33.7491C121.04 33.7616 120.982 33.9622 120.982 34.095C120.987 35.7217 120.982 37.3485 120.987 38.9752C120.987 39.2384 120.957 39.3938 120.621 39.3988C120.245 39.4063 120.295 39.1883 120.295 38.9602C120.298 37.7596 120.295 36.5589 120.198 35.3307C119.611 36.3208 119.027 37.3134 118.441 38.3035C118.107 38.8649 117.927 38.8649 117.588 38.296C117.019 37.341 116.458 36.381 115.784 35.4435C115.784 36.5765 115.789 37.7094 115.779 38.8424C115.776 39.0805 115.912 39.3888 115.435 39.3988C114.924 39.4114 115.052 39.0805 115.049 38.8173C115.044 37.3159 115.039 35.8145 115.054 34.3131C115.057 34.1226 114.886 33.8293 115.235 33.7416C115.571 33.6589 115.754 33.8293 115.922 34.1201C116.588 35.2931 117.283 36.4512 118.032 37.7245Z" fill="#F5F5F5"/>
<path d="M96.1253 36.5665C96.1253 35.7544 96.1253 34.9423 96.1253 34.1277C96.1253 33.9472 96.0802 33.7316 96.376 33.7367C97.2708 33.7542 98.1807 33.6765 99.058 33.8093C100.168 33.9773 100.707 34.8044 100.622 35.9248C100.549 36.8673 99.7698 37.5691 98.7121 37.6243C98.2333 37.6493 97.7521 37.6544 97.2733 37.6268C96.9324 37.6067 96.8372 37.7321 96.8623 38.0529C96.8873 38.3637 96.8547 38.6795 96.8723 38.9903C96.8873 39.261 96.8397 39.4064 96.5088 39.3989C96.2106 39.3914 96.1103 39.3087 96.1178 39.0054C96.1354 38.1908 96.1253 37.3786 96.1253 36.5665ZM96.8673 35.5739C96.8673 35.995 96.8673 36.3485 96.8673 36.7044C96.8673 36.8523 96.8522 37.0077 97.0753 37.0027C97.7596 36.9826 98.4589 37.0979 99.1181 36.8322C99.5768 36.6467 99.8626 36.3234 99.8801 35.797C99.9052 35.1027 99.6445 34.6891 98.9728 34.4911C98.3035 34.2931 97.5791 34.2505 96.95 34.4635C96.6943 34.5513 96.9174 35.2305 96.8673 35.5739Z" fill="#F5F5F5"/>
<path d="M131.174 37.1907C131.78 36.6367 132.394 36.1179 132.958 35.5489C133.314 35.1904 133.685 35.0175 134.319 35.1904C133.821 35.6642 133.379 36.1103 132.908 36.5214C132.62 36.7721 132.572 36.9525 132.843 37.2659C133.4 37.9125 133.908 38.5968 134.497 39.3388C133.986 39.424 133.598 39.4741 133.294 38.9903C133.064 38.6219 132.768 38.291 132.472 37.9702C132.307 37.7897 132.154 37.3461 131.961 37.4814C131.602 37.7346 131.078 37.9276 131.081 38.5166C131.081 38.7046 131.068 38.8926 131.084 39.0781C131.104 39.3237 131.008 39.4014 130.765 39.3964C130.517 39.3914 130.379 39.3513 130.382 39.058C130.389 37.2859 130.389 35.5163 130.384 33.7442C130.384 33.4935 130.447 33.3657 130.735 33.3682C131.016 33.3707 131.091 33.4735 131.086 33.7367C131.076 34.6741 131.076 35.6115 131.086 36.549C131.086 36.742 131.016 36.955 131.174 37.1907Z" fill="#F5F5F5"/>
<path d="M135.375 37.5015C135.418 38.7272 137.082 39.1433 137.884 38.459C138.12 38.2585 138.24 38.2811 138.425 38.5016C138.608 38.7197 138.47 38.825 138.33 38.9528C137.804 39.4491 136.563 39.5794 135.791 39.216C135.052 38.8701 134.563 38.0329 134.6 37.1782C134.641 36.2307 135.149 35.4913 135.961 35.198C137.378 34.6892 138.749 35.6241 138.829 37.1331C138.851 37.5441 138.613 37.5015 138.358 37.5015C137.363 37.5015 136.37 37.5015 135.375 37.5015ZM136.701 36.93C137.054 36.93 137.405 36.9175 137.759 36.9325C138.132 36.9476 138.115 36.7872 137.989 36.5215C137.744 36.0026 137.34 35.7419 136.771 35.7194C136.2 35.6993 135.773 35.9475 135.495 36.4363C135.33 36.727 135.26 36.9852 135.771 36.9351C136.077 36.905 136.39 36.93 136.701 36.93Z" fill="#F5F5F5"/>
<path d="M106.457 36.8647C106.498 35.7568 105.685 35.6039 104.753 35.7944C104.575 35.832 104.395 35.9172 104.247 36.025C104.016 36.1954 103.891 36.1353 103.753 35.9097C103.618 35.6891 103.705 35.5738 103.893 35.466C104.678 35.0174 105.505 34.9221 106.35 35.2455C106.858 35.441 107.132 35.8596 107.144 36.4085C107.167 37.2833 107.169 38.158 107.172 39.0353C107.172 39.1632 107.244 39.3562 107.019 39.3762C106.858 39.3888 106.568 39.4439 106.555 39.3261C106.49 38.7646 106.269 39.1556 106.099 39.2258C105.477 39.4815 104.841 39.5216 104.224 39.2459C103.715 39.0203 103.47 38.5741 103.54 38.0277C103.608 37.4938 103.923 37.1329 104.477 36.9925C105.129 36.8296 105.801 36.9549 106.457 36.8647ZM105.212 38.8799C105.733 38.8022 106.199 38.6493 106.42 38.1204C106.588 37.7194 106.578 37.4312 106.009 37.4863C105.721 37.5139 105.425 37.4938 105.134 37.4988C104.683 37.5089 104.262 37.6242 104.274 38.1656C104.287 38.7421 104.786 38.7897 105.212 38.8799Z" fill="#F5F5F5"/>
<path d="M125.815 37.7043C125.815 38.1405 125.82 38.5791 125.813 39.0153C125.81 39.1431 125.888 39.3436 125.685 39.3687C125.519 39.3912 125.246 39.489 125.191 39.2734C125.106 38.9401 124.993 39.0629 124.82 39.1707C124.331 39.4765 123.787 39.4539 123.251 39.3762C122.607 39.2835 122.191 38.8022 122.178 38.1956C122.168 37.5615 122.529 37.1504 123.198 36.985C123.692 36.8621 124.193 36.8772 124.687 36.9048C125.108 36.9273 125.133 36.7143 125.056 36.416C124.953 36.0149 124.687 35.7894 124.266 35.7442C123.755 35.6866 123.269 35.7543 122.837 36.05C122.664 36.1703 122.532 36.1703 122.436 35.9723C122.379 35.852 122.211 35.7267 122.379 35.5913C123.086 35.0274 123.91 34.9848 124.747 35.1452C125.351 35.2605 125.765 35.7994 125.805 36.4536C125.83 36.8672 125.81 37.2858 125.81 37.7018C125.813 37.7043 125.815 37.7043 125.815 37.7043ZM124.211 37.4888C124.211 37.4963 124.211 37.5013 124.211 37.5088C123.983 37.5088 123.747 37.4813 123.524 37.5164C123.226 37.5615 122.965 37.6918 122.925 38.0477C122.883 38.4137 123.048 38.6368 123.386 38.7646C123.935 38.9726 124.409 38.8423 124.828 38.4638C125.081 38.2357 125.194 37.9199 125.076 37.6166C124.973 37.3534 124.67 37.5339 124.462 37.4913C124.381 37.4762 124.294 37.4888 124.211 37.4888Z" fill="#F5F5F5"/>
<path d="M107.743 35.1856C108.264 35.0051 108.533 35.163 108.723 35.6417C109.089 36.5667 109.518 37.4665 109.974 38.5017C110.432 37.474 110.881 36.5591 111.25 35.6117C111.435 35.1354 111.688 35.0176 112.197 35.1906C111.42 36.9025 110.678 38.612 109.864 40.2864C109.508 41.0183 108.568 41.1937 107.853 40.7826C107.668 40.6774 107.475 40.5896 107.648 40.3189C107.776 40.1159 107.886 40.0106 108.137 40.1786C108.475 40.4067 108.848 40.4493 109.149 40.1084C109.465 39.7525 109.643 39.379 109.397 38.8651C108.821 37.6545 108.294 36.4188 107.743 35.1856Z" fill="#F5F5F5"/>
<path d="M139.911 37.0906C139.911 36.8399 139.903 36.5918 139.913 36.3411C139.928 35.9952 139.966 35.6493 139.432 35.727C139.184 35.7621 139.194 35.5641 139.184 35.3962C139.176 35.2282 139.216 35.0904 139.417 35.1255C139.931 35.2157 139.948 34.9049 139.911 34.5389C139.883 34.2607 140.031 34.1905 140.284 34.1755C140.6 34.1579 140.637 34.3409 140.597 34.5665C140.51 35.0578 140.733 35.1931 141.176 35.1229C141.299 35.1029 141.427 35.123 141.55 35.1204C141.733 35.1129 141.876 35.1305 141.868 35.3786C141.861 35.5867 141.846 35.737 141.572 35.737C141.267 35.737 140.848 35.5917 140.68 35.8047C140.46 36.0855 140.615 36.5241 140.602 36.8926C140.59 37.266 140.582 37.642 140.605 38.0155C140.645 38.6772 140.963 38.9203 141.6 38.7349C141.836 38.6647 141.973 38.6145 142.081 38.8777C142.217 39.2161 141.936 39.2888 141.745 39.3565C140.79 39.6974 140.023 39.2136 139.931 38.211C139.896 37.84 139.926 37.4615 139.926 37.0881C139.923 37.0906 139.918 37.0906 139.911 37.0906Z" fill="#F5F5F5"/>
<path d="M127.943 35.6743C128.341 35.2933 128.722 35.1153 129.176 35.0953C129.381 35.0878 129.509 35.1153 129.489 35.3485C129.474 35.5164 129.559 35.6918 129.259 35.762C128.258 35.9926 127.98 36.3611 127.95 37.4038C127.935 37.9452 127.938 38.4891 127.953 39.0305C127.96 39.2862 127.908 39.404 127.614 39.3965C127.346 39.389 127.246 39.3113 127.248 39.0381C127.258 37.8901 127.248 36.7446 127.256 35.5966C127.258 35.3961 127.146 35.1329 127.544 35.1078C127.918 35.0853 127.983 35.2733 127.943 35.6743Z" fill="#F5F5F5"/>
<path d="M102.417 36.3762C102.417 37.2509 102.414 38.1257 102.419 39.0005C102.422 39.2261 102.422 39.389 102.103 39.3965C101.773 39.4041 101.74 39.2562 101.74 38.9855C101.748 37.2585 101.745 35.529 101.742 33.802C101.742 33.5663 101.707 33.3558 102.076 33.3658C102.432 33.3733 102.414 33.5814 102.414 33.817C102.414 34.6692 102.417 35.5239 102.417 36.3762Z" fill="#FCFCFC"/>
<path d="M159.659 20.872C162.229 19.39 164.69 17.9718 167.277 16.4814C166.478 16.0984 165.789 15.696 165.054 15.4323C164.013 15.0604 163.344 14.4582 162.997 13.3563C162.578 12.0214 161.962 10.7475 161.438 9.44587C161.379 9.30155 161.349 9.14613 161.274 8.8797C162.9 9.44032 164.438 9.95931 165.97 10.4977C168.187 11.2748 170.394 12.0797 172.619 12.829C173.111 12.9928 173.241 13.2204 173.233 13.7088C173.202 15.349 173.213 16.9921 173.227 18.6323C173.23 19.0181 173.136 19.2789 172.78 19.4815C168.665 21.8378 164.549 24.1996 160.45 26.5865C159.922 26.8917 159.528 26.975 158.959 26.6336C157.585 25.8094 156.162 25.0683 154.749 24.3134C154.355 24.1025 154.236 23.8333 154.236 23.3837C154.252 15.7792 154.252 8.17198 154.238 0.567513C154.238 0.0679499 154.26 -0.134651 154.852 0.0929283C156.248 0.628572 157.669 1.10593 159.09 1.57497C159.517 1.71651 159.675 1.90523 159.672 2.39092C159.65 8.26357 159.659 14.1334 159.659 20.0061C159.659 20.2503 159.659 20.4946 159.659 20.872Z" fill="#FCFCFC"/>
<path d="M158.388 35.942C159.34 36.5415 159.618 37.1548 159.368 38.0374C159.185 38.6896 158.477 39.1753 157.581 39.1975C156.568 39.2252 155.552 39.1919 154.539 39.2113C154.197 39.2169 154.114 39.092 154.117 38.7701C154.128 36.9716 154.131 35.176 154.117 33.3776C154.114 33.0501 154.211 32.9335 154.547 32.9418C155.491 32.964 156.44 32.9196 157.381 32.9779C158.091 33.0195 158.757 33.2582 159.018 34.0214C159.271 34.7791 159.085 35.4285 158.388 35.942ZM156.379 38.5092C156.726 38.5092 157.07 38.5286 157.417 38.5064C158.166 38.4592 158.607 38.0429 158.594 37.4351C158.58 36.8495 158.158 36.4721 157.425 36.436C156.803 36.4055 156.176 36.4526 155.56 36.3944C155.013 36.3416 154.922 36.5553 154.933 37.0466C154.958 38.5258 154.936 38.5258 156.379 38.5092ZM156.343 33.6384C155.968 33.6384 155.668 33.6468 155.369 33.6357C155.119 33.6273 154.877 33.6357 154.947 33.9826C155.061 34.5515 154.589 35.4285 155.199 35.6395C155.935 35.892 156.837 35.7921 157.642 35.5257C158.019 35.4008 158.249 35.1371 158.274 34.7153C158.302 34.2601 158.075 33.9881 157.692 33.7939C157.234 33.5635 156.745 33.6801 156.343 33.6384Z" fill="#F5F5F5"/>
<path d="M172.642 38.4706C171.071 39.2893 169.748 39.1616 168.993 38.1458C168.332 37.255 168.402 35.9505 169.126 35.1485C169.806 34.3963 171.457 34.0744 172.584 35.0236C172.723 35.018 172.709 34.907 172.695 34.8293C172.642 34.4713 172.867 34.4907 173.114 34.4824C173.436 34.4685 173.425 34.6683 173.422 34.8848C173.414 36.2697 173.428 37.6546 173.389 39.0395C173.361 40.0858 172.826 40.652 171.79 40.9018C170.866 41.1238 170.006 40.9573 169.19 40.5215C169.004 40.4216 168.682 40.3495 168.923 39.9665C169.129 39.639 169.279 39.6584 169.559 39.8638C169.959 40.1552 170.447 40.2468 170.93 40.2856C172.026 40.3634 172.495 39.8721 172.642 38.4706ZM170.974 35.1568C170.017 35.1623 169.351 35.809 169.354 36.736C169.356 37.6602 170.034 38.329 170.98 38.3401C171.915 38.354 172.692 37.5963 172.667 36.6971C172.64 35.7896 171.937 35.1512 170.974 35.1568Z" fill="#F5F5F5"/>
<path d="M163.819 35.032C164.175 34.7794 164.474 34.5657 164.841 34.4936C166.492 34.1744 167.427 34.9404 167.43 36.6195C167.433 37.3577 167.416 38.0988 167.436 38.837C167.444 39.1534 167.322 39.22 167.033 39.2172C166.736 39.2172 166.628 39.1229 166.631 38.8203C166.639 38.0349 166.645 37.2495 166.609 36.4641C166.573 35.6481 166.212 35.2429 165.546 35.1819C164.677 35.1041 164.061 35.4927 163.886 36.292C163.722 37.0413 163.855 37.8129 163.814 38.5706C163.8 38.8481 163.983 39.2339 163.403 39.22C162.826 39.2033 163.015 38.812 163.012 38.54C162.995 37.3855 162.995 36.2282 163.012 35.0736C163.015 34.846 162.834 34.4991 163.331 34.4741C163.722 34.4547 163.853 34.6185 163.819 35.032Z" fill="#F5F5F5"/>
<path d="M160.631 36.7777C160.631 36.1338 160.639 35.4871 160.625 34.8433C160.619 34.5907 160.681 34.4603 160.966 34.4797C161.208 34.4963 161.435 34.4741 161.435 34.8183C161.433 36.1754 161.43 37.5353 161.438 38.8925C161.441 39.2672 161.188 39.1867 160.969 39.2089C160.686 39.2366 160.622 39.1034 160.625 38.8481C160.639 38.1598 160.631 37.4687 160.631 36.7777Z" fill="#F5F5F5"/>
<path d="M160.892 32.5536C161.33 32.5342 161.538 32.7202 161.563 33.0171C161.591 33.3196 161.41 33.5444 161.08 33.5611C160.747 33.5777 160.492 33.4695 160.492 33.0726C160.492 32.7313 160.7 32.5953 160.892 32.5536Z" fill="#F5F5F5"/>
</svg>
